<svg id="efsS13ijudY1" xmlns="http://www.w3.org/2000/svg" xmlns:xlink="http://www.w3.org/1999/xlink" viewBox="0 0 709 383" shape-rendering="geometricPrecision" text-rendering="geometricPrecision"><path id="efsS13ijudY2" d="M1418,135v180.47h-1418v-138.91C0,153.61,0,145,0,135c5.14-2.97,15.21-5.02,20.75-6.33c6.81-1.62,10.54-5.96,14.82-10.49c3.71-3.93,7.55-8.62,12.31-10.46c9.24-3.59,18.13-1.49,25.44,5.88c4.02,4.05,8.12,8.12,12.71,11.44c3.22,2.33,7.29,3.53,11.06,5.02c3.96,1.57,7.94,3.18,12.04,4.22c2.61.66,5.56.81,8.19.34c6.78-1.24,12.29-5.28,17.78-9.14c4.25-2.98,8.82-2.85,13.78-2.73c10.42.27,20.57-.07,28.13-9.74c5.11-6.53,11.89-11.8,18.18-17.35c2.88-2.54,10.19-1.51,13.32,1.84c5.12,5.46,10.46,10.84,14.66,16.98c5.04,7.39,12.14,9.87,20.24,11.2c8.18,1.34,16.67.47,24.62,4.06c2.64,1.19,6.5.7,9.5-.12c9.97-2.72,19.49-1.68,29.5.54c8.1,1.8,16.51,5.18,25.19,2.06c2.33-.84,4.9-1.33,6.93-2.63c6.57-4.23,12.6-3.08,18.28,1.45C361.1,133.98,363,139,373,143c28,5,21,16,46.84,12.04c11.89-6.92,20.11-12.61,35.9-16.75c2.84-.74,5.74-1.25,8.66-1.51c1.25-.11,2.95-.29,4.9-.51c3.49-.39,5.44-3.34,7.81-5.93C482,125,485.15,122.5,491,122c3.83-.33,4.41-3.88,8.23-4.69c9.49-2.03,18.66-1.59,26.84,4.4c4.44,3.26,8.66,6.84,13.18,10.01c6.31,4.42,11.58,4.21,16.55-1.75c5.79-6.94,10.66-14.64,15.99-21.96c6.49-8.89,12.42-10.71,22.57-7.04c1.85.67,3.7,1.34,5.58,1.9c7.87,2.38,15.45,5.26,21.58,11.11c1.34,1.29,3.28,2.14,5.09,2.72.86.28,1.73.55,2.59.82c3.51-3.78,7.19-8.06,11.68-9.8c9.24-3.59,18.13-1.49,25.44,5.88c4.02,4.05,8.12,8.12,12.71,11.44.78.56,1.61,1.06,2.47,1.51c6.09-.89,12.16-1.93,18.23-2.98c2.06-.36,3.97-1.5,6.01-2.06c5.42-1.5,10.9-4.11,16.32-4.01c7.28.13,13.35-1.75,18.69-6.17c4.9-4.04,10.95-4.19,16.16-3.43c5.01.74,9.86,1.85,14.58,3.32c4.89-5.72,10.99-10.53,16.7-15.56c2.88-2.54,10.19-1.51,13.32,1.84c5.12,5.46,10.46,10.84,14.66,16.98c5.04,7.39,12.14,9.87,20.24,11.2c8.18,1.34,16.67.47,24.62,4.06c2.64,1.19,6.5.7,9.5-.12c9.97-2.72,19.49-1.68,29.5.54c8.1,1.8,16.51,5.18,25.19,2.06c2.33-.84,4.9-1.33,6.93-2.63c6.57-4.23,12.6-3.08,18.28,1.45c3.67,2.94,8.16,5.33,8.92,10.74c14.06,5.27,33.61,9.6,53.49,13.26c13.41-7.81,35.23-18.33,42.36-18.26-.31.39,5.38-.32,11.95-1.06c2.61-4.16,3.95-6.9,2.76-6.81c2.33-4.57,5.14-8.22,10.99-8.72c3.83-.33,7.51-2.07,11.33-2.88c9.49-2.03,18.66-1.59,26.84,4.4c4.44,3.26,8.66,6.84,13.18,10.01c6.31,4.42,11.58,4.21,16.55-1.75c5.79-6.94,10.66-14.64,15.99-21.96c6.49-8.89,12.42-10.71,22.57-7.04c1.85.67,3.7,1.34,5.58,1.9c7.87,2.38,15.45,5.26,21.58,11.11c1.34,1.29,3.28,2.14,5.09,2.72c10.15,3.26,20.47,6.04,30.49,9.65c6.2,2.24,12.27,1.81,18.43,1.02c8.1-1.03,16.15-2.41,24.2-3.8c2.06-.36,3.97-1.5,6.01-2.06c5.42-1.5,10.9-4.11,16.32-4.01c7.28.13,13.35-1.75,18.69-6.17c4.9-4.04,10.95-4.19,16.16-3.43c17.67,2.59,33.47,9.93,47.95,20.55c6,4.4,12,6.01,20.14,6.55Z" fill="#edd672"/><path id="efsS13ijudY3" d="M2836,140.53v175.47h-1418v.47h-1418L0,141c1.75-.11,16.52.16,25,5c7,4,14.79,9.8,21,12c5.7,2.03,18.77-7.17,24.18-4.56c11.57,5.59,22.89,11.7,34.33,17.55c5.23,2.68,10.61,3.61,16.57,2.35c10.61-2.24,21.34-3.88,32.01-5.86c10.7-1.98,21.42-3.74,30.77-10.07c5.15-3.49,11.21-2.91,17.16-2.5c3.28.22,6.72.26,9.89-.49c7.2-1.71,14.55-3.4,21.61-.93c9.9,3.46,19.44,7.96,29.13,12.03c7.56,3.18,15.11,7.47,23.5,6.11c9.78-1.59,19.69-3.65,28.94-7.13c17.64-6.63,34.86-14.41,52.26-21.72c4.89-.69,9.77-1.77,14.69-1.99c10.38-.46,20.76.61,30.34,4.57c8.87,3.69,17.8,2.69,26.82,2.7c9.47,0,17.78-2.68,24-10.28c4.9-2.62,9.81-5.24,14.71-7.87c4.79-.38,9.68-.25,14.34-1.23c7.34-1.54,13.99-.56,20.78,2.55c6.62,3.03,13.61,5.3,20.51,7.7c8.43,2.92,17,5.79,26.07,4.93c9.37-.88,18.65-2.92,28.03-3.53c2.09-.14,4.22-.32,6.36-.48c7.09-.55,14.3-.94,20.7,1c8.3,2.5,16.73,2.81,25.09,3.44c2.47.96,4.93,1.96,7.41,2.84c5.7,2.03,11.57,3.7,16.98,6.31c11.57,5.59,22.89,11.7,34.33,17.55c5.23,2.68,10.61,3.61,16.57,2.35c10.61-2.24,21.34-3.88,32.01-5.86c1.06-.2,2.13-.39,3.19-.59c9.63-1.78,19.16-3.78,27.58-9.48c5.15-3.49,11.21-2.91,17.16-2.5c3.28.22,6.72.26,9.89-.49c3.04-.72,6.12-1.44,9.18-1.84c4.01-.53,8-.52,11.91.74.17.05.35.11.52.17c9.9,3.46,19.44,7.96,29.13,12.03c7.56,3.18,15.11,7.47,23.5,6.11c9.78-1.59,19.69-3.65,28.94-7.13c17.64-6.63,34.86-14.41,52.26-21.72c4.89-.69,9.77-1.77,14.69-1.99c10.38-.46,20.76.61,30.34,4.57c8.87,3.69,17.8,2.69,26.82,2.7c9.47,0,17.78-2.68,24-10.28c4.9-2.62,9.81-5.24,14.71-7.87c4.79-.38,9.68-.25,14.34-1.23c7.34-1.54,13.99-.56,20.78,2.55c6.62,3.03,13.61,5.3,20.51,7.7c8.43,2.92,17,5.79,26.07,4.93c9.37-.88,18.65-2.92,28.03-3.53c9.03-.59,18.73-2,27.06.52c12.73,3.84,25.75,2.5,38.41,5.11c2.97.61,6.31-.63,9.49-.97c7.85-.85,15.2,1.59,22.52,3.79c12.13,3.63,24.07,7.9,36.26,11.3c8.52,2.37,17.68,2.74,25.89,5.79c9.35,3.48,18.69,4.1,28.31,3.85c9.33-.26,17.67-2.84,25.02-9.2c7.13-6.17,15.69-19.26,25.4-19.52c1.75-.11,16.52-.31,25,4.53c7,4,14.79,9.8,21,12c5.7,2.03,18.77-7.17,24.18-4.56c11.57,5.59,22.89,11.7,34.33,17.55c5.23,2.68,10.61,3.61,16.57,2.35c10.61-2.24,21.34-3.88,32.01-5.86c10.7-1.98,21.42-3.74,30.77-10.07c5.15-3.49,11.21-2.91,17.16-2.5c3.28.22,6.72.26,9.89-.49c7.2-1.71,14.55-3.4,21.61-.93c9.9,3.46,19.44,7.96,29.13,12.03c7.56,3.18,15.11,7.47,23.5,6.11c9.78-1.59,19.69-3.65,28.94-7.13c17.64-6.63,34.86-14.41,52.26-21.72c4.89-.69,9.77-1.77,14.69-1.99c10.38-.46,20.76.61,30.34,4.57c8.87,3.69,17.8,2.69,26.82,2.7c9.47,0,17.78-2.68,24-10.28c4.9-2.62,9.81-5.24,14.71-7.87c4.79-.38,9.68-.25,14.34-1.23c7.34-1.54,13.99-.56,20.78,2.55c6.62,3.03,13.61,5.3,20.51,7.7c8.43,2.92,17,5.79,26.07,4.93c9.37-.88,18.65-2.92,28.03-3.53c2.09-.14,4.22-.32,6.36-.48c7.09-.55,14.3-.94,20.7,1c8.3,2.5,16.73,2.81,25.09,3.44c2.47.96,4.93,1.96,7.41,2.84c5.7,2.03,11.57,3.7,16.98,6.31c11.57,5.59,22.89,11.7,34.33,17.55c5.23,2.68,10.61,3.61,16.57,2.35c10.61-2.24,21.34-3.88,32.01-5.86c1.06-.2,2.13-.39,3.19-.59c9.63-1.78,19.16-3.78,27.58-9.48c5.15-3.49,11.21-2.91,17.16-2.5c3.28.22,6.72.26,9.89-.49c3.04-.72,6.12-1.44,9.18-1.84c4.01-.53,8-.52,11.91.74.17.05.35.11.52.17c9.9,3.46,19.44,7.96,29.13,12.03c7.56,3.18,15.11,7.47,23.5,6.11c9.78-1.59,19.69-3.65,28.94-7.13c17.64-6.63,34.86-14.41,52.26-21.72c4.89-.69,9.77-1.77,14.69-1.99c10.38-.46,20.76.61,30.34,4.57c8.87,3.69,17.8,2.69,26.82,2.7c9.47,0,17.78-2.68,24-10.28c4.9-2.62,9.81-5.24,14.71-7.87c4.79-.38,9.68-.25,14.34-1.23c7.34-1.54,13.99-.56,20.78,2.55c6.62,3.03,13.61,5.3,20.51,7.7c8.43,2.92,17,5.79,26.07,4.93c9.37-.88,18.65-2.92,28.03-3.53c9.03-.59,18.73-2,27.06.52c12.73,3.84,25.75,2.5,38.41,5.11c2.97.61,6.31-.63,9.49-.97c7.85-.85,15.2,1.59,22.52,3.79c12.13,3.63,24.07,7.9,36.26,11.3c8.52,2.37,17.68,2.74,25.89,5.79c9.35,3.48,18.69,4.1,28.31,3.85c9.33-.26,17.67-2.84,25.02-9.2c7.13-6.17,15.69-19.26,25.4-19.52Z" fill="#ba9845"/><path id="efsS13ijudY4" d="M2639.11,173.18c1.75.03,30.4,8.48,39.86,8.7c5.29.12,24.31,9.14,29.6,9.28c5.84.16,22.06-7.1,27.17-9.86c9.67-5.22,19.06-2.84,34.12,1.18c13.17,3.53,26.26,7.36,39.54,10.5c8.73,2.07,9.6,4.57,26.6,5.57c20,3,27.43,2.36,36,1c10.32-1.63,10.32-1.09,20.64-2.67c10.13-1.54,19.69-4.69,28.76-9.27c6.54-3.3,13.38-4.67,20.64-2.43c5.33,1.65,10.43.68,15.64-.84c7.93-2.31,22.46-3.06,38.71-1.88c9.81.7,18.05,8.25,28.04,10.44c6.17,1.36,17.38.36,22.95,2.33l17.98-.43c4.24-.11,8.44.9,12.13,2.92c4.32,2.37,5.29,2.56,12.33-2.07l7.24-4.75c2.11-1.38,4.59-2.19,7.15-2.32l10.04-.54c4.07-.21,8-1.53,11.33-3.78c15.35-10.45,35.3-13.06,44.36-14.9c7.84-1.6,16.48-1.13,24.51.02c11.39,1.61,22.56,4.69,33.83,7.12c1.38.29,2.81.39,4.23.47c6.93.37,13.91,1.35,20.78.9c9.19-.63,18.49-1.64,26.52-6.83c3.85-2.5,7.83-4.82,11.59-7.43c7.72-5.32,16.64-6.44,25.72-7.27c5.3-.49,10.59-1.95,15.84-1.78c5.78.19,11.95.73,17.17,2.88c18,7.41,36.66,12.63,55.94,14.99c8.57,1.06,17.68-.98,26.42-2.34c16.66-2.6,14.85,2.78,31.62,3.09c1.75.03,30.4,8.48,39.86,8.7c2.5.06,13.64,8.76,62.03,2.67c9.76-1.23,41.44,6.16,51.43,8.35c6.17,1.36,17.38.36,22.95,2.33l4.79-.12l13.19-.31c4.24-.11,8.44.9,12.13,2.92c4.32,2.37,5.29,2.56,12.33-2.07l7.24-4.75c2.11-1.38,4.59-2.19,7.15-2.32l10.04-.54c4.07-.21,8-1.53,11.33-3.78c15.35-10.45,35.3-13.06,44.36-14.9c7.84-1.6,16.48-1.13,24.51.02c11.39,1.61,22.56,4.69,33.83,7.12c1.38.29,2.81.39,4.23.47c6.93.37,13.91,1.35,20.78.9c9.19-.63,18.49-1.64,26.52-6.83c3.85-2.5,7.83-4.82,11.59-7.43c7.72-5.32,16.64-6.44,25.72-7.27c5.3-.49,10.59-1.95,15.84-1.78c5.78.19,11.95.73,17.17,2.88c18,7.41,36.66,12.63,55.94,14.99c8.57,1.06,17.68-.98,26.42-2.34c16.66-2.6,14.85,2.78,31.62,3.09c1.75.03,30.4,8.48,39.86,8.7c5.29.12,24.31,9.14,29.6,9.28c5.84.16,22.06-7.1,27.17-9.86c9.67-5.22,19.06-2.84,34.12,1.18c13.17,3.53,26.26,7.36,39.54,10.5c8.73,2.07,9.6,4.57,26.6,5.57v114.45h-2836v.45h-1418L0,199c20,3,27.43,2.36,36,1c10.32-1.63,10.32-1.09,20.64-2.67c10.13-1.54,19.69-4.69,28.76-9.27c6.54-3.3,13.38-4.67,20.64-2.43c5.33,1.65,10.43.68,15.64-.84c7.93-2.31,22.46-3.06,38.71-1.88c9.81.7,18.05,8.25,28.04,10.44c6.17,1.36,17.38.36,22.95,2.33l17.98-.43c4.24-.11,8.44.9,12.13,2.92c4.32,2.37,5.29,2.56,12.33-2.07l7.24-4.75c2.11-1.38,4.59-2.19,7.15-2.32l10.04-.54c4.07-.21,8-1.53,11.33-3.78c15.35-10.45,35.3-13.06,44.36-14.9c7.84-1.6,16.48-1.13,24.51.02c11.39,1.61,22.56,4.69,33.83,7.12c1.38.29,2.81.39,4.23.47c6.93.37,13.91,1.35,20.78.9c9.19-.63,18.49-1.64,26.52-6.83c3.85-2.5,7.83-4.82,11.59-7.43c7.72-5.32,16.64-6.44,25.72-7.27c5.3-.49,10.59-1.95,15.84-1.78c5.78.19,11.95.73,17.17,2.88c18,7.41,36.66,12.63,55.94,14.99c8.57,1.06,17.68-.98,26.42-2.34c16.66-2.6,14.85,2.78,31.62,3.09c1.75.03,30.4,8.48,39.86,8.7c2.5.06,13.64,8.76,62.03,2.67c9.76-1.23,41.44,6.16,51.43,8.35c6.17,1.36,17.38.36,22.95,2.33l4.79-.12l13.19-.31c4.24-.11,8.44.9,12.13,2.92c4.32,2.37,5.29,2.56,12.33-2.07l7.24-4.75c2.11-1.38,4.59-2.19,7.15-2.32l10.04-.54c4.07-.21,8-1.53,11.33-3.78c15.35-10.45,35.3-13.06,44.36-14.9c7.84-1.6,16.48-1.13,24.51.02c11.39,1.61,22.56,4.69,33.83,7.12c1.38.29,2.81.39,4.23.47c6.93.37,13.91,1.35,20.78.9c9.19-.63,18.49-1.64,26.52-6.83c3.85-2.5,7.83-4.82,11.59-7.43c7.72-5.32,16.64-6.44,25.72-7.27c5.3-.49,10.59-1.95,15.84-1.78c5.78.19,11.95.73,17.17,2.88c18,7.41,36.66,12.63,55.94,14.99c8.57,1.06,17.68-.98,26.42-2.34c16.66-2.6,14.85,2.78,31.62,3.09c1.75.03,30.4,8.48,39.86,8.7c5.29.12,24.31,9.14,29.6,9.28c5.84.16,22.06-7.1,27.17-9.86c9.67-5.22,19.06-2.84,34.12,1.18c13.17,3.53,26.26,7.36,39.54,10.5c8.73,2.07,9.6,4.57,26.6,5.57v-.45c20,3,27.43,2.36,36,1c10.32-1.63,10.32-1.09,20.64-2.67c10.13-1.54,19.69-4.69,28.76-9.27c6.54-3.3,13.38-4.67,20.64-2.43c5.33,1.65,10.43.68,15.64-.84c7.93-2.31,22.46-3.06,38.71-1.88c9.81.7,18.05,8.25,28.04,10.44c6.17,1.36,17.38.36,22.95,2.33l17.98-.43c4.24-.11,8.44.9,12.13,2.92c4.32,2.37,5.29,2.56,12.33-2.07l7.24-4.75c2.11-1.38,4.59-2.19,7.15-2.32l10.04-.54c4.07-.21,8-1.53,11.33-3.78c15.35-10.45,35.3-13.06,44.36-14.9c7.84-1.6,16.48-1.13,24.51.02c11.39,1.61,22.56,4.69,33.83,7.12c1.38.29,2.81.39,4.23.47c6.93.37,13.91,1.35,20.78.9c9.19-.63,18.49-1.64,26.52-6.83c3.85-2.5,7.83-4.82,11.59-7.43c7.72-5.32,16.64-6.44,25.72-7.27c5.3-.49,10.59-1.95,15.84-1.78c5.78.19,11.95.73,17.17,2.88c18,7.41,36.66,12.63,55.94,14.99c8.57,1.06,17.68-.98,26.42-2.34c16.66-2.6,14.85,2.78,31.62,3.09c1.75.03,30.4,8.48,39.86,8.7c2.5.06,13.64,8.76,62.03,2.67c9.76-1.23,41.44,6.16,51.43,8.35c6.17,1.36,17.38.36,22.95,2.33l4.79-.12l13.19-.31c4.24-.11,8.44.9,12.13,2.92c4.32,2.37,5.29,2.56,12.33-2.07l7.24-4.75c2.11-1.38,4.59-2.19,7.15-2.32l10.04-.54c4.07-.21,8-1.53,11.33-3.78c15.35-10.45,35.3-13.06,44.36-14.9c7.84-1.6,16.48-1.13,24.51.02c11.39,1.61,22.56,4.69,33.83,7.12c1.38.29,2.81.39,4.23.47c6.93.37,13.91,1.35,20.78.9c9.19-.63,18.49-1.64,26.52-6.83c3.85-2.5,7.83-4.82,11.59-7.43c7.72-5.32,16.64-6.44,25.72-7.27c5.3-.49,10.59-1.95,15.84-1.78c5.78.19,11.95.73,17.17,2.88c18,7.41,36.66,12.63,55.94,14.99c8.57,1.06,17.68-.98,26.42-2.34c16.66-2.6,14.85,2.78,31.62,3.09" fill="#7f8c23"/><path id="efsS13ijudY5" d="M5672,243v72L0,315v-72c14-2,33.45-4.05,43-6c19.47-3.99,24.36-1.36,43.09-7.8c21.24-7.32,42.56-14.46,63.94-21.46c3.33-1.09,6.78-1.84,10.25-2.56c4.18-.87,8.46-1.08,12.7-.64c3.49.37,6.97.74,10.44,1.2c10.33,1.34,20.73,2.36,30.92,4.35c10.85,2.11,26.64,4.9,34.86,4.52c10.64.94,21.23.68,31.7-1.58c9.83-2.12,17.47-8.1,26.07-12.42c7.33-3.67,14.22-8.36,23.02-8.93c8.51-.56,17.08-.96,25.48-2.23c9.28-1.4,17.98-.62,26.72,2.55c9.45,3.43,19.11,6.4,28.75,9.36c4.04,1.25,8.25,2.1,12.45,2.84c10.99,1.93,21.96,4.44,33.06,5.29c7.68.59,15.68-.66,23.33-2.07c16.91-3.09,33.94-3.97,51.08-3.69c10.7.18,21.32.58,31.45,4.53c2.85,1.12,6.23,1.25,9.39,1.4c8.9.42,17.82.55,26.73.89c7.64.3,15.48,1.92,22.86.82c14.23-2.1,27.77.32,41.16,3.56c10.69,2.59,38.54,17.32,79.55,18.07c55,1,91.98-18.01,100.2-18.39c10.64.94,21.23.68,31.7-1.58c9.83-2.12,17.47-8.1,26.07-12.42c7.33-3.67,14.22-8.36,23.02-8.93c8.51-.56,17.08-.96,25.48-2.23c9.28-1.4,17.98-.62,26.72,2.55c9.45,3.43,19.11,6.4,28.75,9.36c4.04,1.25,8.25,2.1,12.45,2.84c10.99,1.93,21.96,4.44,33.06,5.29c7.68.59,15.68-.66,23.33-2.07c16.91-3.09,33.94-3.97,51.08-3.69c10.7.18,21.32.58,31.45,4.53c2.85,1.12,6.23,1.25,9.39,1.4c8.9.42,17.82.55,26.73.89c7.64.3,15.48,1.92,22.86.82c14.23-2.1,27.77.32,41.16,3.56c14.97,3.62,29.46,9.04,44.48,12.44c13.22,3.01,26.94,4.08,40.35,6.42c14.45,2.53,28.76,5.81,43.22,8.26c6.78,1.15,8.59,2.76,15.5,2.95c4.59.12,14.4-1.67,19-2c14-2,33.45-4.05,43-6c19.47-3.99,24.36-1.36,43.09-7.8c21.24-7.32,42.56-14.46,63.94-21.46c3.33-1.09,6.78-1.84,10.25-2.56c4.18-.87,8.46-1.08,12.7-.64c3.49.37,6.97.74,10.44,1.2c10.33,1.34,20.73,2.36,30.92,4.35c10.85,2.11,26.64,4.9,34.86,4.52c10.64.94,21.23.68,31.7-1.58c9.83-2.12,17.47-8.1,26.07-12.42c7.33-3.67,14.22-8.36,23.02-8.93c8.51-.56,17.08-.96,25.48-2.23c9.28-1.4,17.98-.62,26.72,2.55c9.45,3.43,19.11,6.4,28.75,9.36c4.04,1.25,8.25,2.1,12.45,2.84c10.99,1.93,21.96,4.44,33.06,5.29c7.68.59,15.68-.66,23.33-2.07c16.91-3.09,33.94-3.97,51.08-3.69c10.7.18,21.32.58,31.45,4.53c2.85,1.12,6.23,1.25,9.39,1.4c8.9.42,17.82.55,26.73.89c7.64.3,15.48,1.92,22.86.82c14.23-2.1,27.77.32,41.16,3.56c10.69,2.59,38.54,17.32,79.55,18.07c55,1,91.98-18.01,100.2-18.39c10.64.94,21.23.68,31.7-1.58c9.83-2.12,17.47-8.1,26.07-12.42c7.33-3.67,14.22-8.36,23.02-8.93c8.51-.56,17.08-.96,25.48-2.23c9.28-1.4,17.98-.62,26.72,2.55c9.45,3.43,19.11,6.4,28.75,9.36c4.04,1.25,8.25,2.1,12.45,2.84c10.99,1.93,21.96,4.44,33.06,5.29c7.68.59,15.68-.66,23.33-2.07c16.91-3.09,33.94-3.97,51.08-3.69c10.7.18,21.32.58,31.45,4.53c2.85,1.12,6.23,1.25,9.39,1.4c8.9.42,17.82.55,26.73.89c7.64.3,15.48,1.92,22.86.82c14.23-2.1,27.77.32,41.16,3.56c14.97,3.62,29.46,9.04,44.48,12.44c13.22,3.01,26.94,4.08,40.35,6.42c14.45,2.53,28.76,5.81,43.22,8.26c6.78,1.15,8.59,2.76,15.5,2.95c4.59.12,14.4-1.67,19-2c14-2,33.45-4.05,43-6c19.47-3.99,24.36-1.36,43.09-7.8c21.24-7.32,42.56-14.46,63.94-21.46c3.33-1.09,6.78-1.84,10.25-2.56c4.18-.87,8.46-1.08,12.7-.64c3.49.37,6.97.74,10.44,1.2c10.33,1.34,20.73,2.36,30.92,4.35c10.85,2.11,26.64,4.9,34.86,4.52c10.64.94,21.23.68,31.7-1.58c9.83-2.12,17.47-8.1,26.07-12.42c7.33-3.67,14.22-8.36,23.02-8.93c8.51-.56,17.08-.96,25.48-2.23c9.28-1.4,17.98-.62,26.72,2.55c9.45,3.43,19.11,6.4,28.75,9.36c4.04,1.25,8.25,2.1,12.45,2.84c10.99,1.93,21.96,4.44,33.06,5.29c7.68.59,15.68-.66,23.33-2.07c16.91-3.09,33.94-3.97,51.08-3.69c10.7.18,21.32.58,31.45,4.53c2.85,1.12,6.23,1.25,9.39,1.4c8.9.42,17.82.55,26.73.89c7.64.3,15.48,1.92,22.86.82c14.23-2.1,27.77.32,41.16,3.56c10.69,2.59,38.54,17.32,79.55,18.07c55,1,91.98-18.01,100.2-18.39c10.64.94,21.23.68,31.7-1.58c9.83-2.12,17.47-8.1,26.07-12.42c7.33-3.67,14.22-8.36,23.02-8.93c8.51-.56,17.08-.96,25.48-2.23c9.28-1.4,17.98-.62,26.72,2.55c9.45,3.43,19.11,6.4,28.75,9.36c4.04,1.25,8.25,2.1,12.45,2.84c10.99,1.93,21.96,4.44,33.06,5.29c7.68.59,15.68-.66,23.33-2.07c16.91-3.09,33.94-3.97,51.08-3.69c10.7.18,21.32.58,31.45,4.53c2.85,1.12,6.23,1.25,9.39,1.4c8.9.42,17.82.55,26.73.89c7.64.3,15.48,1.92,22.86.82c14.23-2.1,27.77.32,41.16,3.56c14.97,3.62,29.46,9.04,44.48,12.44c13.22,3.01,26.94,4.08,40.35,6.42c14.45,2.53,28.76,5.81,43.22,8.26c6.78,1.15,8.59,2.76,15.5,2.95c4.59.12,14.4-1.67,19-2c14-2,33.45-4.05,43-6c19.47-3.99,24.36-1.36,43.09-7.8c21.24-7.32,42.56-14.46,63.94-21.46c3.33-1.09,6.78-1.84,10.25-2.56c4.18-.87,8.46-1.08,12.7-.64c3.49.37,6.97.74,10.44,1.2c10.33,1.34,20.73,2.36,30.92,4.35c10.85,2.11,26.64,4.9,34.86,4.52c10.64.94,21.23.68,31.7-1.58c9.83-2.12,17.47-8.1,26.07-12.42c7.33-3.67,14.22-8.36,23.02-8.93c8.51-.56,17.08-.96,25.48-2.23c9.28-1.4,17.98-.62,26.72,2.55c9.45,3.43,19.11,6.4,28.75,9.36c4.04,1.25,8.25,2.1,12.45,2.84c10.99,1.93,21.96,4.44,33.06,5.29c7.68.59,15.68-.66,23.33-2.07c16.91-3.09,33.94-3.97,51.08-3.69c10.7.18,21.32.58,31.45,4.53c2.85,1.12,6.23,1.25,9.39,1.4c8.9.42,17.82.55,26.73.89c7.64.3,15.48,1.92,22.86.82c14.23-2.1,27.77.32,41.16,3.56c10.69,2.59,38.54,17.32,79.55,18.07c55,1,91.98-18.01,100.2-18.39c10.64.94,21.23.68,31.7-1.58c9.83-2.12,17.47-8.1,26.07-12.42c7.33-3.67,14.22-8.36,23.02-8.93c8.51-.56,17.08-.96,25.48-2.23c9.28-1.4,17.98-.62,26.72,2.55c9.45,3.43,19.11,6.4,28.75,9.36c4.04,1.25,8.25,2.1,12.45,2.84c10.99,1.93,21.96,4.44,33.06,5.29c7.68.59,15.68-.66,23.33-2.07c16.91-3.09,33.94-3.97,51.08-3.69c10.7.18,21.32.58,31.45,4.53c2.85,1.12,6.23,1.25,9.39,1.4c8.9.42,17.82.55,26.73.89c7.64.3,15.48,1.92,22.86.82c14.23-2.1,27.77.32,41.16,3.56c14.97,3.62,29.46,9.04,44.48,12.44c13.22,3.01,26.94,4.08,40.35,6.42c14.45,2.53,28.76,5.81,43.22,8.26c6.78,1.15,8.59,2.76,15.5,2.95c4.59.12,14.4-1.67,19-2Z" fill="#395b29"/><path id="efsS13ijudY6" d="M7090,275v40.48c-275,.01-550,.01-825,.01v-.01c-197.67.01-395.33.01-593,.01v-.01c-275,.01-550,.01-825,.01v-.01c-197.67.01-395.33.01-593,.01v-.01c-275,.01-550,.01-825,.01v-.01c-197.67.01-395.33.01-593,.01v-.01c-275,.01-550,.01-825,.01v-.01c-197.67.01-395.33.01-593,.01v-.01c-275,.01-550,.01-825,.01v-.01c-197.67.01-395.33.01-593,.01L0,275c8.45.9,16.53.7,25,1c5.79.21,11.97-2.88,17.81-3.33c9.72-.74,18.95-2.62,27.32-7.01c8.61-4.5,16.83-9.82,26.09-13.08c18.32-6.45,37.3-8.45,56.77-2.4c12.51,3.89,25.36,7,38.12,10.29C193.24,261.02,203,264,211,262c16.56-4.14,20.89-4.18,37.87-5.5c7.59-.59,15.13-1.61,22.69-2.48c7.56-.86,15.15-2.64,22.67-2.43c7.12.21,14.2,2.35,21.23,3.86c9.46,2.05,18.85,3.02,28.47.61c7.51-1.88,15.08-3.66,22.74-5.01c3.73-.66,7.87-.78,11.6-.17c8.03,1.32,15.85,3.54,23.87,4.92c8.14,1.41,16.53,3.57,24.61,3.09c13.66-.82,27.23-2.88,41.01-2.33c24.48.98,47.02-5.78,69.79-11.76c8.63-2.26,17.31-4.56,26.17-6.01c9.56-1.56,19.4-1.88,29.02-3.21c14.64-2.03,29.13-2.89,43.06,2.37c4.18,1.58,7.7,4.37,11.88,5.96c11.04,4.19,22.34,7.94,33.39,12.11c2.65-1.28,5.35-2.46,8.15-3.44c18.32-6.45,37.3-8.45,56.77-2.4c12.51,3.89,25.36,7,38.12,10.29c2.13.55,4.68.68,6.84.28c16.78-3.14,33.94-2.93,50.92-4.25c7.59-.59,15.13-1.61,22.69-2.48c7.56-.86,15.15-2.64,22.67-2.43c7.12.21,14.2,2.35,21.23,3.86c9.46,2.05,18.85,3.02,28.47.61c7.51-1.88,15.08-3.66,22.74-5.01c3.73-.66,7.87-.78,11.6-.17c8.03,1.32,15.85,3.54,23.87,4.92c8.14,1.41,16.53,3.57,24.61,3.09c13.66-.82,27.23-2.88,41.01-2.33c24.48.98,47.02-5.78,69.79-11.76c8.63-2.26,17.31-4.56,26.17-6.01c9.56-1.56,19.4-1.88,29.02-3.21c14.64-2.03,29.13-2.89,43.06,2.37c4.18,1.58,7.7,4.37,11.88,5.96c11.6,4.4,23.48,8.31,35.07,12.74c8.57,3.28,16.93,6.95,25.22,10.69c3.05,1.38,5.35,4.09,8.5,5.08c7.59,2.41,15.42,4.35,23.27,6.12c9.18,2.08,18.47,3.21,27.97.96c8.99-2.14,13.95-3.24,23.29-2.5c9.92.77,10-3,34-2c8.45.9,16.53.7,25,1c5.79.21,11.97-2.88,17.81-3.33c9.72-.74,18.95-2.62,27.32-7.01c8.61-4.5,16.83-9.82,26.09-13.08c18.32-6.45,37.3-8.45,56.77-2.4c12.51,3.89,25.36,7,38.12,10.29c2.13.55,11.89,3.53,19.89,1.53c16.56-4.14,20.89-4.18,37.87-5.5c7.59-.59,15.13-1.61,22.69-2.48c7.56-.86,15.15-2.64,22.67-2.43c7.12.21,14.2,2.35,21.23,3.86c9.46,2.05,18.85,3.02,28.47.61c7.51-1.88,15.08-3.66,22.74-5.01c3.73-.66,7.87-.78,11.6-.17c8.03,1.32,15.85,3.54,23.87,4.92c8.14,1.41,16.53,3.57,24.61,3.09c13.66-.82,27.23-2.88,41.01-2.33c24.48.98,47.02-5.78,69.79-11.76c8.63-2.26,17.31-4.56,26.17-6.01c9.56-1.56,19.4-1.88,29.02-3.21c14.64-2.03,29.13-2.89,43.06,2.37c4.18,1.58,7.7,4.37,11.88,5.96c11.04,4.19,22.34,7.94,33.39,12.11c2.65-1.28,5.35-2.46,8.15-3.44c18.32-6.45,37.3-8.45,56.77-2.4c12.51,3.89,25.36,7,38.12,10.29c2.13.55,4.68.68,6.84.28c16.78-3.14,33.94-2.93,50.92-4.25c7.59-.59,15.13-1.61,22.69-2.48c7.56-.86,15.15-2.64,22.67-2.43c7.12.21,14.2,2.35,21.23,3.86c9.46,2.05,18.85,3.02,28.47.61c7.51-1.88,15.08-3.66,22.74-5.01c3.73-.66,7.87-.78,11.6-.17c8.03,1.32,15.85,3.54,23.87,4.92c8.14,1.41,16.53,3.57,24.61,3.09c13.66-.82,27.23-2.88,41.01-2.33c24.48.98,47.02-5.78,69.79-11.76c8.63-2.26,17.31-4.56,26.17-6.01c9.56-1.56,19.4-1.88,29.02-3.21c14.64-2.03,29.13-2.89,43.06,2.37c4.18,1.58,7.7,4.37,11.88,5.96c11.6,4.4,23.48,8.31,35.07,12.74c8.57,3.28,16.93,6.95,25.22,10.69c3.05,1.38,5.35,4.09,8.5,5.08c7.59,2.41,15.42,4.35,23.27,6.12c9.18,2.08,18.47,3.21,27.97.96c8.99-2.14,13.95-3.24,23.29-2.5c9.92.77,10-3,34-2c8.45.9,16.53.7,25,1c5.79.21,11.97-2.88,17.81-3.33c9.72-.74,18.95-2.62,27.32-7.01c8.61-4.5,16.83-9.82,26.09-13.08c18.32-6.45,37.3-8.45,56.77-2.4c12.51,3.89,25.36,7,38.12,10.29c2.13.55,11.89,3.53,19.89,1.53c16.56-4.14,20.89-4.18,37.87-5.5c7.59-.59,15.13-1.61,22.69-2.48c7.56-.86,15.15-2.64,22.67-2.43c7.12.21,14.2,2.35,21.23,3.86c9.46,2.05,18.85,3.02,28.47.61c7.51-1.88,15.08-3.66,22.74-5.01c3.73-.66,7.87-.78,11.6-.17c8.03,1.32,15.85,3.54,23.87,4.92c8.14,1.41,16.53,3.57,24.61,3.09c13.66-.82,27.23-2.88,41.01-2.33c24.48.98,47.02-5.78,69.79-11.76c8.63-2.26,17.31-4.56,26.17-6.01c9.56-1.56,19.4-1.88,29.02-3.21c14.64-2.03,29.13-2.89,43.06,2.37c4.18,1.58,7.7,4.37,11.88,5.96c11.04,4.19,22.34,7.94,33.39,12.11c2.65-1.28,5.35-2.46,8.15-3.44c18.32-6.45,37.3-8.45,56.77-2.4c12.51,3.89,25.36,7,38.12,10.29c2.13.55,4.68.68,6.84.28c16.78-3.14,33.94-2.93,50.92-4.25c7.59-.59,15.13-1.61,22.69-2.48c7.56-.86,15.15-2.64,22.67-2.43c7.12.21,14.2,2.35,21.23,3.86c9.46,2.05,18.85,3.02,28.47.61c7.51-1.88,15.08-3.66,22.74-5.01c3.73-.66,7.87-.78,11.6-.17c8.03,1.32,15.85,3.54,23.87,4.92c8.14,1.41,16.53,3.57,24.61,3.09c13.66-.82,27.23-2.88,41.01-2.33c24.48.98,47.02-5.78,69.79-11.76c8.63-2.26,17.31-4.56,26.17-6.01c9.56-1.56,19.4-1.88,29.02-3.21c14.64-2.03,29.13-2.89,43.06,2.37c4.18,1.58,7.7,4.37,11.88,5.96c11.6,4.4,23.48,8.31,35.07,12.74c8.57,3.28,16.93,6.95,25.22,10.69c3.05,1.38,5.35,4.09,8.5,5.08c7.59,2.41,15.42,4.35,23.27,6.12c9.18,2.08,18.47,3.21,27.97.96c8.99-2.14,13.95-3.24,23.29-2.5c9.92.77,10-3,34-2c8.45.9,16.53.7,25,1c5.79.21,11.97-2.88,17.81-3.33c9.72-.74,18.95-2.62,27.32-7.01c8.61-4.5,16.83-9.82,26.09-13.08c18.32-6.45,37.3-8.45,56.77-2.4c12.51,3.89,25.36,7,38.12,10.29c2.13.55,11.89,3.53,19.89,1.53c16.56-4.14,20.89-4.18,37.87-5.5c7.59-.59,15.13-1.61,22.69-2.48c7.56-.86,15.15-2.64,22.67-2.43c7.12.21,14.2,2.35,21.23,3.86c9.46,2.05,18.85,3.02,28.47.61c7.51-1.88,15.08-3.66,22.74-5.01c3.73-.66,7.87-.78,11.6-.17c8.03,1.32,15.85,3.54,23.87,4.92c8.14,1.41,16.53,3.57,24.61,3.09c13.66-.82,27.23-2.88,41.01-2.33c24.48.98,47.02-5.78,69.79-11.76c8.63-2.26,17.31-4.56,26.17-6.01c9.56-1.56,19.4-1.88,29.02-3.21c14.64-2.03,29.13-2.89,43.06,2.37c4.18,1.58,7.7,4.37,11.88,5.96c11.04,4.19,22.34,7.94,33.39,12.11c2.65-1.28,5.35-2.46,8.15-3.44c18.32-6.45,37.3-8.45,56.77-2.4c12.51,3.89,25.36,7,38.12,10.29c2.13.55,4.68.68,6.84.28c16.78-3.14,33.94-2.93,50.92-4.25c7.59-.59,15.13-1.61,22.69-2.48c7.56-.86,15.15-2.64,22.67-2.43c7.12.21,14.2,2.35,21.23,3.86c9.46,2.05,18.85,3.02,28.47.61c7.51-1.88,15.08-3.66,22.74-5.01c3.73-.66,7.87-.78,11.6-.17c8.03,1.32,15.85,3.54,23.87,4.92c8.14,1.41,16.53,3.57,24.61,3.09c13.66-.82,27.23-2.88,41.01-2.33c24.48.98,47.02-5.78,69.79-11.76c8.63-2.26,17.31-4.56,26.17-6.01c9.56-1.56,19.4-1.88,29.02-3.21c14.64-2.03,29.13-2.89,43.06,2.37c4.18,1.58,7.7,4.37,11.88,5.96c11.6,4.4,23.48,8.31,35.07,12.74c8.57,3.28,16.93,6.95,25.22,10.69c3.05,1.38,5.35,4.09,8.5,5.08c7.59,2.41,15.42,4.35,23.27,6.12c9.18,2.08,18.47,3.21,27.97.96c8.99-2.14,13.95-3.24,23.29-2.5c9.92.77,10-3,34-2c8.45.9,16.53.7,25,1c5.79.21,11.97-2.88,17.81-3.33c9.72-.74,18.95-2.62,27.32-7.01c8.61-4.5,16.83-9.82,26.09-13.08c18.32-6.45,37.3-8.45,56.77-2.4c12.51,3.89,25.36,7,38.12,10.29c2.13.55,11.89,3.53,19.89,1.53c16.56-4.14,20.89-4.18,37.87-5.5c7.59-.59,15.13-1.61,22.69-2.48c7.56-.86,15.15-2.64,22.67-2.43c7.12.21,14.2,2.35,21.23,3.86c9.46,2.05,18.85,3.02,28.47.61c7.51-1.88,15.08-3.66,22.74-5.01c3.73-.66,7.87-.78,11.6-.17c8.03,1.32,15.85,3.54,23.87,4.92c8.14,1.41,16.53,3.57,24.61,3.09c13.66-.82,27.23-2.88,41.01-2.33c24.48.98,47.02-5.78,69.79-11.76c8.63-2.26,17.31-4.56,26.17-6.01c9.56-1.56,19.4-1.88,29.02-3.21c14.64-2.03,29.13-2.89,43.06,2.37c4.18,1.58,7.7,4.37,11.88,5.96c11.04,4.19,22.34,7.94,33.39,12.11c2.65-1.28,5.35-2.46,8.15-3.44c18.32-6.45,37.3-8.45,56.77-2.4c12.51,3.89,25.36,7,38.12,10.29c2.13.55,4.68.68,6.84.28c16.78-3.14,33.94-2.93,50.92-4.25c7.59-.59,15.13-1.61,22.69-2.48c7.56-.86,15.15-2.64,22.67-2.43c7.12.21,14.2,2.35,21.23,3.86c9.46,2.05,18.85,3.02,28.47.61c7.51-1.88,15.08-3.66,22.74-5.01c3.73-.66,7.87-.78,11.6-.17c8.03,1.32,15.85,3.54,23.87,4.92c8.14,1.41,16.53,3.57,24.61,3.09c13.66-.82,27.23-2.88,41.01-2.33c24.48.98,47.02-5.78,69.79-11.76c8.63-2.26,17.31-4.56,26.17-6.01c9.56-1.56,19.4-1.88,29.02-3.21c14.64-2.03,29.13-2.89,43.06,2.37c4.18,1.58,7.7,4.37,11.88,5.96c11.6,4.4,23.48,8.31,35.07,12.74c8.57,3.28,16.93,6.95,25.22,10.69c3.05,1.38,5.35,4.09,8.5,5.08c7.59,2.41,15.42,4.35,23.27,6.12c9.18,2.08,18.47,3.21,27.97.96c8.99-2.14,13.95-3.24,23.29-2.5c9.92.77,10-3,34-2Z" fill="#263820"/>
<script><![CDATA[
!function(t,n){"object"==typeof exports&&"undefined"!=typeof module?module.exports=n():"function"==typeof define&&define.amd?define(n):((t="undefined"!=typeof globalThis?globalThis:t||self).__SVGATOR_PLAYER__=t.__SVGATOR_PLAYER__||{},t.__SVGATOR_PLAYER__["5c7f360c"]=n())}(this,(function(){"use strict";function t(t,n){var e=Object.keys(t);if(Object.getOwnPropertySymbols){var r=Object.getOwnPropertySymbols(t);n&&(r=r.filter((function(n){return Object.getOwnPropertyDescriptor(t,n).enumerable}))),e.push.apply(e,r)}return e}function n(n){for(var e=1;e<arguments.length;e++){var r=null!=arguments[e]?arguments[e]:{};e%2?t(Object(r),!0).forEach((function(t){o(n,t,r[t])})):Object.getOwnPropertyDescriptors?Object.defineProperties(n,Object.getOwnPropertyDescriptors(r)):t(Object(r)).forEach((function(t){Object.defineProperty(n,t,Object.getOwnPropertyDescriptor(r,t))}))}return n}function e(t){return(e="function"==typeof Symbol&&"symbol"==typeof Symbol.iterator?function(t){return typeof t}:function(t){return t&&"function"==typeof Symbol&&t.constructor===Symbol&&t!==Symbol.prototype?"symbol":typeof t})(t)}function r(t,n){if(!(t instanceof n))throw new TypeError("Cannot call a class as a function")}function i(t,n){for(var e=0;e<n.length;e++){var r=n[e];r.enumerable=r.enumerable||!1,r.configurable=!0,"value"in r&&(r.writable=!0),Object.defineProperty(t,r.key,r)}}function u(t,n,e){return n&&i(t.prototype,n),e&&i(t,e),t}function o(t,n,e){return n in t?Object.defineProperty(t,n,{value:e,enumerable:!0,configurable:!0,writable:!0}):t[n]=e,t}function a(t){return(a=Object.setPrototypeOf?Object.getPrototypeOf:function(t){return t.__proto__||Object.getPrototypeOf(t)})(t)}function l(t,n){return(l=Object.setPrototypeOf||function(t,n){return t.__proto__=n,t})(t,n)}function s(){if("undefined"==typeof Reflect||!Reflect.construct)return!1;if(Reflect.construct.sham)return!1;if("function"==typeof Proxy)return!0;try{return Boolean.prototype.valueOf.call(Reflect.construct(Boolean,[],(function(){}))),!0}catch(t){return!1}}function f(t,n,e){return(f=s()?Reflect.construct:function(t,n,e){var r=[null];r.push.apply(r,n);var i=new(Function.bind.apply(t,r));return e&&l(i,e.prototype),i}).apply(null,arguments)}function c(t,n){if(n&&("object"==typeof n||"function"==typeof n))return n;if(void 0!==n)throw new TypeError("Derived constructors may only return object or undefined");return function(t){if(void 0===t)throw new ReferenceError("this hasn't been initialised - super() hasn't been called");return t}(t)}function h(t,n,e){return(h="undefined"!=typeof Reflect&&Reflect.get?Reflect.get:function(t,n,e){var r=function(t,n){for(;!Object.prototype.hasOwnProperty.call(t,n)&&null!==(t=a(t)););return t}(t,n);if(r){var i=Object.getOwnPropertyDescriptor(r,n);return i.get?i.get.call(e):i.value}})(t,n,e||t)}function v(t){return function(t){if(Array.isArray(t))return y(t)}(t)||function(t){if("undefined"!=typeof Symbol&&null!=t[Symbol.iterator]||null!=t["@@iterator"])return Array.from(t)}(t)||function(t,n){if(!t)return;if("string"==typeof t)return y(t,n);var e=Object.prototype.toString.call(t).slice(8,-1);"Object"===e&&t.constructor&&(e=t.constructor.name);if("Map"===e||"Set"===e)return Array.from(t);if("Arguments"===e||/^(?:Ui|I)nt(?:8|16|32)(?:Clamped)?Array$/.test(e))return y(t,n)}(t)||function(){throw new TypeError("Invalid attempt to spread non-iterable instance.\nIn order to be iterable, non-array objects must have a [Symbol.iterator]() method.")}()}function y(t,n){(null==n||n>t.length)&&(n=t.length);for(var e=0,r=new Array(n);e<n;e++)r[e]=t[e];return r}Number.isInteger||(Number.isInteger=function(t){return"number"==typeof t&&isFinite(t)&&Math.floor(t)===t}),Number.EPSILON||(Number.EPSILON=2220446049250313e-31);var g=d(Math.pow(10,-6));function d(t){var n=arguments.length>1&&void 0!==arguments[1]?arguments[1]:6;if(Number.isInteger(t))return t;var e=Math.pow(10,n);return Math.round((+t+Number.EPSILON)*e)/e}function p(t,n){var e=arguments.length>2&&void 0!==arguments[2]?arguments[2]:g;return Math.abs(t-n)<e}var m=Math.PI/180;function b(t){return t}function w(t,n,e){var r=1-e;return 3*e*r*(t*r+n*e)+e*e*e}function x(){var t=arguments.length>0&&void 0!==arguments[0]?arguments[0]:0,n=arguments.length>1&&void 0!==arguments[1]?arguments[1]:0,e=arguments.length>2&&void 0!==arguments[2]?arguments[2]:1,r=arguments.length>3&&void 0!==arguments[3]?arguments[3]:1;return t<0||t>1||e<0||e>1?null:p(t,n)&&p(e,r)?b:function(i){if(i<=0)return t>0?i*n/t:0===n&&e>0?i*r/e:0;if(i>=1)return e<1?1+(i-1)*(r-1)/(e-1):1===e&&t<1?1+(i-1)*(n-1)/(t-1):1;for(var u,o=0,a=1;o<a;){var l=w(t,e,u=(o+a)/2);if(p(i,l))break;l<i?o=u:a=u}return w(n,r,u)}}function A(){return 1}function k(t){return 1===t?1:0}function _(){var t=arguments.length>0&&void 0!==arguments[0]?arguments[0]:1,n=arguments.length>1&&void 0!==arguments[1]?arguments[1]:0;if(1===t){if(0===n)return k;if(1===n)return A}var e=1/t;return function(t){return t>=1?1:(t+=n*e)-t%e}}var S=Math.sin,O=Math.cos,j=Math.acos,M=Math.asin,P=Math.tan,E=Math.atan2,I=Math.PI/180,R=180/Math.PI,F=Math.sqrt,N=function(){function t(){var n=arguments.length>0&&void 0!==arguments[0]?arguments[0]:1,e=arguments.length>1&&void 0!==arguments[1]?arguments[1]:0,i=arguments.length>2&&void 0!==arguments[2]?arguments[2]:0,u=arguments.length>3&&void 0!==arguments[3]?arguments[3]:1,o=arguments.length>4&&void 0!==arguments[4]?arguments[4]:0,a=arguments.length>5&&void 0!==arguments[5]?arguments[5]:0;r(this,t),this.m=[n,e,i,u,o,a],this.i=null,this.w=null,this.s=null}return u(t,[{key:"determinant",get:function(){var t=this.m;return t[0]*t[3]-t[1]*t[2]}},{key:"isIdentity",get:function(){if(null===this.i){var t=this.m;this.i=1===t[0]&&0===t[1]&&0===t[2]&&1===t[3]&&0===t[4]&&0===t[5]}return this.i}},{key:"point",value:function(t,n){var e=this.m;return{x:e[0]*t+e[2]*n+e[4],y:e[1]*t+e[3]*n+e[5]}}},{key:"translateSelf",value:function(){var t=arguments.length>0&&void 0!==arguments[0]?arguments[0]:0,n=arguments.length>1&&void 0!==arguments[1]?arguments[1]:0;if(!t&&!n)return this;var e=this.m;return e[4]+=e[0]*t+e[2]*n,e[5]+=e[1]*t+e[3]*n,this.w=this.s=this.i=null,this}},{key:"rotateSelf",value:function(){var t=arguments.length>0&&void 0!==arguments[0]?arguments[0]:0;if(t%=360){var n=S(t*=I),e=O(t),r=this.m,i=r[0],u=r[1];r[0]=i*e+r[2]*n,r[1]=u*e+r[3]*n,r[2]=r[2]*e-i*n,r[3]=r[3]*e-u*n,this.w=this.s=this.i=null}return this}},{key:"scaleSelf",value:function(){var t=arguments.length>0&&void 0!==arguments[0]?arguments[0]:1,n=arguments.length>1&&void 0!==arguments[1]?arguments[1]:1;if(1!==t||1!==n){var e=this.m;e[0]*=t,e[1]*=t,e[2]*=n,e[3]*=n,this.w=this.s=this.i=null}return this}},{key:"skewSelf",value:function(t,n){if(n%=360,(t%=360)||n){var e=this.m,r=e[0],i=e[1],u=e[2],o=e[3];t&&(t=P(t*I),e[2]+=r*t,e[3]+=i*t),n&&(n=P(n*I),e[0]+=u*n,e[1]+=o*n),this.w=this.s=this.i=null}return this}},{key:"resetSelf",value:function(){var t=arguments.length>0&&void 0!==arguments[0]?arguments[0]:1,n=arguments.length>1&&void 0!==arguments[1]?arguments[1]:0,e=arguments.length>2&&void 0!==arguments[2]?arguments[2]:0,r=arguments.length>3&&void 0!==arguments[3]?arguments[3]:1,i=arguments.length>4&&void 0!==arguments[4]?arguments[4]:0,u=arguments.length>5&&void 0!==arguments[5]?arguments[5]:0,o=this.m;return o[0]=t,o[1]=n,o[2]=e,o[3]=r,o[4]=i,o[5]=u,this.w=this.s=this.i=null,this}},{key:"recomposeSelf",value:function(){var t=arguments.length>0&&void 0!==arguments[0]?arguments[0]:null,n=arguments.length>1&&void 0!==arguments[1]?arguments[1]:null,e=arguments.length>2&&void 0!==arguments[2]?arguments[2]:null,r=arguments.length>3&&void 0!==arguments[3]?arguments[3]:null,i=arguments.length>4&&void 0!==arguments[4]?arguments[4]:null;return this.isIdentity||this.resetSelf(),t&&(t.x||t.y)&&this.translateSelf(t.x,t.y),n&&this.rotateSelf(n),e&&(e.x&&this.skewSelf(e.x,0),e.y&&this.skewSelf(0,e.y)),!r||1===r.x&&1===r.y||this.scaleSelf(r.x,r.y),i&&(i.x||i.y)&&this.translateSelf(i.x,i.y),this}},{key:"decompose",value:function(){var t=arguments.length>0&&void 0!==arguments[0]?arguments[0]:0,n=arguments.length>1&&void 0!==arguments[1]?arguments[1]:0,e=this.m,r=e[0]*e[0]+e[1]*e[1],i=[[e[0],e[1]],[e[2],e[3]]],u=F(r);if(0===u)return{origin:{x:d(e[4]),y:d(e[5])},translate:{x:d(t),y:d(n)},scale:{x:0,y:0},skew:{x:0,y:0},rotate:0};i[0][0]/=u,i[0][1]/=u;var o=e[0]*e[3]-e[1]*e[2]<0;o&&(u=-u);var a=i[0][0]*i[1][0]+i[0][1]*i[1][1];i[1][0]-=i[0][0]*a,i[1][1]-=i[0][1]*a;var l=F(i[1][0]*i[1][0]+i[1][1]*i[1][1]);if(0===l)return{origin:{x:d(e[4]),y:d(e[5])},translate:{x:d(t),y:d(n)},scale:{x:d(u),y:0},skew:{x:0,y:0},rotate:0};i[1][0]/=l,i[1][1]/=l,a/=l;var s=0;return i[1][1]<0?(s=j(i[1][1])*R,i[0][1]<0&&(s=360-s)):s=M(i[0][1])*R,o&&(s=-s),a=E(a,F(i[0][0]*i[0][0]+i[0][1]*i[0][1]))*R,o&&(a=-a),{origin:{x:d(e[4]),y:d(e[5])},translate:{x:d(t),y:d(n)},scale:{x:d(u),y:d(l)},skew:{x:d(a),y:0},rotate:d(s)}}},{key:"clone",value:function(){var t=this.m;return new this.constructor(t[0],t[1],t[2],t[3],t[4],t[5])}},{key:"toString",value:function(){var t=arguments.length>0&&void 0!==arguments[0]?arguments[0]:" ";if(null===this.s){var n=this.m.map((function(t){return d(t)}));1===n[0]&&0===n[1]&&0===n[2]&&1===n[3]?this.s="translate("+n[4]+t+n[5]+")":this.s="matrix("+n.join(t)+")"}return this.s}}],[{key:"create",value:function(t){return t?Array.isArray(t)?f(this,v(t)):t instanceof this?t.clone():(new this).recomposeSelf(t.origin,t.rotate,t.skew,t.scale,t.translate):new this}}]),t}();function T(t,n,e){return t>=.5?e:n}function q(t,n,e){return 0===t||n===e?n:t*(e-n)+n}function B(t,n,e){var r=q(t,n,e);return r<=0?0:r}function L(t,n,e){var r=q(t,n,e);return r<=0?0:r>=1?1:r}function C(t,n,e){return 0===t?n:1===t?e:{x:q(t,n.x,e.x),y:q(t,n.y,e.y)}}function D(t,n,e){var r=function(t,n,e){return Math.round(q(t,n,e))}(t,n,e);return r<=0?0:r>=255?255:r}function z(t,n,e){return 0===t?n:1===t?e:{r:D(t,n.r,e.r),g:D(t,n.g,e.g),b:D(t,n.b,e.b),a:q(t,null==n.a?1:n.a,null==e.a?1:e.a)}}function V(t,n){for(var e=[],r=0;r<t;r++)e.push(n);return e}function G(t,n){if(--n<=0)return t;var e=(t=Object.assign([],t)).length;do{for(var r=0;r<e;r++)t.push(t[r])}while(--n>0);return t}var Y,$=function(){function t(n){r(this,t),this.list=n,this.length=n.length}return u(t,[{key:"setAttribute",value:function(t,n){for(var e=this.list,r=0;r<this.length;r++)e[r].setAttribute(t,n)}},{key:"removeAttribute",value:function(t){for(var n=this.list,e=0;e<this.length;e++)n[e].removeAttribute(t)}},{key:"style",value:function(t,n){for(var e=this.list,r=0;r<this.length;r++)e[r].style[t]=n}}]),t}(),U=/-./g,Q=function(t,n){return n.toUpperCase()};function H(t){return"function"==typeof t?t:T}function J(t){return t?"function"==typeof t?t:Array.isArray(t)?function(t){var n=arguments.length>1&&void 0!==arguments[1]?arguments[1]:b;if(!Array.isArray(t))return n;switch(t.length){case 1:return _(t[0])||n;case 2:return _(t[0],t[1])||n;case 4:return x(t[0],t[1],t[2],t[3])||n}return n}(t,null):function(t,n){var e=arguments.length>2&&void 0!==arguments[2]?arguments[2]:b;switch(t){case"linear":return b;case"steps":return _(n.steps||1,n.jump||0)||e;case"bezier":case"cubic-bezier":return x(n.x1||0,n.y1||0,n.x2||0,n.y2||0)||e}return e}(t.type,t.value,null):null}function Z(t,n,e){var r=arguments.length>3&&void 0!==arguments[3]&&arguments[3],i=n.length-1;if(t<=n[0].t)return r?[0,0,n[0].v]:n[0].v;if(t>=n[i].t)return r?[i,1,n[i].v]:n[i].v;var u,o=n[0],a=null;for(u=1;u<=i;u++){if(!(t>n[u].t)){a=n[u];break}o=n[u]}return null==a?r?[i,1,n[i].v]:n[i].v:o.t===a.t?r?[u,1,a.v]:a.v:(t=(t-o.t)/(a.t-o.t),o.e&&(t=o.e(t)),r?[u,t,e(t,o.v,a.v)]:e(t,o.v,a.v))}function K(t,n){var e=arguments.length>2&&void 0!==arguments[2]?arguments[2]:null;return t&&t.length?"function"!=typeof n?null:("function"!=typeof e&&(e=null),function(r){var i=Z(r,t,n);return null!=i&&e&&(i=e(i)),i}):null}function W(t,n){return t.t-n.t}function X(t,n,r,i,u){var o,a="@"===r[0],l="#"===r[0],s=Y[r],f=T;switch(a?(o=r.substr(1),r=o.replace(U,Q)):l&&(r=r.substr(1)),e(s)){case"function":if(f=s(i,u,Z,J,r,a,n,t),l)return f;break;case"string":f=K(i,H(s));break;case"object":if((f=K(i,H(s.i),s.f))&&"function"==typeof s.u)return s.u(n,f,r,a,t)}return f?function(t,n,e){if(arguments.length>3&&void 0!==arguments[3]&&arguments[3])return t instanceof $?function(r){return t.style(n,e(r))}:function(r){return t.style[n]=e(r)};if(Array.isArray(n)){var r=n.length;return function(i){var u=e(i);if(null==u)for(var o=0;o<r;o++)t[o].removeAttribute(n);else for(var a=0;a<r;a++)t[a].setAttribute(n,u)}}return function(r){var i=e(r);null==i?t.removeAttribute(n):t.setAttribute(n,i)}}(n,r,f,a):null}function tt(t,n,r,i){if(!i||"object"!==e(i))return null;var u=null,o=null;return Array.isArray(i)?o=function(t){if(!t||!t.length)return null;for(var n=0;n<t.length;n++)t[n].e&&(t[n].e=J(t[n].e));return t.sort(W)}(i):(o=i.keys,u=i.data||null),o?X(t,n,r,o,u):null}function nt(t,n,e){if(!e)return null;var r=[];for(var i in e)if(e.hasOwnProperty(i)){var u=tt(t,n,i,e[i]);u&&r.push(u)}return r.length?r:null}function et(t,n){if(!n.settings.duration||n.settings.duration<0)return null;var e,r,i,u,o,a=function(t,n){if(!n)return null;var e=[];if(Array.isArray(n))for(var r=n.length,i=0;i<r;i++){var u=n[i];if(2===u.length){var o=null;if("string"==typeof u[0])o=t.getElementById(u[0]);else if(Array.isArray(u[0])){o=[];for(var a=0;a<u[0].length;a++)if("string"==typeof u[0][a]){var l=t.getElementById(u[0][a]);l&&o.push(l)}o=o.length?1===o.length?o[0]:new $(o):null}if(o){var s=nt(t,o,u[1]);s&&(e=e.concat(s))}}}else for(var f in n)if(n.hasOwnProperty(f)){var c=t.getElementById(f);if(c){var h=nt(t,c,n[f]);h&&(e=e.concat(h))}}return e.length?e:null}(t,n.elements);return a?(e=a,r=n.settings,i=r.duration,u=e.length,o=null,function(t,n){var a=r.iterations||1/0,l=(r.alternate&&a%2==0)^r.direction>0?i:0,s=t%i,f=1+(t-s)/i;n*=r.direction,r.alternate&&f%2==0&&(n=-n);var c=!1;if(f>a)s=l,c=!0,-1===r.fill&&(s=r.direction>0?0:i);else if(n<0&&(s=i-s),s===o)return!1;o=s;for(var h=0;h<u;h++)e[h](s);return c}):null}function rt(t,n){if(Y=n,!t||!t.root||!Array.isArray(t.animations))return null;var e=function(t){for(var n=document.getElementsByTagName("svg"),e=0;e<n.length;e++)if(n[e].id===t.root&&!n[e].svgatorAnimation)return n[e].svgatorAnimation=!0,n[e];return null}(t);if(!e)return null;var r=t.animations.map((function(t){return et(e,t)})).filter((function(t){return!!t}));return r.length?{svg:e,animations:r,animationSettings:t.animationSettings,options:t.options||void 0}:null}function it(t){return+("0x"+(t.replace(/[^0-9a-fA-F]+/g,"")||27))}function ut(t,n,e){return!t||!e||n>t.length?t:t.substring(0,n)+ut(t.substring(n+1),e,e)}function ot(t){var n=arguments.length>1&&void 0!==arguments[1]?arguments[1]:27;return!t||t%n?t%n:ot(t/n,n)}function at(t,n,e){if(t&&t.length){var r=it(e),i=it(n),u=ot(r)+5,o=ut(t,ot(r,5),u);return o=o.replace(/\x7c$/g,"==").replace(/\x2f$/g,"="),o=function(t,n,e){var r=+("0x"+t.substring(0,4));t=t.substring(4);for(var i=n%r+e%27,u=[],o=0;o<t.length;o+=2)if("|"!==t[o]){var a=+("0x"+t[o]+t[o+1])-i;u.push(a)}else{var l=+("0x"+t.substring(o+1,o+1+4))-i;o+=3,u.push(l)}return String.fromCharCode.apply(String,u)}(o=(o=atob(o)).replace(/[\x41-\x5A]/g,""),i,r),o=JSON.parse(o)}}var lt=[{key:"alternate",def:!1},{key:"fill",def:1},{key:"iterations",def:0},{key:"direction",def:1},{key:"speed",def:1},{key:"fps",def:100}],st=function(){function t(n,e){var i=this,u=arguments.length>2&&void 0!==arguments[2]?arguments[2]:null;r(this,t),this._id=0,this._running=!1,this._rollingBack=!1,this._animations=n,this._settings=e,(!u||u<"2022-05-02")&&delete this._settings.speed,lt.forEach((function(t){i._settings[t.key]=i._settings[t.key]||t.def})),this.duration=e.duration,this.offset=e.offset||0,this.rollbackStartOffset=0}return u(t,[{key:"alternate",get:function(){return this._settings.alternate}},{key:"fill",get:function(){return this._settings.fill}},{key:"iterations",get:function(){return this._settings.iterations}},{key:"direction",get:function(){return this._settings.direction}},{key:"speed",get:function(){return this._settings.speed}},{key:"fps",get:function(){return this._settings.fps}},{key:"maxFiniteDuration",get:function(){return this.iterations>0?this.iterations*this.duration:this.duration}},{key:"_apply",value:function(t){for(var n=arguments.length>1&&void 0!==arguments[1]?arguments[1]:{},e=this._animations,r=e.length,i=0,u=0;u<r;u++)n[u]?i++:(n[u]=e[u](t,1),n[u]&&i++);return i}},{key:"_rollback",value:function(t){var n=this,e=1/0,r=null;this.rollbackStartOffset=t,this._rollingBack=!0,this._running=!0;this._id=window.requestAnimationFrame((function i(u){if(n._rollingBack){null==r&&(r=u);var o=Math.round(t-(u-r)*n.speed);if(o>n.duration&&e!==1/0){var a=!!n.alternate&&o/n.duration%2>1,l=o%n.duration;o=(l+=a?n.duration:0)||n.duration}var s=(n.fps?1e3/n.fps:0)*n.speed,f=Math.max(0,o);f<=e-s&&(n.offset=f,e=f,n._apply(f));var c=n.iterations>0&&-1===n.fill&&o>=n.maxFiniteDuration;(o<=0||n.offset<o||c)&&n.stop(),n._id=window.requestAnimationFrame(i)}}))}},{key:"_start",value:function(){var t=this,n=arguments.length>0&&void 0!==arguments[0]?arguments[0]:0,e=-1/0,r=null,i={};this._running=!0;var u=function u(o){null==r&&(r=o);var a=Math.round((o-r)*t.speed+n),l=(t.fps?1e3/t.fps:0)*t.speed;if(a>=e+l&&!t._rollingBack&&(t.offset=a,e=a,t._apply(a,i)===t._animations.length))return void t.pause(!0);t._id=window.requestAnimationFrame(u)};this._id=window.requestAnimationFrame(u)}},{key:"_pause",value:function(){this._id&&window.cancelAnimationFrame(this._id),this._running=!1}},{key:"play",value:function(){if(!this._running)return this._rollingBack?this._rollback(this.offset):this._start(this.offset)}},{key:"stop",value:function(){this._pause(),this.offset=0,this.rollbackStartOffset=0,this._rollingBack=!1,this._apply(0)}},{key:"reachedToEnd",value:function(){return this.iterations>0&&this.offset>=this.iterations*this.duration}},{key:"restart",value:function(){var t=arguments.length>0&&void 0!==arguments[0]&&arguments[0];this.stop(t),this.play(t)}},{key:"pause",value:function(){this._pause()}},{key:"reverse",value:function(){this.direction=-this.direction}}],[{key:"build",value:function(t,n){delete t.animationSettings,t.options=at(t.options,t.root,"5c7f360c"),t.animations.map((function(n){n.settings=at(n.s,t.root,"5c7f360c"),delete n.s,t.animationSettings||(t.animationSettings=n.settings)}));var e=t.version;if(!(t=rt(t,n)))return null;var r=t.options||{},i=new this(t.animations,t.animationSettings,e);return{el:t.svg,options:r,player:i}}},{key:"push",value:function(t){return this.build(t)}},{key:"init",value:function(){var t=this,n=window.__SVGATOR_PLAYER__&&window.__SVGATOR_PLAYER__["5c7f360c"];Array.isArray(n)&&n.splice(0).forEach((function(n){return t.build(n)}))}}]),t}();function ft(t){return d(t)+""}function ct(t){var n=arguments.length>1&&void 0!==arguments[1]?arguments[1]:" ";return t&&t.length?t.map(ft).join(n):""}function ht(t){if(!t)return"transparent";if(null==t.a||t.a>=1){var n=function(t){return 1===(t=parseInt(t).toString(16)).length?"0"+t:t},e=function(t){return t.charAt(0)===t.charAt(1)},r=n(t.r),i=n(t.g),u=n(t.b);return e(r)&&e(i)&&e(u)&&(r=r.charAt(0),i=i.charAt(0),u=u.charAt(0)),"#"+r+i+u}return"rgba("+t.r+","+t.g+","+t.b+","+t.a+")"}function vt(t){return t?"url(#"+t+")":"none"}!function(){for(var t=0,n=["ms","moz","webkit","o"],e=0;e<n.length&&!window.requestAnimationFrame;++e)window.requestAnimationFrame=window[n[e]+"RequestAnimationFrame"],window.cancelAnimationFrame=window[n[e]+"CancelAnimationFrame"]||window[n[e]+"CancelRequestAnimationFrame"];window.requestAnimationFrame||(window.requestAnimationFrame=function(n){var e=Date.now(),r=Math.max(0,16-(e-t)),i=window.setTimeout((function(){n(e+r)}),r);return t=e+r,i},window.cancelAnimationFrame=window.clearTimeout)}();var yt={f:null,i:function(t,n,e){return 0===t?n:1===t?e:{x:B(t,n.x,e.x),y:B(t,n.y,e.y)}},u:function(t,n){return function(e){var r=n(e);t.setAttribute("rx",ft(r.x)),t.setAttribute("ry",ft(r.y))}}},gt={f:null,i:function(t,n,e){return 0===t?n:1===t?e:{width:B(t,n.width,e.width),height:B(t,n.height,e.height)}},u:function(t,n){return function(e){var r=n(e);t.setAttribute("width",ft(r.width)),t.setAttribute("height",ft(r.height))}}};Object.freeze({M:2,L:2,Z:0,H:1,V:1,C:6,Q:4,T:2,S:4,A:7});var dt={},pt=null;function mt(t){var n=function(){if(pt)return pt;if("object"!==("undefined"==typeof document?"undefined":e(document))||!document.createElementNS)return{};var t=document.createElementNS("http://www.w3.org/2000/svg","svg");return t&&t.style?(t.style.position="absolute",t.style.opacity="0.01",t.style.zIndex="-9999",t.style.left="-9999px",t.style.width="1px",t.style.height="1px",pt={svg:t}):{}}().svg;if(!n)return function(t){return null};var r=document.createElementNS(n.namespaceURI,"path");r.setAttributeNS(null,"d",t),r.setAttributeNS(null,"fill","none"),r.setAttributeNS(null,"stroke","none"),n.appendChild(r);var i=r.getTotalLength();return function(t){var n=r.getPointAtLength(i*t);return{x:n.x,y:n.y}}}function bt(t){return dt[t]?dt[t]:dt[t]=mt(t)}function wt(t,n,e,r){if(!t||!r)return!1;var i=["M",t.x,t.y];if(n&&e&&(i.push("C"),i.push(n.x),i.push(n.y),i.push(e.x),i.push(e.y)),n?!e:e){var u=n||e;i.push("Q"),i.push(u.x),i.push(u.y)}return n||e||i.push("L"),i.push(r.x),i.push(r.y),i.join(" ")}function xt(t,n,e,r){var i=arguments.length>4&&void 0!==arguments[4]?arguments[4]:1,u=wt(t,n,e,r),o=bt(u);try{return o(i)}catch(t){return null}}function At(t,n,e){return t+(n-t)*e}function kt(t,n,e){var r=arguments.length>3&&void 0!==arguments[3]&&arguments[3],i={x:At(t.x,n.x,e),y:At(t.y,n.y,e)};return r&&(i.a=_t(t,n)),i}function _t(t,n){return Math.atan2(n.y-t.y,n.x-t.x)}function St(t,n,e,r){var i=1-r;return i*i*t+2*i*r*n+r*r*e}function Ot(t,n,e,r){return 2*(1-r)*(n-t)+2*r*(e-n)}function jt(t,n,e,r){var i=arguments.length>4&&void 0!==arguments[4]&&arguments[4],u=xt(t,n,null,e,r);return u||(u={x:St(t.x,n.x,e.x,r),y:St(t.y,n.y,e.y,r)}),i&&(u.a=Mt(t,n,e,r)),u}function Mt(t,n,e,r){return Math.atan2(Ot(t.y,n.y,e.y,r),Ot(t.x,n.x,e.x,r))}function Pt(t,n,e,r,i){var u=i*i;return i*u*(r-t+3*(n-e))+3*u*(t+e-2*n)+3*i*(n-t)+t}function Et(t,n,e,r,i){var u=1-i;return 3*(u*u*(n-t)+2*u*i*(e-n)+i*i*(r-e))}function It(t,n,e,r,i){var u=arguments.length>5&&void 0!==arguments[5]&&arguments[5],o=xt(t,n,e,r,i);return o||(o={x:Pt(t.x,n.x,e.x,r.x,i),y:Pt(t.y,n.y,e.y,r.y,i)}),u&&(o.a=Rt(t,n,e,r,i)),o}function Rt(t,n,e,r,i){return Math.atan2(Et(t.y,n.y,e.y,r.y,i),Et(t.x,n.x,e.x,r.x,i))}function Ft(t,n,e){var r=arguments.length>3&&void 0!==arguments[3]&&arguments[3];if(Tt(n)){if(qt(e))return jt(n,e.start,e,t,r)}else if(Tt(e)){if(Bt(n))return jt(n,n.end,e,t,r)}else{if(Bt(n))return qt(e)?It(n,n.end,e.start,e,t,r):jt(n,n.end,e,t,r);if(qt(e))return jt(n,e.start,e,t,r)}return kt(n,e,t,r)}function Nt(t,n,e){var r=Ft(t,n,e,!0);return r.a=function(t){return arguments.length>1&&void 0!==arguments[1]&&arguments[1]?t+Math.PI:t}(r.a)/m,r}function Tt(t){return!t.type||"corner"===t.type}function qt(t){return null!=t.start&&!Tt(t)}function Bt(t){return null!=t.end&&!Tt(t)}var Lt=new N;var Ct={f:ft,i:q},Dt={f:ft,i:L};function zt(t,n,e){return t.map((function(t){return function(t,n,e){var r=t.v;if(!r||"g"!==r.t||r.s||!r.v||!r.r)return t;var i=e.getElementById(r.r),u=i&&i.querySelectorAll("stop")||[];return r.s=r.v.map((function(t,n){var e=u[n]&&u[n].getAttribute("offset");return{c:t,o:e=d(parseInt(e)/100)}})),delete r.v,t}(t,0,e)}))}var Vt={gt:"gradientTransform",c:{x:"cx",y:"cy"},rd:"r",f:{x:"x1",y:"y1"},to:{x:"x2",y:"y2"}};function Gt(t,n,r,i,u,o,a,l){return zt(t,0,l),n=function(t,n,e){for(var r,i,u,o=t.length-1,a={},l=0;l<=o;l++)(r=t[l]).e&&(r.e=n(r.e)),r.v&&"g"===(i=r.v).t&&i.r&&(u=e.getElementById(i.r))&&(a[i.r]={e:u,s:u.querySelectorAll("stop")});return a}(t,i,l),function(i){var u=r(i,t,Yt);if(!u)return"none";if("c"===u.t)return ht(u.v);if("g"===u.t){if(!n[u.r])return vt(u.r);var o=n[u.r];return function(t,n){for(var e=t.s,r=e.length;r<n.length;r++){var i=e[e.length-1].cloneNode();i.id=Qt(i.id),t.e.appendChild(i),e=t.s=t.e.querySelectorAll("stop")}for(var u=0,o=e.length,a=n.length-1;u<o;u++)e[u].setAttribute("stop-color",ht(n[Math.min(u,a)].c)),e[u].setAttribute("offset",n[Math.min(u,a)].o)}(o,u.s),Object.keys(Vt).forEach((function(t){if(void 0!==u[t])if("object"!==e(Vt[t])){var n,r="gt"===t?(n=u[t],Array.isArray(n)?"matrix("+n.join(" ")+")":""):u[t],i=Vt[t];o.e.setAttribute(i,r)}else Object.keys(Vt[t]).forEach((function(n){if(void 0!==u[t][n]){var e=u[t][n],r=Vt[t][n];o.e.setAttribute(r,e)}}))})),vt(u.r)}return"none"}}function Yt(t,e,r){if(0===t)return e;if(1===t)return r;if(e&&r){var i=e.t;if(i===r.t)switch(e.t){case"c":return{t:i,v:z(t,e.v,r.v)};case"g":if(e.r===r.r){var u={t:i,s:$t(t,e.s,r.s),r:e.r};return e.gt&&r.gt&&(u.gt=function(t,n,e){var r=n.length;if(r!==e.length)return T(t,n,e);for(var i=new Array(r),u=0;u<r;u++)i[u]=q(t,n[u],e[u]);return i}(t,e.gt,r.gt)),e.c?(u.c=C(t,e.c,r.c),u.rd=B(t,e.rd,r.rd)):e.f&&(u.f=C(t,e.f,r.f),u.to=C(t,e.to,r.to)),u}}if("c"===e.t&&"g"===r.t||"c"===r.t&&"g"===e.t){var o="c"===e.t?e:r,a="g"===e.t?n({},e):n({},r),l=a.s.map((function(t){return{c:o.v,o:t.o}}));return a.s="c"===e.t?$t(t,l,a.s):$t(t,a.s,l),a}}return T(t,e,r)}function $t(t,n,e){if(n.length===e.length)return n.map((function(n,r){return Ut(t,n,e[r])}));for(var r=Math.max(n.length,e.length),i=[],u=0;u<r;u++){var o=Ut(t,n[Math.min(u,n.length-1)],e[Math.min(u,e.length-1)]);i.push(o)}return i}function Ut(t,n,e){return{o:L(t,n.o,e.o||0),c:z(t,n.c,e.c||{})}}function Qt(t){return t.replace(/-fill-([0-9]+)$/,(function(t,n){return"-fill-"+(+n+1)}))}var Ht={fill:Gt,"fill-opacity":Dt,stroke:Gt,"stroke-opacity":Dt,"stroke-width":Ct,"stroke-dashoffset":{f:ft,i:q},"stroke-dasharray":{f:function(t){var n=arguments.length>1&&void 0!==arguments[1]?arguments[1]:" ";return t&&t.length>0&&(t=t.map((function(t){return d(t,4)}))),ct(t,n)},i:function(t,n,e){var r,i,u,o=n.length,a=e.length;if(o!==a)if(0===o)n=V(o=a,0);else if(0===a)a=o,e=V(o,0);else{var l=(u=(r=o)*(i=a)/function(t,n){for(var e;n;)e=n,n=t%n,t=e;return t||1}(r,i))<0?-u:u;n=G(n,Math.floor(l/o)),e=G(e,Math.floor(l/a)),o=a=l}for(var s=[],f=0;f<o;f++)s.push(d(B(t,n[f],e[f])));return s}},opacity:Dt,transform:function(t,n,r,i){if(!(t=function(t,n){if(!t||"object"!==e(t))return null;var r=!1;for(var i in t)t.hasOwnProperty(i)&&(t[i]&&t[i].length?(t[i].forEach((function(t){t.e&&(t.e=n(t.e))})),r=!0):delete t[i]);return r?t:null}(t,i)))return null;var u=function(e,i,u){var o=arguments.length>3&&void 0!==arguments[3]?arguments[3]:null;return t[e]?r(i,t[e],u):n&&n[e]?n[e]:o};return n&&n.a&&t.o?function(n){var e=r(n,t.o,Nt);return Lt.recomposeSelf(e,u("r",n,q,0)+e.a,u("k",n,C),u("s",n,C),u("t",n,C)).toString()}:function(t){return Lt.recomposeSelf(u("o",t,Ft,null),u("r",t,q,0),u("k",t,C),u("s",t,C),u("t",t,C)).toString()}},r:Ct,"#size":gt,"#radius":yt,_:function(t,n){if(Array.isArray(t))for(var e=0;e<t.length;e++)this[t[e]]=n;else this[t]=n}},Jt=function(t){!function(t,n){if("function"!=typeof n&&null!==n)throw new TypeError("Super expression must either be null or a function");t.prototype=Object.create(n&&n.prototype,{constructor:{value:t,writable:!0,configurable:!0}}),n&&l(t,n)}(o,t);var n,e,i=(n=o,e=s(),function(){var t,r=a(n);if(e){var i=a(this).constructor;t=Reflect.construct(r,arguments,i)}else t=r.apply(this,arguments);return c(this,t)});function o(){return r(this,o),i.apply(this,arguments)}return u(o,null,[{key:"build",value:function(t){var n=h(a(o),"build",this).call(this,t,Ht);if(!n)return null;n.el,n.options,function(t,n,e){t.play()}(n.player)}}]),o}(st);return Jt.init(),Jt}));
(function(s,i,o,w,a,b){w[o]=w[o]||{};w[o][s]=w[o][s]||[];w[o][s].push(i);})('5c7f360c',{"root":"efsS13ijudY1","version":"2022-05-04","animations":[{"elements":{"efsS13ijudY2":{"transform":{"data":{"t":{"x":-709,"y":-204.856163}},"keys":{"o":[{"t":0,"v":{"x":709,"y":204.856163,"type":"corner"}},{"t":10000,"v":{"x":0,"y":204.856163,"type":"corner"}}]}}},"efsS13ijudY3":{"transform":{"data":{"t":{"x":-1418,"y":-221.981346}},"keys":{"o":[{"t":0,"v":{"x":1418,"y":221.981346,"type":"corner"}},{"t":10000,"v":{"x":-709,"y":221.981346,"type":"corner"}}]}}},"efsS13ijudY4":{"transform":{"data":{"t":{"x":-2127.000488,"y":-233.998161}},"keys":{"o":[{"t":0,"v":{"x":2127.000488,"y":233.998161,"type":"corner"}},{"t":10000,"v":{"x":-1417.999512,"y":233.998161,"type":"corner"}}]}}},"efsS13ijudY5":{"transform":{"data":{"t":{"x":-2836,"y":-251.891136}},"keys":{"o":[{"t":0,"v":{"x":2836,"y":251.891136,"type":"corner"}},{"t":10000,"v":{"x":-2127,"y":251.891136,"type":"corner"}}]}}},"efsS13ijudY6":{"transform":{"data":{"t":{"x":-3545,"y":-274.745628}},"keys":{"o":[{"t":0,"v":{"x":3545,"y":274.745628,"type":"corner"}},{"t":10000,"v":{"x":-2836,"y":274.745628,"type":"corner"}}]}}}},"s":"MTDA1ZWNjNzNiNWM2YzSNZYjJjNWJhYzBiZjcXzOGI4MjgxODE4MTgxIN2Q3M2I1YmFjM2I2YBjRjNWJhYzBiZjczOGCI4MjdkUTczYmFjNWIG2YzNiMmM1YmFjMGJmHYzQ3MzhiODE3ZDczYSjdiYWJkYmQ3MzhiODOI3ZFI3M0JiMmJkYzVFiNmMzYmZiMmM1YjY3UMzhiYjdiMmJkTmM0VAWI2SjdkTTczYzRjMWKI2YjZiNTczOGI4MjdFkSDczYjdjMWM0NzM4FYjgyRjgxODFLY2U/"}],"options":"MIDAxMDg4MmZGUTgwODVE2ZTdmTzgxMmY0NzJKmNzk3YzZlNzEyZjhhK"},'__SVGATOR_PLAYER__',window)
]]></script>
</svg>
