<?xml version="1.0" encoding="utf-8"?>
<!-- Generator: Adobe Illustrator 27.1.1, SVG Export Plug-In . SVG Version: 6.00 Build 0)  -->
<svg version="1.1" id="Layer_1" xmlns="http://www.w3.org/2000/svg" xmlns:xlink="http://www.w3.org/1999/xlink" x="0px" y="0px"
	 viewBox="0 0 1553 75.1" style="enable-background:new 0 0 1553 75.1;" xml:space="preserve">
<style type="text/css">
	.st0{fill:#263820;}
</style>
<g>
	<path class="st0" d="M1553,33.6v41.4H0V33.6c7.9,0.9,15.6,0.7,23.6,1c5.5,0.2,11.4-1.6,16.9-2c9.2-0.7,18-2.5,25.8-6.6
		c4.9-2.6,9.7-5.4,14.7-8c3.2-1.7,6.5-3.2,10-4.4c17.3-6.1,35.2-8,53.7-2.3c7.9,2.5,16,4.6,24.1,6.7c4,1,7.9,2,11.9,3
		c2,0.5,11.2,3.3,18.8,1.4c12.1-3,17.2-3.7,26.3-4.5c2.7-0.2,5.8-0.5,9.5-0.7c7.2-0.6,14.3-1.5,21.5-2.4c7.2-0.8,14.3-2.5,21.5-2.3
		c6.7,0.2,13.4,2.3,20,3.7c3.7,0.8,7.3,1.4,10.9,1.7c3.1,0.3,6.3,0.3,9.5,0c2.2-0.2,4.4-0.6,6.6-1.1c7.1-1.8,14.3-3.5,21.5-4.7
		c3.5-0.7,7.4-0.2,11-0.2c14.2,0,27,17.2,44.6,17.2c6.3,0,12.5-1,18.8-1.5c6.6-0.5,13.3-0.9,20-0.6c23.1,1,29.5-11.1,51.1-16.8
		c8.1-2.2,16.4-4.4,24.8-5.7c0.3-0.1,0.6-0.1,0.9-0.1c8.8-1.4,17.7-1.7,26.5-2.9c13.8-1.9,27.5-2.8,40.7,2.3
		c4,1.5,23.4,0.2,27.4,1.7c7.4,2.8,14.9,5.4,22.4,8.1c5.4,2,11.3,1.9,16.8,0.2c0,0,8.5-2.6,8.6-2.6c17.3-6.1,26.8-5.3,45.2,0.3
		c7.8,2.4,15.8,4.6,23.8,6.6c4.1,1,3.2,3.4,18.7,3.4c20,0,24.5-0.9,39.5-2.3c12.3-1.2,20.2-2.9,27.4-3.7c7.2-0.9,12.2-2.6,24.2-2.6
		c6.7,0,21.2,7.3,37.8,7.3c20,0,19.5-8,41.6-8c20,0,24.5,12.1,42,12.1c18.4,0,14.7-6.7,42.5-6.7c11.2,0,22,17.1,32.6,15
		c7.9,0.9,15.7,0.7,23.7,1c5.5,0.2,11.3-2.7,16.8-3.1c9.2-0.7,18-2.5,25.8-6.6c4.9-2.6,9.7-5.4,14.7-8c3.2-1.7,6.5-3.2,10-4.4
		c17.3-6.1,35.2-8,53.7-2.3c7.9,2.5,16,4.6,24.1,6.7c4,1,7.9,2,11.9,3c2,0.5,11.2,3.3,18.8,1.4c12-3,17.2-3.7,26.3-4.5
		c2.7-0.2,5.8-0.5,9.5-0.7c7.2-0.6,14.3-1.5,21.5-2.4c7.2-0.8,14.3-2.5,21.5-2.3c6.7,0.2,13.4,2.3,20,3.7c3.6,0.8,7.3,1.4,10.9,1.7
		c3.1,0.3,6.3,0.3,9.5,0c2.2-0.2,4.4-0.6,6.6-1.1c7.1-1.8,14.3-3.5,21.4-4.7c3.5-0.7,7.4-0.2,11-0.2c14.2,0,27,17.2,44.6,17.2
		c6.3,0,12.5-1,18.8-1.5c6.6-0.6,13.3-0.9,20-0.6C1499.4,25.8,1535.6,33.6,1553,33.6z"/>
</g>
</svg>
