<?xml version="1.0" encoding="utf-8"?>
<!-- Generator: Adobe Illustrator 27.1.1, SVG Export Plug-In . SVG Version: 6.00 Build 0)  -->
<svg version="1.1" xmlns="http://www.w3.org/2000/svg" xmlns:xlink="http://www.w3.org/1999/xlink" x="0px" y="0px"
	 viewBox="0 0 1339.8 204.8" style="enable-background:new 0 0 1339.8 204.8;" xml:space="preserve">
<style type="text/css">
	.st0{display:none;fill:#EACD53;}
	.st1{display:none;fill:#BC9235;}
	.st2{display:none;fill:#7F8C23;}
	.st3{display:none;fill:#365624;}
	.st4{fill:#263820;}
	.st5{display:none;}
</style>
<g id="Layer_1">
	<path class="st0" d="M1339.8,38.7c-7.7-0.5-13.2-2-18.8-6.5c-13.6-10-28.5-16.9-45.3-19.4c-5-0.8-10.7-0.6-15.3,3.2
		c-5.1,4.2-10.8,6-17.7,5.9c-5.1-0.1-10.3,2.4-15.4,3.8c-1.9,0.6-3.7,1.6-5.7,2c-7.6,1.3-15.2,2.7-22.9,3.6
		c-5.8,0.8-11.5,1.1-17.4-0.9c-9.5-3.5-19.2-6.1-28.8-9.2c-1.7-0.6-3.6-1.3-4.8-2.6c-5.9-5.5-12.9-8.2-20.4-10.5
		c-1.8-0.6-3.6-1.1-5.3-1.8c-9.6-3.5-15.2-1.8-21.4,6.6c-5,7-9.6,14.3-15.1,20.8c-4.7,5.7-9.7,5.9-15.7,1.7c-4.3-3-8.3-6.3-12.5-9.5
		c-7.7-5.7-16.4-6.1-25.3-4.2c-3.6,0.8-7.1,2.5-10.7,2.7c-5.6,0.5-8.2,3.9-10.4,8.2c1-0.1-0.2,2.5-2.6,6.4c-6.1,0.8-11.5,1.4-11.2,1
		c-6.8,0-27.4,9.9-40.1,17.3C938.2,54,919.7,50,906.4,45c-0.7-5.1-4.9-7.4-8.4-10.1c-5.4-4.3-11.1-5.3-17.3-1.3
		c-1.9,1.2-4.3,1.7-6.5,2.5c-8.2,2.9-16.2-0.3-23.8-2c-9.5-2.1-18.4-3-27.9-0.5c-2.8,0.8-6.5,1.2-9,0.1c-7.5-3.4-15.5-2.7-23.2-3.9
		c-7.7-1.2-14.4-3.6-19.1-10.6c-4-5.9-9.1-10.9-13.9-16.1c-2.9-3.1-9.8-4.1-12.6-1.7c-5.4,4.8-11.2,9.4-15.8,14.8
		c-4.4-1.4-9.1-2.5-13.8-3.1c-4.9-0.8-10.7-0.6-15.3,3.2c-5.1,4.2-10.8,6-17.7,5.9c-5.1-0.1-10.3,2.4-15.4,3.8
		c-1.9,0.6-3.7,1.6-5.7,2c-5.7,1-11.4,2-17.2,2.8c-0.9-0.4-1.6-0.9-2.4-1.4c-4.3-3.1-8.2-6.9-12-10.8c-6.9-7-15.3-9-24-5.6
		c-4.3,1.6-7.7,5.7-11.1,9.3c-0.9-0.2-1.6-0.5-2.5-0.8c-1.7-0.6-3.6-1.3-4.8-2.6c-5.8-5.5-12.9-8.2-20.4-10.5
		c-1.8-0.6-3.6-1.1-5.3-1.8c-9.6-3.5-15.2-1.8-21.4,6.6c-5,7-9.6,14.3-15.1,20.8c-4.6,5.7-9.6,5.9-15.6,1.7c-4.3-3-8.3-6.3-12.5-9.5
		c-7.7-5.7-16.4-6.1-25.3-4.2c-3.6,0.8-4.2,4.2-7.7,4.4c-5.6,0.5-8.5,2.8-13.1,7.9c-2.3,2.5-4.1,5.2-7.4,5.6
		c-1.8,0.2-3.5,0.4-4.6,0.5c-2.8,0.3-5.6,0.8-8.2,1.4c-14.9,4-22.7,9.4-33.9,15.9c-24.4,3.8-17.8-6.6-44.2-11.4
		c-9.5-3.8-11.2-8.6-14.7-11.4c-5.4-4.3-11.1-5.3-17.3-1.3c-1.9,1.2-4.3,1.7-6.5,2.5c-8.2,2.9-16.2-0.3-23.8-2
		c-9.5-2.1-18.4-3-27.9-0.5c-2.8,0.8-6.5,1.2-9,0.1c-7.5-3.4-15.5-2.7-23.2-3.9c-7.7-1.2-14.4-3.6-19.1-10.6
		c-4-5.9-9.1-10.9-13.9-16.1c-2.9-3.1-9.8-4.1-12.6-1.7c-6,5.2-12.4,10.2-17.2,16.4c-7.1,9.1-16.7,9.5-26.6,9.2
		c-4.7-0.1-9.1-0.3-13,2.6c-5.2,3.6-10.4,7.5-16.8,8.6c-2.5,0.5-5.3,0.4-7.7-0.3c-3.9-0.9-7.6-2.5-11.3-4c-3.6-1.4-7.5-2.6-10.5-4.7
		c-4.3-3.1-8.2-6.9-12-10.8c-6.9-7-15.3-9-24-5.6c-4.5,1.8-8.1,6.2-11.6,9.9c-4.1,4.3-7.6,9.7-13.8,12.2C13.5,37.5,6.2,38,0,38.7
		c0,9.5,0,17.6,0,39.4v126.7h1339.8V38.7z"/>
	<path class="st1" d="M1315.9,65.2c-6.9,6.1-14.8,8.4-23.6,8.7c-9.1,0.2-18-0.4-26.7-3.7c-7.7-2.9-16.4-3.2-24.5-5.5
		c-11.5-3.2-22.9-7.3-34.3-10.7c-6.9-2.1-13.9-4.4-21.3-3.6c-3,0.4-6.1,1.5-9,0.9c-11.9-2.5-24.3-1.2-36.3-4.8
		c-7.9-2.4-17.1-1-25.6-0.5c-8.8,0.6-17.6,2.5-26.5,3.3c-8.6,0.9-16.7-1.9-24.7-4.6c-6.5-2.3-13.1-4.4-19.4-7.3
		c-6.4-3-12.8-3.9-19.7-2.5c-4.3,0.9-9,0.8-13.5,1.1c-4.6,2.6-9.3,5-13.9,7.5c-5.9,7.2-13.7,9.7-22.7,9.7c-8.5,0-16.9,0.9-25.3-2.6
		c-9-3.8-18.8-4.8-28.6-4.4c-4.6,0.2-9.3,1.2-13.9,1.9c-16.4,6.9-32.8,14.3-49.4,20.5c-8.7,3.3-18.1,5.2-27.3,6.7
		c-7.9,1.3-15-2.7-22.2-5.8c-9.2-3.8-18.1-8-27.5-11.4c-0.2-0.1-0.3-0.1-0.5-0.2c-3.7-1.1-7.5-1.1-11.2-0.7c-2.9,0.4-5.9,1-8.7,1.7
		c-3,0.8-6.2,0.7-9.4,0.5c-5.7-0.4-11.3-0.9-16.3,2.4c-7.9,5.4-17,7.3-26.1,9c-1,0.2-2,0.4-3,0.6c-10.1,1.9-20.2,3.5-30.2,5.6
		c-5.7,1.1-10.8,0.3-15.7-2.3c-10.8-5.6-21.5-11.4-32.4-16.7c-5.1-2.5-10.7-4.1-16.1-6c-2.4-0.8-4.6-1.7-7-2.7
		c-7.9-0.6-15.9-0.9-23.7-3.2c-6-1.8-12.9-1.5-19.6-0.9c-2.1,0.2-4.1,0.4-6,0.5c-8.8,0.6-17.4,5.9-26.3,6.8
		c-8.6,0.9-15.7-0.2-23.8-4.2c-6.2-3-13.2-8-19.4-10.8c-6.4-3-13.6-2.9-20.6-2.9c-13.3,0-25,25.1-44.9,25.1
		c-16.3,0-22.2-2.3-30.6-5.8c-9-3.8-18.8-4.4-28.6-4.4c-19.5,0-46.7,12.7-63.3,18.9c-8.7,3.3-18.1,5.2-27.3,6.7
		c-7.9,1.3-15-2.7-22.2-5.8c-9.2-3.8-18.1-8-27.5-11.4c-6.6-2.4-13.6-0.8-20.4,0.9c-3,0.8-6.2,0.7-9.4,0.5
		c-5.7-0.4-11.4-0.9-16.3,2.4c-8.9,6.1-19,7.7-29.1,9.6c-10.1,1.9-20.2,3.5-30.2,5.6c-5.7,1.1-10.8,0.3-15.7-2.3
		c-10.8-5.6-21.5-11.4-32.4-16.7c-5.1-2.5-17.5,6.2-22.9,4.4c-5.9-2.1-13.2-7.6-19.8-11.4c-8-4.5-21.7-4.9-23.4-4.8v158.2h1339.8
		V46.5C1330.6,46.7,1322.6,59.3,1315.9,65.2z"/>
	<path class="st2" d="M1339.8,204.8v-98c-16.1-0.9-17.2-3.4-25.4-5.4c-12.5-2.9-24.9-6.6-37.3-9.9c-14.2-3.8-23.1-6.1-32.2-1.1
		c-4.8,2.7-20.2,9.6-25.7,9.4c-5-0.2-23-8.7-28-8.8c-9-0.2-36-8.2-37.7-8.2c-15.9-0.3-14.1-5.4-29.9-2.9c-8.2,1.2-16.8,3.2-25,2.2
		c-18.1-2.3-35.8-7.2-52.8-14.2c-5-2.1-10.8-2.6-16.3-2.7c-4.9-0.1-9.9,1.2-14.9,1.7c-8.6,0.9-17,1.9-24.3,6.9
		c-3.6,2.5-7.4,4.6-11,7c-7.6,4.9-16.4,5.9-25,6.4c-6.5,0.5-13.1-0.5-19.7-0.9c-1.3-0.1-2.6-0.2-4-0.5c-10.6-2.3-21.2-5.2-31.9-6.7
		c-7.6-1-15.8-1.5-23.2,0c-8.6,1.7-27.5,4.3-42,14.1c-3.1,2.2-6.8,3.4-10.7,3.6l-9.5,0.5c-2.5,0.1-4.8,0.9-6.8,2.2l-6.8,4.5
		c-6.6,4.4-50.1,8.7-54.2,6.4c-3.5-1.9-7.5-2.8-11.4-2.7l-12.5,0.3c0,0-20.4-0.8-26.3-2.1c-9.5-2.1-35.6-9.5-44.9-8.4
		c-45.7,5.8-71.6-20.2-87.3-17.7c-8.2,1.2-16.8,3.2-25,2.2c-18.1-2.3-35.8-7.2-52.8-14.2c-4.9-2.1-10.8-2.6-16.3-2.7
		c-4.9-0.1-9.9,1.2-14.9,1.7c-8.6,0.9-17,1.9-24.3,6.9c-3.6,2.5-7.3,4.6-11,7c-7.6,4.9-16.4,5.9-25,6.4c-6.5,0.5-13.1-0.5-19.7-0.9
		c-1.3-0.1-2.6-0.2-4-0.5c-10.6-2.3-21.2-5.2-31.9-6.7c-7.6-1-15.8-1.5-23.2,0c-8.6,1.7-27.4,4.3-42,14.1c-3.1,2.2-6.8,3.4-10.7,3.6
		l-9.5,0.5c-2.4,0.1-4.7,0.9-6.7,2.2l-6.8,4.5c-6.6,4.4-7.6,4.3-11.6,2c-3.5-1.9-7.5-2.8-11.4-2.7l-17,0.4
		c-5.2-1.8-15.8-0.9-21.6-2.2c-9.4-2.1-17.2-9.2-26.5-9.8c-15.3-1.1-29.1-0.4-36.6,1.8c-4.9,1.4-9.7,2.3-14.7,0.8
		c-6.8-2.2-13.3-0.9-19.5,2.3c-8.6,4.4-17.7,7.4-27.2,8.8c-9.7,1.5-9.7,1-19.5,2.6c-8.1,1.3-15.2,2.1-34.1-0.8v98H1339.8z"/>
	<path class="st3" d="M1339.8,204.8c0-5.8,0-60.9,0-60.9s-13.8,1.9-17.4,1.8c-6.5-0.1-8.2-1.7-14.6-2.7c-13.6-2.4-27.2-5.5-40.8-7.9
		c-12.7-2.2-25.6-3.2-38.1-6.1c-14.2-3.2-22.5-3.3-35.7-9.5c-6.2-2.9-19.8-15.6-54.5-15.6c-33.7,0-32.9,7-46.6,7
		c-10.2,0-19.6-4.1-29.7-4.3c-16.3-0.3-32.3,0.6-48.3,3.5c-7.2,1.3-14.7,2.6-22,2c-10.5-0.9-20.9-3.2-31.3-5
		c-4.1-0.7-8-1.5-11.8-2.7c-9.2-2.8-18.2-5.7-27.2-8.9c-8.2-3-16.4-3.8-25.2-2.5c-7.9,1.1-16.1,1.5-24.1,2.1
		c-8.3,0.5-14.8,4.9-21.7,8.4c-8.1,4.1-15.4,9.7-24.7,11.7c-9.9,2.2-19.9,2.4-30,1.5c-7.7,0.4-25.2,11.3-77.2,10.3
		c-38.7-0.8-82.5-7.6-92.6-10.1c-12.7-3.1-25.6-6-38.9-3.4c-17.5,3.4-41.5,2.8-55.8-2.9c-9.6-3.8-19.7-4.1-29.8-4.3
		c-16.3-0.3-32.3,0.6-48.3,3.5c-7.2,1.3-14.7,2.6-22,2c-10.5-0.9-20.9-3.2-31.3-5c-4.1-0.7-8-1.5-11.8-2.7
		c-9.2-2.8-18.2-5.7-27.2-8.9c-8.2-3-16.4-3.8-25.2-2.5c-7.9,1.1-16.1,1.5-24.1,2.1c-8.3,0.5-14.8,4.9-21.7,8.4
		c-8.1,4.1-15.4,9.7-24.7,11.7c-9.9,2.2-19.9,2.4-30,1.5c-7.8,0.4-22.7-2.3-33-4.3c-9.6-1.9-19.5-2.9-29.2-4.2
		c-3.2-0.5-6.5-0.8-9.8-1.1c-4-0.5-8-0.3-12,0.6c-3.2,0.8-6.5,1.4-9.6,2.5c-20.1,6.6-40.4,13.4-60.4,20.4
		c-17.7,6.1-22.3,3.6-40.7,7.4C32,139.7,0,143.9,0,143.9s0,60.1,0,60.9H1339.8z"/>
	<path class="st4" d="M1339.8,164.5v40.2H0v-40.2c7.9,0.9,15.7,0.7,23.7,1c5.5,0.2,11.3-2.7,16.8-3.1c9.2-0.7,18-2.5,25.8-6.6
		c4.9-2.6,9.7-5.4,14.7-8c3.2-1.7,6.5-3.2,10-4.4c17.3-6.1,35.3-8,53.7-2.3c7.9,2.5,16,4.6,24.1,6.7c4,1,7.9,2,11.9,3
		c2,0.5,11.2,3.3,18.8,1.4c12-3,17.2-3.7,26.3-4.5c2.7-0.2,5.8-0.5,9.5-0.7c7.2-0.6,14.3-1.5,21.5-2.4c7.2-0.9,14.3-2.5,21.5-2.3
		c6.7,0.2,13.4,2.3,20,3.7c3.6,0.8,7.3,1.4,10.9,1.7c3.1,0.3,6.3,0.3,9.5,0c2.2-0.2,4.4-0.6,6.6-1.1c7.1-1.8,14.3-3.5,21.5-4.7
		c3.5-0.7,7.4-0.2,11-0.2c14.2,0,27,17.2,44.6,17.2c6.3,0,12.5-1,18.8-1.5c6.6-0.5,13.3-0.9,20-0.6c23.2,0.9,29.5-11.1,51.1-16.8
		c8.1-2.2,16.4-4.4,24.8-5.7c9.1-1.5,18.3-1.8,27.4-3c13.8-1.9,27.5-2.7,40.7,2.3c4,1.5,23.4,0.2,27.4,1.7
		c7.4,2.8,14.9,5.4,22.4,8.1c5.4,1.9,11.3,1.9,16.8,0.2c0,0,8.5-2.6,8.6-2.6c17.3-6.1,26.8-5.3,45.2,0.3c7.8,2.4,15.8,4.6,23.8,6.6
		c4.1,1.1,8.2,2.1,12.2,3.1c2,0.5,4.4,0.7,6.4,0.3c13.1-2.4,26.3-2.7,39.6-3.4c2.9-0.2,5.7-0.3,8.6-0.5c7.2-0.6,14.3-1.5,21.5-2.4
		c7.2-0.9,14.4-2.5,21.5-2.3c6.7,0.2,13.4,2.3,20,3.7c3,0.6,6,1.2,9,1.5c4.3,0.5,8.7,0.6,13.1,0c1.6-0.2,3.3-0.5,4.9-0.9
		c7.1-1.8,14.3-3.5,21.5-4.7c3.5-0.7,7.5-0.8,11-0.2c7.6,1.2,14.9,3.3,22.6,4.6c2.1,0.4,4.3,0.8,6.4,1.2c5.6,1.1,11.3,2.1,16.8,1.7
		c7.1-0.4,14.1-1.2,21.2-1.7c5.8-0.4,11.7-0.7,17.6-0.5c23.2,0.9,44.4-5.5,66-11.2c8.1-2.2,16.4-4.4,24.8-5.7
		c9.1-1.5,18.3-1.8,27.4-3c13.8-1.9,27.5-2.7,40.7,2.3c4,1.5,7.3,4.2,11.2,5.7c11,4.2,22.2,7.9,33.2,12c0.3,0.1,0.6,0.2,0.9,0.4
		c7.8,3,15.4,6.4,22.9,9.8c2.9,1.3,5,3.9,8,4.8c7.2,2.3,14.6,4.2,22,5.8c8.7,2,17.5,3,26.5,0.9c8.5-2,13.1-3,22-2.4
		C1317.7,167.5,1317.4,163.6,1339.8,164.5z"/>
</g>
<g id="Layer_2" class="st5">
</g>
</svg>
