<?xml version="1.0" encoding="utf-8"?>
<!-- Generator: Adobe Illustrator 27.1.1, SVG Export Plug-In . SVG Version: 6.00 Build 0)  -->
<svg version="1.1" id="Layer_1" xmlns="http://www.w3.org/2000/svg" xmlns:xlink="http://www.w3.org/1999/xlink" x="0px" y="0px"
	 viewBox="0 0 1339.8 204.8" style="enable-background:new 0 0 1339.8 204.8;" xml:space="preserve">
<style type="text/css">
	.st0{fill:#263820;}
</style>
<path id="mt5" class="st0" d="M1340.1,164.2v40.2H0.3v-40.2c7.9,0.9,15.7,0.7,23.7,1c5.5,0.2,11.3-2.7,16.8-3.1
	c9.2-0.7,18-2.5,25.8-6.6c4.9-2.6,9.7-5.4,14.7-8c3.2-1.7,6.5-3.2,10-4.4c17.3-6.1,35.3-8,53.7-2.3c7.9,2.5,16,4.6,24.1,6.7
	c4,1,7.9,2,11.9,3c2,0.5,11.2,3.3,18.8,1.4c12-3,17.2-3.7,26.3-4.5c2.7-0.2,5.8-0.5,9.5-0.7c7.2-0.6,14.3-1.5,21.5-2.4
	c7.2-0.9,14.3-2.5,21.5-2.3c6.7,0.2,13.4,2.3,20,3.7c3.6,0.8,7.3,1.4,10.9,1.7c3.1,0.3,6.3,0.3,9.5,0c2.2-0.2,4.4-0.6,6.6-1.1
	c7.1-1.8,14.3-3.5,21.5-4.7c3.5-0.7,7.4-0.2,11-0.2c14.2,0,27,17.2,44.6,17.2c6.3,0,12.5-1,18.8-1.5c6.6-0.5,13.3-0.9,20-0.6
	c23.2,0.9,29.5-11.1,51.1-16.8c8.1-2.2,16.4-4.4,24.8-5.7c9.1-1.5,18.3-1.8,27.4-3c13.8-1.9,27.5-2.7,40.7,2.3
	c4,1.5,23.4,0.2,27.4,1.7c7.4,2.8,14.9,5.4,22.4,8.1c5.4,1.9,11.3,1.9,16.8,0.2c0,0,8.5-2.6,8.6-2.6c17.3-6.1,26.8-5.3,45.2,0.3
	c7.8,2.4,15.8,4.6,23.8,6.6c4.1,1.1,8.2,2.1,12.2,3.1c2,0.5,4.4,0.7,6.4,0.3c13.1-2.4,26.3-2.7,39.6-3.4c2.9-0.2,5.7-0.3,8.6-0.5
	c7.2-0.6,14.3-1.5,21.5-2.4c7.2-0.9,14.4-2.5,21.5-2.3c6.7,0.2,13.4,2.3,20,3.7c3,0.6,6,1.2,9,1.5c4.3,0.5,8.7,0.6,13.1,0
	c1.6-0.2,3.3-0.5,4.9-0.9c7.1-1.8,14.3-3.5,21.5-4.7c3.5-0.7,7.5-0.8,11-0.2c7.6,1.2,14.9,3.3,22.6,4.6c2.1,0.4,4.3,0.8,6.4,1.2
	c5.6,1.1,11.3,2.1,16.8,1.7c7.1-0.4,14.1-1.2,21.2-1.7c5.8-0.4,11.7-0.7,17.6-0.5c23.2,0.9,44.4-5.5,66-11.2
	c8.1-2.2,16.4-4.4,24.8-5.7c9.1-1.5,18.3-1.8,27.4-3c13.8-1.9,27.5-2.7,40.7,2.3c4,1.5,7.3,4.2,11.2,5.7c11,4.2,22.2,7.9,33.2,12
	c0.3,0.1,0.6,0.2,0.9,0.4c7.8,3,15.4,6.4,22.9,9.8c2.9,1.3,5,3.9,8,4.8c7.2,2.3,14.6,4.2,22,5.8c8.7,2,17.5,3,26.5,0.9
	c8.5-2,13.1-3,22-2.4C1318,167.1,1317.7,163.3,1340.1,164.2z"/>
</svg>
