<?xml version="1.0" encoding="utf-8"?>
<!-- Generator: Adobe Illustrator 27.1.1, SVG Export Plug-In . SVG Version: 6.00 Build 0)  -->
<svg version="1.1" id="Layer_1" xmlns="http://www.w3.org/2000/svg" xmlns:xlink="http://www.w3.org/1999/xlink" x="0px" y="0px"
	 viewBox="0 0 1339.8 204.8" style="enable-background:new 0 0 1339.8 204.8;" xml:space="preserve">
<style type="text/css">
	.st0{fill:#365624;}
</style>
<path id="mt4" class="st0" d="M1340.1,204.9c0-5.8,0-60.9,0-60.9s-13.8,1.9-17.4,1.8c-6.5-0.1-8.2-1.7-14.6-2.7
	c-13.6-2.4-27.2-5.5-40.8-7.9c-12.7-2.2-25.6-3.2-38.1-6.1c-14.2-3.2-22.5-3.3-35.7-9.5c-6.2-2.9-19.8-15.6-54.5-15.6
	c-33.7,0-32.9,7-46.6,7c-10.2,0-19.6-4.1-29.7-4.3c-16.3-0.3-32.3,0.6-48.3,3.5c-7.2,1.3-14.7,2.6-22,2c-10.5-0.9-20.9-3.2-31.3-5
	c-4.1-0.7-8-1.5-11.8-2.7c-9.2-2.8-18.2-5.7-27.2-8.9c-8.2-3-16.4-3.8-25.2-2.5c-7.9,1.1-16.1,1.5-24.1,2.1
	c-8.3,0.5-14.8,4.9-21.7,8.4c-8.1,4.1-15.4,9.7-24.7,11.7c-9.9,2.2-19.9,2.4-30,1.5c-7.7,0.4-25.2,11.3-77.2,10.3
	c-38.7-0.8-82.5-7.6-92.6-10.1c-12.7-3.1-25.6-6-38.9-3.4c-17.5,3.4-41.5,2.8-55.8-2.9c-9.6-3.8-19.7-4.1-29.8-4.3
	c-16.3-0.3-32.3,0.6-48.3,3.5c-7.2,1.3-14.7,2.6-22,2c-10.5-0.9-20.9-3.2-31.3-5c-4.1-0.7-8-1.5-11.8-2.7
	c-9.2-2.8-18.2-5.7-27.2-8.9c-8.2-3-16.4-3.8-25.2-2.5c-7.9,1.1-16.1,1.5-24.1,2.1c-8.3,0.5-14.8,4.9-21.7,8.4
	c-8.1,4.1-15.4,9.7-24.7,11.7c-9.9,2.2-19.9,2.4-30,1.5c-7.8,0.4-22.7-2.3-33-4.3c-9.6-1.9-19.5-2.9-29.2-4.2
	c-3.2-0.5-6.5-0.8-9.8-1.1c-4-0.5-8-0.3-12,0.6c-3.2,0.8-6.5,1.4-9.6,2.5c-20.1,6.6-40.4,13.4-60.4,20.4
	c-17.7,6.1-22.3,3.6-40.7,7.4c-8.6,1.7-40.6,5.9-40.6,5.9s0,60.1,0,60.9H1340.1z"/>
</svg>
