<?xml version="1.0" encoding="utf-8"?>
<!-- Generator: Adobe Illustrator 27.1.1, SVG Export Plug-In . SVG Version: 6.00 Build 0)  -->
<svg version="1.1" id="Layer_1" xmlns="http://www.w3.org/2000/svg" xmlns:xlink="http://www.w3.org/1999/xlink" x="0px" y="0px"
	 viewBox="0 0 1339.8 204.8" style="enable-background:new 0 0 1339.8 204.8;" xml:space="preserve">
<style type="text/css">
	.st0{fill:#7F8C23;}
</style>
<path id="mt3" class="st0" d="M1339.8,204.4v-98c-16.1-0.9-17.2-3.4-25.4-5.4c-12.5-2.9-24.9-6.6-37.3-9.9
	c-14.2-3.8-23.1-6.1-32.2-1.1c-4.8,2.7-20.2,9.6-25.7,9.4c-5-0.2-23-8.7-28-8.8c-9-0.2-36-8.2-37.7-8.2c-15.9-0.3-14.1-5.4-29.9-2.9
	c-8.2,1.2-16.8,3.2-25,2.2c-18.1-2.3-35.8-7.2-52.8-14.2c-5-2.1-10.8-2.6-16.3-2.7c-4.9-0.1-9.9,1.2-14.9,1.7
	c-8.6,0.9-17,1.9-24.3,6.9c-3.6,2.5-7.4,4.6-11,7c-7.6,4.9-16.4,5.9-25,6.4c-6.5,0.5-13.1-0.5-19.7-0.9c-1.3-0.1-2.6-0.2-4-0.5
	c-10.6-2.3-21.2-5.2-31.9-6.7c-7.6-1-15.8-1.5-23.2,0c-8.6,1.7-27.5,4.3-42,14.1c-3.1,2.2-6.8,3.4-10.7,3.6l-9.5,0.5
	c-2.5,0.1-4.8,0.9-6.8,2.2l-6.8,4.5c-6.6,4.4-50.1,8.7-54.2,6.4c-3.5-1.9-7.5-2.8-11.4-2.7l-12.5,0.3c0,0-20.4-0.8-26.3-2.1
	c-9.5-2.1-35.6-9.5-44.9-8.4c-45.7,5.8-71.6-20.2-87.3-17.7c-8.2,1.2-16.8,3.2-25,2.2c-18.1-2.3-35.8-7.2-52.8-14.2
	c-4.9-2.1-10.8-2.6-16.3-2.7c-4.9-0.1-9.9,1.2-14.9,1.7c-8.6,0.9-17,1.9-24.3,6.9c-3.6,2.5-7.3,4.6-11,7c-7.6,4.9-16.4,5.9-25,6.4
	c-6.5,0.5-13.1-0.5-19.7-0.9c-1.3-0.1-2.6-0.2-4-0.5c-10.6-2.3-21.2-5.2-31.9-6.7c-7.6-1-15.8-1.5-23.2,0c-8.6,1.7-27.4,4.3-42,14.1
	c-3.1,2.2-6.8,3.4-10.7,3.6l-9.5,0.5c-2.4,0.1-4.7,0.9-6.7,2.2l-6.8,4.5c-6.6,4.4-7.6,4.3-11.6,2c-3.5-1.9-7.5-2.8-11.4-2.7l-17,0.4
	c-5.2-1.8-15.8-0.9-21.6-2.2c-9.4-2.1-17.2-9.2-26.5-9.8c-15.3-1.1-29.1-0.4-36.6,1.8c-4.9,1.4-9.7,2.3-14.7,0.8
	c-6.8-2.2-13.3-0.9-19.5,2.3c-8.6,4.4-17.7,7.4-27.2,8.8c-9.7,1.5-9.7,1-19.5,2.6c-8.1,1.3-15.2,2.1-34.1-0.8v98H1339.8z"/>
</svg>
