<?xml version="1.0" encoding="utf-8"?>
<!-- Generator: Adobe Illustrator 27.1.1, SVG Export Plug-In . SVG Version: 6.00 Build 0)  -->
<svg version="1.1" id="Layer_1" xmlns="http://www.w3.org/2000/svg" xmlns:xlink="http://www.w3.org/1999/xlink" x="0px" y="0px"
	 viewBox="0 0 1339.8 204.8" style="enable-background:new 0 0 1339.8 204.8;" xml:space="preserve">
<style type="text/css">
	.st0{fill:#BC9235;}
</style>
<path id="mt2" class="st0" d="M1315.9,64.9c-6.9,6.1-14.8,8.4-23.6,8.7c-9.1,0.2-18-0.4-26.7-3.7c-7.7-2.9-16.4-3.2-24.5-5.5
	c-11.5-3.2-22.9-7.3-34.3-10.7c-6.9-2.1-13.9-4.4-21.3-3.6c-3,0.4-6.1,1.5-9,0.9c-11.9-2.5-24.3-1.2-36.3-4.8
	c-7.9-2.4-17.1-1-25.6-0.5c-8.8,0.6-17.6,2.5-26.5,3.3c-8.6,0.9-16.7-1.9-24.7-4.6c-6.5-2.3-13.1-4.4-19.4-7.3
	c-6.4-3-12.8-3.9-19.7-2.5c-4.3,0.9-9,0.8-13.5,1.1c-4.6,2.6-9.3,5-13.9,7.5c-5.9,7.2-13.7,9.7-22.7,9.7c-8.5,0-16.9,0.9-25.3-2.6
	c-9-3.8-18.8-4.8-28.6-4.4c-4.6,0.2-9.3,1.2-13.9,1.9c-16.4,6.9-32.8,14.3-49.4,20.5c-8.7,3.3-18.1,5.2-27.3,6.7
	c-7.9,1.3-15-2.7-22.2-5.8c-9.2-3.8-18.1-8-27.5-11.4c-0.2-0.1-0.3-0.1-0.5-0.2c-3.7-1.1-7.5-1.1-11.2-0.7c-2.9,0.4-5.9,1-8.7,1.7
	c-3,0.8-6.2,0.7-9.4,0.5c-5.7-0.4-11.3-0.9-16.3,2.4c-7.9,5.4-17,7.3-26.1,9c-1,0.2-2,0.4-3,0.6c-10.1,1.9-20.2,3.5-30.2,5.6
	c-5.7,1.1-10.8,0.3-15.7-2.3c-10.8-5.6-21.5-11.4-32.4-16.7c-5.1-2.5-10.7-4.1-16.1-6c-2.4-0.8-4.6-1.7-7-2.7
	c-7.9-0.6-15.9-0.9-23.7-3.2c-6-1.8-12.9-1.5-19.6-0.9c-2.1,0.2-4.1,0.4-6,0.5c-8.8,0.6-17.4,5.9-26.3,6.8
	c-8.6,0.9-15.7-0.2-23.8-4.2c-6.2-3-13.2-8-19.4-10.8c-6.4-3-13.6-2.9-20.6-2.9c-13.3,0-25,25.1-44.9,25.1
	c-16.3,0-22.2-2.3-30.6-5.8c-9-3.8-18.8-4.4-28.6-4.4c-19.5,0-46.7,12.7-63.3,18.9c-8.7,3.3-18.1,5.2-27.3,6.7
	c-7.9,1.3-15-2.7-22.2-5.8c-9.2-3.8-18.1-8-27.5-11.4c-6.6-2.4-13.6-0.8-20.4,0.9c-3,0.8-6.2,0.7-9.4,0.5
	c-5.7-0.4-11.4-0.9-16.3,2.4c-8.9,6.1-19,7.7-29.1,9.6c-10.1,1.9-20.2,3.5-30.2,5.6c-5.7,1.1-10.8,0.3-15.7-2.3
	c-10.8-5.6-21.5-11.4-32.4-16.7c-5.1-2.5-17.5,6.2-22.9,4.4C37.4,60.3,30,54.8,23.4,51c-8-4.5-21.7-4.9-23.4-4.8v158.2h1339.8V46.2
	C1330.6,46.4,1322.6,59,1315.9,64.9z"/>
</svg>
