<?xml version="1.0" encoding="utf-8"?>
<!-- Generator: Adobe Illustrator 27.1.1, SVG Export Plug-In . SVG Version: 6.00 Build 0)  -->
<svg version="1.1" id="Layer_1" xmlns="http://www.w3.org/2000/svg" xmlns:xlink="http://www.w3.org/1999/xlink" x="0px" y="0px"
	 viewBox="0 0 1339.8 204.8" style="enable-background:new 0 0 1339.8 204.8;" xml:space="preserve">
<style type="text/css">
	.st0{fill:#EACD53;}
</style>
<path id="mt1" class="st0" d="M1339.8,38.7c-7.7-0.5-13.2-2-18.8-6.5c-13.6-10-28.5-16.9-45.3-19.4c-5-0.8-10.7-0.6-15.3,3.2
	c-5.1,4.2-10.8,6-17.7,5.9c-5.1-0.1-10.3,2.4-15.4,3.8c-1.9,0.6-3.7,1.6-5.7,2c-7.6,1.3-15.2,2.7-22.9,3.6
	c-5.8,0.8-11.5,1.1-17.4-0.9c-9.5-3.5-19.2-6.1-28.8-9.2c-1.7-0.6-3.6-1.3-4.8-2.6c-5.9-5.5-12.9-8.2-20.4-10.5
	c-1.8-0.6-3.6-1.1-5.3-1.8c-9.6-3.5-15.2-1.8-21.4,6.6c-5,7-9.6,14.3-15.1,20.8c-4.7,5.7-9.7,5.9-15.7,1.7c-4.3-3-8.3-6.3-12.5-9.5
	c-7.7-5.7-16.4-6.1-25.3-4.2c-3.6,0.8-7.1,2.5-10.7,2.7c-5.6,0.5-8.2,3.9-10.4,8.2c1-0.1-0.2,2.5-2.6,6.4c-6.1,0.8-11.5,1.4-11.2,1
	c-6.8,0-27.4,9.9-40.1,17.3C938.2,54,919.7,50,906.4,45c-0.7-5.1-4.9-7.4-8.4-10.1c-5.4-4.3-11.1-5.3-17.3-1.3
	c-1.9,1.2-4.3,1.7-6.5,2.5c-8.2,2.9-16.2-0.3-23.8-2c-9.5-2.1-18.4-3-27.9-0.5c-2.8,0.8-6.5,1.2-9,0.1c-7.5-3.4-15.5-2.7-23.2-3.9
	c-7.7-1.2-14.4-3.6-19.1-10.6c-4-5.9-9.1-10.9-13.9-16.1c-2.9-3.1-9.8-4.1-12.6-1.7c-5.4,4.8-11.2,9.4-15.8,14.8
	c-4.4-1.4-9.1-2.5-13.8-3.1c-4.9-0.8-10.7-0.6-15.3,3.2c-5.1,4.2-10.8,6-17.7,5.9c-5.1-0.1-10.3,2.4-15.4,3.8
	c-1.9,0.6-3.7,1.6-5.7,2c-5.7,1-11.4,2-17.2,2.8c-0.9-0.4-1.6-0.9-2.4-1.4c-4.3-3.1-8.2-6.9-12-10.8c-6.9-7-15.3-9-24-5.6
	c-4.3,1.6-7.7,5.7-11.1,9.3c-0.9-0.2-1.6-0.5-2.5-0.8c-1.7-0.6-3.6-1.3-4.8-2.6c-5.8-5.5-12.9-8.2-20.4-10.5
	c-1.8-0.6-3.6-1.1-5.3-1.8c-9.6-3.5-15.2-1.8-21.4,6.6c-5,7-9.6,14.3-15.1,20.8c-4.6,5.7-9.6,5.9-15.6,1.7c-4.3-3-8.3-6.3-12.5-9.5
	c-7.7-5.7-16.4-6.1-25.3-4.2c-3.6,0.8-4.2,4.2-7.7,4.4c-5.6,0.5-8.5,2.8-13.1,7.9c-2.3,2.5-4.1,5.2-7.4,5.6
	c-1.8,0.2-3.5,0.4-4.6,0.5c-2.8,0.3-5.6,0.8-8.2,1.4c-14.9,4-22.7,9.4-33.9,15.9c-24.4,3.8-17.8-6.6-44.2-11.4
	c-9.5-3.8-11.2-8.6-14.7-11.4c-5.4-4.3-11.1-5.3-17.3-1.3c-1.9,1.2-4.3,1.7-6.5,2.5c-8.2,2.9-16.2-0.3-23.8-2
	c-9.5-2.1-18.4-3-27.9-0.5c-2.8,0.8-6.5,1.2-9,0.1c-7.5-3.4-15.5-2.7-23.2-3.9c-7.7-1.2-14.4-3.6-19.1-10.6
	c-4-5.9-9.1-10.9-13.9-16.1c-2.9-3.1-9.8-4.1-12.6-1.7c-6,5.2-12.4,10.2-17.2,16.4c-7.1,9.1-16.7,9.5-26.6,9.2
	c-4.7-0.1-9.1-0.3-13,2.6c-5.2,3.6-10.4,7.5-16.8,8.6c-2.5,0.5-5.3,0.4-7.7-0.3c-3.9-0.9-7.6-2.5-11.3-4c-3.6-1.4-7.5-2.6-10.5-4.7
	c-4.3-3.1-8.2-6.9-12-10.8c-6.9-7-15.3-9-24-5.6c-4.5,1.8-8.1,6.2-11.6,9.9c-4.1,4.3-7.6,9.7-13.8,12.2C13.5,37.5,6.2,38,0,38.7
	c0,9.5,0,17.6,0,39.4v126.7h1339.8V38.7z"/>
</svg>
