<?xml version="1.0" encoding="utf-8"?>
<!-- Generator: Adobe Illustrator 27.1.1, SVG Export Plug-In . SVG Version: 6.00 Build 0)  -->
<svg version="1.1" id="Layer_1" xmlns="http://www.w3.org/2000/svg" xmlns:xlink="http://www.w3.org/1999/xlink" x="0px" y="0px"
	 viewBox="0 0 297.5 283.8" style="enable-background:new 0 0 297.5 283.8;" xml:space="preserve">
<style type="text/css">
	.st0{fill:#FFFFFF;}
</style>
<g>
	<path d="M137.1,135.6c-1.1-2-2.4-3.3-3.7-5.3c-5-8.3-5.7-17.6-10.3-25.9c-3.7-7.7-10.8-14.9-19.7-14.9c-5.9,0-11.8-0.2-18-0.2
		c-3.9,0-7.9,0-11.8,0.4c-0.7,0-1.5,1.1-2,1.5c-0.2,2-0.4,4.2,0,6.1c0.7,2,2.4,3.3,3.9,4.2c0.9,0.4,2,0.7,2.9,0.7
		c4.4-0.4,8.8-0.4,13.2-0.4c2.9,0,5.7,0,8.6,0c3.7,0,7.2,0,11-0.2c0.2,0,1.3,1.1,1.3,1.3c0.2,13.8,0.7,27.2-0.4,41
		c-0.2,0.7-0.9,1.3-1.5,1.3H4.8c-0.7,0-1.3-0.7-1.3-1.3c0-13.2,0.2-26.5,0-39.7c0-0.7,0.7-1.5,1.3-1.5c5.3,0.2,10.8,0.2,16.2,0.2
		c3.9,0,7.9,0,11.8-0.2c5.5-0.4,9.2-5.9,9.2-11.6c0.7-11,0.7-22.2,0-32.9c-0.2-4.8-3.5-9.7-8.3-9.9c-3.3-0.4-6.8-0.4-10.3-0.4
		c-4.4,0-8.8,0-13.2,0c-1.8,0-3.5,0-5.3,0c-0.2,0-1.3-0.9-1.3-1.3c-0.2-14-0.2-28.3,0.4-42.6C4.1,3.3,5,3.7,5,3.7
		c25.7-0.2,51.6-0.4,77.2-0.4c18.9,0,37.7,0,56.6,0.4c2.2,0,4.8,0,7.2,0.2c14.3,2.9,26.8,11.8,30.7,26.3c1.8,4.8,2.2,9.7,2.2,14.5
		c0,6.6-0.9,13.4-4.6,19.5c-2,2.4-3.5,5-6.1,7.2c-4.2,3.9-9,5.7-14,8.6c0,0.4-0.7,1.1-0.4,1.3c1.8,2.2,3.9,3.3,5.9,5.3
		c5,5,7.7,10.3,10.1,12.3c3.1,2.6,6.8,3.3,10.8,3.3c2.6,0,5.5-0.2,8.3-0.2c0.7,0,1.5,0,2.4,0c0.2,0,0.9,0.7,0.9,0.9
		c0,7.7-0.7,15.4-0.9,23c-0.4,5.5,0,11.2-0.4,16.7c-0.2,0.7-1.1,1.3-1.8,1.5c-1.5,0-2.6,0.4-3.9,0.4c-0.2,0-0.4,0-0.7,0
		c-0.7-0.2-1.1-0.2-1.8-0.2c-1.5,0-3.1,0.4-4.6,0.4c-4.6,0.2-9.2,0.4-13.8,0.4C153.7,145.2,144.3,144.1,137.1,135.6z M9.2,12.3
		c0.9-0.4,0.4-0.9,0.4-1.3c-0.2-0.4-0.2-0.7-0.4-0.7c-0.2,0-0.7,0.9-1.1,1.1L9.2,12.3z M9.2,14.3c0,0,0,0.9,0.4,0.9s0.4-0.9,0-1.8
		C9.6,13.8,9.2,13.8,9.2,14.3z M10,18.9c-0.4,0,0,0.2,0,0.2c0.7,0,1.3-0.2,0.7-0.2H10z M10.9,38.4c-0.7,0,0,0.4,0,0.9
		c0.4,0.4,0.9,0.2,1.3-0.2c0-0.4-0.4-0.4-0.4-0.9C11.8,37.5,11.3,38.4,10.9,38.4z M13.5,30.9c0.2,0,0.4-0.2,0.7-0.4
		c0.4-0.4,0-1.1-0.4-1.3c-0.4-0.4-0.7,0.9-0.7,0.9C12.7,30.3,13.1,30.9,13.5,30.9z M14.4,12.3c0.9-0.4,0.4-0.9,0-0.9V12.3z
		 M15.3,130.3c0.4,0,1.1-0.4,1.3-0.4c0.7-0.7-0.4-0.7-0.4-1.3c0,0.7-1.8,0-1.3,1.3C14.9,130.3,15.1,130.3,15.3,130.3z M17.7,12.9
		c0.4,0,0.9-0.2,1.3-0.7c0-0.9-0.7-1.3-1.5-2h-0.4c-0.4,0.7-0.4,1.1-0.4,1.1C16.6,12.1,17.1,12.9,17.7,12.9z M18.6,32.9l-0.4,0.2
		l0.4,0.7c0.9,0,0.9,0,0.9-0.9H18.6z M27.8,129.4c0.7,0,0.7-0.2,1.1-0.7c0.4-0.7,1.1-1.5-0.4-1.5C27.6,127,26.5,128.8,27.8,129.4z
		 M28.2,132.7c-0.7,0-0.7,0.7-0.7,1.3h0.7c0.4,0,0.4,0,0.4-0.7C28.2,133.4,28.2,132.7,28.2,132.7z M30.7,106.8H30
		c-0.9,0.7,0.7,0.7,0.7,1.1V106.8z M33.1,123.1c-0.2,0-0.4-0.2-0.7-0.2c-0.7,0-0.7,0.7-0.7,0.7c0,1.5,0,2,0.7,2
		c0-1.1,0.4-1.1,0.7-1.1c0.4,0,0.7,0,0.7-0.9L33.1,123.1z M44.5,50.5c0-0.2-0.4-0.2-0.9-0.2c0,0.2-0.2,0.7-0.2,1.3
		c0.2,0.2,0.7,0,0.7,0C44.5,50.9,44.5,50.5,44.5,50.5z M45.6,50.5c0,0,0.9,0.4,0.9-0.2c0,0-0.9-0.7-1.5-0.7
		C44.5,50.2,45.6,50.5,45.6,50.5z M46,35.5V36c0.4,0,0.7,0,0.7-0.4c0,0,0-0.4-0.2-0.4C46,35.1,46,35.1,46,35.5z M46.2,40.1h0.7
		c0.7,0,0.4-1.1-0.2-1.5C46.5,38.6,46.2,39.7,46.2,40.1z M48.4,37.5c-0.2,0-0.2,0-0.2,0.4v0.2c0.2,0,0.7,0,0.7-0.2
		C48.9,37.5,48.9,37.5,48.4,37.5z M50.6,117.6c0.2,0,0.2-0.4,0.2-0.9c-0.2,0-0.7-0.2-1.3-0.2c-0.2,0,0,0.7,0,0.7
		C50.2,117.6,50.6,117.6,50.6,117.6z M50.6,118.7c0,0-0.4,0.9,0.2,0.9c0,0,0.7-0.9,0.7-1.5C50.8,117.6,50.6,118.7,50.6,118.7z
		 M55.2,108.2v0.7c0,0.2,0.2,0.4,0.4,0.4c0.4,0,0.9-0.2,1.1-0.7C56.8,108.4,55.7,108.2,55.2,108.2z M56.3,48l0.9,0.2
		c1.5,0,0.9-0.9,0.9-0.9c-0.9,0-0.9-0.9-0.9-0.9C57,46.9,56.5,47.4,56.3,48z M57.9,26.1c-0.2,0-0.7,0-0.9,0c-0.4,0-0.4,0.7-0.4,0.7
		l1.5,1.1c0.9,0.4,1.1-0.7,0.7-1.1C58.7,26.1,58.3,26.1,57.9,26.1z M57.9,110.4c0-0.2,0-0.2-0.4-0.2h-0.2c0,0.2,0,0.7,0.2,0.7
		C57.9,110.8,57.9,110.8,57.9,110.4z M59.2,90.2c-0.4,0-1.1,0.7-1.1,1.1c0.7,0,0.7,1.5,1.1,1.5C59.8,92.8,59.8,90.8,59.2,90.2z
		 M59.8,107.9h-0.4c0,0.4,0,0.7,0.4,0.7c0,0,0.4,0,0.4-0.2C60.3,107.9,60.3,107.9,59.8,107.9z M62,32.9V32l-0.2-0.4
		c-0.7,0-1.1,0.4-1.5,0.4C60.7,32.5,61.4,32.9,62,32.9z M66.2,36.9c0,0-0.7-0.2-0.9,0.4L65.1,38c-0.2-0.2-0.7-0.4-1.1,0
		c0,0-0.2,0.4,0.2,0.7c0.2,0.2,0.2,0.2,0.7,0c-0.4,0.2,0.4,0.4,0.4,0.4c0.9,0,0.9-0.7,0.9-0.7C66.4,38,66.4,37.7,66.2,36.9z
		 M66.2,102.5c-0.2,0-0.7,0.4-0.7,1.1c0,0.2,0.2,0.4,0.2,0.7l0.4,0.4c0.9,0,0.4-1.1,0.9-1.3C66.6,103.3,66.6,102.5,66.2,102.5z
		 M65.8,67.1l0.9,0.7v-1.1c0,0,0-0.4-0.9,0V67.1z M66.9,28.5c-0.4,0-0.9-0.2-0.9,0.4c0,0-0.4,0.4,0,0.7c0.4,0.7,0.9,0,0.9,0
		C67.3,29,66.6,28.7,66.9,28.5z M67.1,73.9c0.4-1.1,1.1-0.7,1.8-1.1C68.4,72.2,68,72,67.5,72c-0.4,0-0.7,0.2-0.9,0.9
		C66.6,73.3,66.6,73.9,67.1,73.9z M71.2,112.8c-0.4,0.2-0.9,0.2-0.4,1.1c0,0,0,0.4,0.4,0.4c0.7,0.2,0.7-0.7,0.7-0.7
		C71.9,112.8,71.2,113,71.2,112.8z M139.5,49.1c-1.8,0-3.5,0-5.3,0c-11.4,0-22.6-0.9-34-0.9c-8.1,0-16.5,0.4-24.8,2.2
		c-2,0.2-3.5,2.2-4.2,4.2c-0.7,2-0.7,4.8,1.5,4.8c11.6,0.4,23,0.7,34.7,0.7c11.4,0,23-0.2,34.4-0.4c0.7,0,1.1-0.7,1.8-1.3
		c1.5-1.5,1.8-4.2,1.1-5.9C143.9,50,141.7,49.1,139.5,49.1z M73.2,118.5c-0.4-0.9-0.4-0.2-0.9,0c0.4,0.7,0.4,0.7,0.9,0.9
		c0.4,0.4,0.4,0,0.4-0.7C73.7,118.5,73.7,118.5,73.2,118.5z M73.7,29l-0.4-0.4c0,0-0.4,0.2-0.2,0.4H73.7z M76.3,33.8
		c-0.2-0.9-1.3-1.5-2.2-1.5c-0.2,0-0.4,0.2-0.7,0.4c0,0.7,0,1.1,0.4,1.1c0.7,0.7,0.7,1.1,1.5,1.1C75.9,34.4,76.3,34.4,76.3,33.8z
		 M80,45.4h0.4c0.4-0.4,0-0.4,0-0.4C80,45,80,45,80,45.4z M80.5,115l1.3-0.4l-0.4-0.4c0,0-0.7,0.4-0.9,0.4
		C80.5,114.5,80,115,80.5,115z M82.2,39.3c-0.2,0.7,0.7,0.9,1.3,0.9c0.2,0,0.4,0,0.7-0.2c0.2-0.7-0.9-0.9-1.5-1.3L82.2,39.3z
		 M82.7,80.5c0.4,0,0.4-0.2,0.7-0.2c0,0,0,0.2,0,0.9C83.3,81.2,83.3,80.5,82.7,80.5z M84.2,113.6c0.7,0,1.3-1.3,0.9-2.4
		c0-0.4-0.2-0.9-0.7-0.9c-0.2,0-0.4,0-0.7,0.2C83.5,111.7,83.3,112.8,84.2,113.6z M93,13.2c0.9-0.4,0-0.4,0-0.9
		c0,0.4-0.4,0.4-0.4,0.9H93z M97.1,117.4c0.9,0,0-2-0.4-2.4c-0.7,0-0.7,0.4-0.7,0.4C96.7,116.3,96,117.4,97.1,117.4z M98.2,16.2
		c0.4,0,0.4,0,0.4-0.4c-0.2-0.4-0.4-0.7-0.7-0.7c0,0-0.2,0.2-0.2,0.7C97.8,16.2,97.8,16.2,98.2,16.2z M102.4,117.6
		c0-0.7,0-1.1-0.7-1.5c-0.4,0-0.4,0.4-1.1,0.9c0,0,0,0.7,0.7,0.7C101.7,117.6,102.4,118.3,102.4,117.6z M103.7,136.9
		c0,0.4,0.7,0.9,1.3,0.9c0.4,0,1.1-0.4,1.1-0.9c0-1.1-1.3-1.1-2-1.1C104.2,135.8,103.7,136.2,103.7,136.9z M107.4,24.1
		c-0.7,0,0,0.9,0,1.5c-0.2,0-0.2,0-0.2,0.2c0,0.4,0,0.4,0.2,0.4c0.7,0,1.8-0.4,1.8-0.7C108.5,25,108.1,23.7,107.4,24.1z M117.5,15.6
		c0-0.4,0-0.7-0.2-0.7c-0.2,0-0.4,0.4-0.7,0.7H117.5z M129.6,21.3c0.7,0,0.7,0,0.7-0.9c0.7-0.7,0-0.7-0.7-1.5c0,0.9-0.7,0.9-0.7,1.5
		C128.9,20.4,128.9,21.3,129.6,21.3z M132.2,112.3c0.2,0,0.2,0,0.2-0.2c0-0.4-0.4-0.9-0.4-0.9c-0.2,0-0.4,0.2-0.4,0.2
		c-0.7,0-0.9,0.2-0.9,0.2C130.9,112.3,131.6,112.3,132.2,112.3z M131.8,93.2v0.9l0.2,0.2v-0.2c0,0,0.4,0,0.4-0.4
		C132.5,93.7,132,93.2,131.8,93.2z M136.2,92.4c0-0.2,0-1.1-0.9-1.1c-0.4,0-0.4,0.7-0.4,0.7c0,0.4,0.7,0.4,0.9,0.7
		C135.8,92.6,136.2,92.6,136.2,92.4z M140.8,82.1c-0.4,0.2,0.2-1.1,0.2-0.9c0-0.2-1.1,0-1.3-0.4c0.2,0.4,0.2,0.4,0,0.7
		C140.1,81.8,140.4,82.7,140.8,82.1z M141.7,14h-0.4v0.4L141.7,14z M143.6,124c-0.9,0-1.3,0.4-1.3,1.8c0,0.2,0,0.4,0.2,0.4h0.4
		c0.7,0,0.9-0.4,0.9-1.3C143.9,124.6,143.9,124.2,143.6,124z M143.4,89.7c-0.4,0.4-1.1,0.9-0.9,1.5c0,0,0.4,0,0.9-0.4h0.4
		c0,0,0.2-0.7,0-1.1C143.6,89.5,143.6,89.5,143.4,89.7z M148.9,100.9c0,0,0,0.7-0.4,0.7c0,0.2,0.2,0.4,0.4,0.4c0.2,0,0.4-0.2,0.7,0
		C149.6,101.6,149.6,100.9,148.9,100.9z M153.7,129.2c0.4,0,0.4,0,0.4-0.2L153.7,129.2z M154.6,68.4c-0.7,0,0,0.9,0,1.5
		c-0.2,0-0.2,0-0.2,0.2c0,0.4,0,0.4,0.2,0.4c0.7,0,1.8-0.4,1.8-0.7C155.7,69.3,155.3,68,154.6,68.4z M163.4,115.2v-0.4
		c0,0,0-0.7-0.7-0.7c-0.4,0-0.4,0.7-0.4,1.1H163.4z M167.3,23.7c0-0.7-0.7-0.7-1.1-0.7c-1.5,1.1,0,1.1,0.4,1.1
		C167.3,24.1,167.3,24.1,167.3,23.7z M166,42.1c0.9,0,1.3,0,1.3-0.7c0-0.4-0.4-0.7-1.3-0.7c0,0,0,0.2-0.4,0.7L166,42.1z
		 M179.2,132.1c0.2,0,0.4-0.7,0.7-0.7c0-0.4-0.4-0.4-0.4-0.4c0,0.4-0.7,0.4-0.7,0.4C179,131.9,179.2,132.1,179.2,132.1z
		 M179.4,109.3v0.4c0,0.2,0.2,0.2,0.4,0.2c0.2,0,0.7,0,1.1-0.2C180.1,109.7,180.1,109.3,179.4,109.3z M186.7,137.6
		c0.4,0,0.4,0,0.4,0.4C187.1,137.6,186.7,137.6,186.7,137.6z"/>
</g>
<g>
	<g>
		<g>
			<path d="M258.2,276.5c-10.1,0-21.6-0.9-30.3-11.1c-0.2-0.2-0.3-0.4-0.4-0.6c-0.5-0.9-1.1-1.7-1.8-2.6c-0.5-0.7-1.2-1.5-1.8-2.4
				c0,0-0.1-0.1-0.1-0.1c-2.9-4.8-4.4-9.7-5.9-14.5c-1.3-4.1-2.5-7.9-4.5-11.6c0-0.1-0.1-0.1-0.1-0.2c-3-6.1-8.8-12.7-16.1-12.7
				c-3,0-6-0.1-8.9-0.1c-3-0.1-6-0.1-9.1-0.1c-3.5,0-6.8,0-10,0.3c-0.1,0.9-0.1,1.9,0.1,2.7c0.2,0.4,0.7,1,2,1.7
				c0.2,0.1,0.6,0.2,0.9,0.2c4.5-0.4,9-0.4,13.3-0.4h8.6c3.7,0,7.1,0,10.7-0.2c0.1,0,0.2,0,0.2,0c2.4,0,5.3,2.9,5.3,5.3
				c0,1.7,0.1,3.5,0.1,5.2c0.2,12.3,0.4,23.9-0.5,36.1c0,0.3-0.1,0.6-0.2,1c-0.8,2.4-3,4-5.3,4H98.7c-2.9,0-5.3-2.4-5.3-5.3
				c0-4.4,0-8.8,0-13.2c0-8.7,0.1-17.7,0-26.4c0-2.7,2.2-5.6,5.3-5.6c0.1,0,0.1,0,0.2,0c5.2,0.2,10.7,0.2,16.1,0.2
				c3.8,0,7.8,0,11.6-0.2c3.3-0.3,5.4-4.2,5.4-7.6c0-0.1,0-0.2,0-0.2c0.7-10.9,0.7-21.8,0-32.4c-0.1-2.9-2-6-4.5-6.1
				c-0.1,0-0.2,0-0.3,0c-3-0.4-6.3-0.4-9.8-0.4H98.9c-2.3,0-5.3-2.6-5.3-5.3c-0.3-17.1-0.1-30.3,0.4-42.7c0.1-2.4,2-4.2,4.3-4.2
				c0.4,0,0.8,0.1,1.1,0.1c25.1-0.2,50.9-0.4,76.6-0.4c18.6,0,37.8,0,56.7,0.4c0.1,0,0.3,0,0.4,0c2.1,0,4.7,0,7.1,0.2
				c0.1,0,0.3,0,0.4,0.1c17,3.4,29.6,14.3,33.7,29c1.6,4.6,2.4,9.4,2.4,15.7c0,5.6-0.5,13.9-5.2,21.6c-0.1,0.2-0.2,0.3-0.3,0.5
				c-0.5,0.7-1.1,1.4-1.6,2c-1.3,1.8-2.8,3.8-5,5.6c-3.4,3.2-7.1,5.1-10.7,6.9c-0.1,0-0.2,0.1-0.3,0.2c0.8,0.6,1.7,1.4,2.6,2.3
				c3,3,5.1,5.9,6.9,8.3c1.2,1.6,2.2,3.1,2.9,3.7c2,1.7,4.4,2.4,8.2,2.4c1.2,0,2.5,0,3.8-0.1c1.5-0.1,3-0.1,4.5-0.1h2.4
				c2.4,0,4.9,2.5,4.9,4.9c0,4.7-0.2,9.5-0.5,14c-0.2,3-0.3,6.1-0.4,9.1c0,0.1,0,0.1,0,0.2c-0.2,2.6-0.2,5.2-0.2,8
				c0,2.8,0,5.8-0.2,8.7c0,0.3-0.1,0.6-0.2,0.9c-0.7,2.1-2.6,3.5-4.3,4.1c-0.4,0.1-0.8,0.2-1.3,0.2c-0.5,0-0.9,0.1-1.4,0.2
				c-0.7,0.1-1.5,0.3-2.5,0.3h-0.7c-0.4,0-0.9-0.1-1.3-0.2c-0.1,0-0.2,0-0.3,0c-0.1,0-0.1,0-0.2,0c-0.5,0-1.1,0.1-1.7,0.2
				c-0.8,0.1-1.8,0.3-2.8,0.3C267.6,276.3,262.9,276.5,258.2,276.5z M169.1,182.8c10.9,0.4,21.5,0.6,32.3,0.6
				c11.1,0,22.8-0.2,33.2-0.4c0.1-0.1,0.1-0.1,0.2-0.2c0.2-0.2,0.4-1.2,0.2-1.7c-0.1-0.2-0.3-0.7-1.5-0.7h-5.3
				c-5.8,0-11.6-0.2-17.2-0.4c-5.5-0.2-11.2-0.4-16.8-0.4c-9.6,0-17,0.7-24,2.1c-0.1,0-0.2,0-0.3,0
				C169.7,181.8,169.3,182.2,169.1,182.8z M160.6,169.4L160.6,169.4z"/>
			<path class="st0" d="M176.1,130.5c18.9,0,37.7,0,56.6,0.4c2.2,0,4.8,0,7.2,0.2c14.3,2.9,26.8,11.8,30.7,26.3
				c1.8,4.8,2.2,9.7,2.2,14.5c0,6.6-0.9,13.4-4.6,19.5c-2,2.4-3.5,5-6.1,7.2c-4.2,3.9-9,5.7-14,8.6c0,0.4-0.7,1.1-0.4,1.3
				c1.8,2.2,3.9,3.3,5.9,5.3c5,5,7.7,10.3,10.1,12.3c3.1,2.6,6.8,3.3,10.8,3.3c2.6,0,5.5-0.2,8.3-0.2c0.7,0,1.5,0,2.4,0
				c0.2,0,0.9,0.7,0.9,0.9c0,7.7-0.7,15.4-0.9,23c-0.4,5.5,0,11.2-0.4,16.7c-0.2,0.7-1.1,1.3-1.8,1.5c-1.5,0-2.6,0.4-3.9,0.4
				c-0.2,0-0.4,0-0.7,0c-0.7-0.2-1.1-0.2-1.8-0.2c-1.5,0-3.1,0.4-4.6,0.4c-4.6,0.2-9.2,0.4-13.8,0.4c-10.5,0-20-1.1-27.2-9.7
				c-1.1-2-2.4-3.3-3.7-5.3c-5-8.3-5.7-17.6-10.3-25.9c-3.7-7.7-10.8-14.9-19.7-14.9c-5.9,0-11.8-0.2-18-0.2c-3.9,0-7.9,0-11.8,0.4
				c-0.7,0-1.5,1.1-2,1.5c-0.2,2-0.4,4.2,0,6.1c0.7,2,2.4,3.3,3.9,4.2c0.9,0.4,2,0.7,2.9,0.7c4.4-0.4,8.8-0.4,13.2-0.4
				c2.9,0,5.7,0,8.6,0c3.7,0,7.2,0,11-0.2c0.2,0,1.3,1.1,1.3,1.3c0.2,13.8,0.7,27.2-0.4,41c-0.2,0.7-0.9,1.3-1.5,1.3H98.7
				c-0.7,0-1.3-0.7-1.3-1.3c0-13.2,0.2-26.5,0-39.7c0-0.7,0.7-1.5,1.3-1.5c5.3,0.2,10.8,0.2,16.2,0.2c3.9,0,7.9,0,11.8-0.2
				c5.5-0.4,9.2-5.9,9.2-11.6c0.7-11,0.7-22.2,0-32.9c-0.2-4.8-3.5-9.7-8.3-9.9c-3.3-0.4-6.8-0.4-10.3-0.4c-4.4,0-8.8,0-13.2,0
				c-1.8,0-3.5,0-5.3,0c-0.2,0-1.3-0.9-1.3-1.3c-0.2-14-0.2-28.3,0.4-42.6c0-0.3,0.2-0.4,0.3-0.4c0.2,0,0.5,0.1,0.5,0.1
				C124.6,130.8,150.5,130.5,176.1,130.5 M111.6,140.2c0.4,0,0.9-0.2,1.3-0.7c0-0.9-0.7-1.3-1.5-2H111c-0.4,0.7-0.4,1.1-0.4,1.1
				C110.5,139.3,111,140.2,111.6,140.2 M103.1,139.5c0.9-0.4,0.4-0.9,0.4-1.3c-0.2-0.4-0.2-0.7-0.4-0.7c-0.2,0-0.7,0.9-1.1,1.1
				L103.1,139.5 M108.3,139.5c0.9-0.4,0.4-0.9,0-0.9V139.5 M186.4,140.4h0.4c0.9-0.4,0-0.4,0-0.9C186.9,140,186.4,140,186.4,140.4
				 M103.5,142.4c0.4,0,0.4-0.9,0-1.8c0,0.4-0.4,0.4-0.4,0.9C103.1,141.5,103.1,142.4,103.5,142.4 M235.6,141.3h-0.4v0.4
				L235.6,141.3 M210.6,142.8h0.9c0-0.4,0-0.7-0.2-0.7S210.8,142.6,210.6,142.8 M192.1,143.5c0.4,0,0.4,0,0.4-0.4
				c-0.2-0.4-0.4-0.7-0.7-0.7c0,0-0.2,0.2-0.2,0.7C191.7,143.5,191.7,143.5,192.1,143.5 M223.5,148.5c0.7,0,0.7,0,0.7-0.9
				c0.7-0.7,0-0.7-0.7-1.5c0,0.9-0.7,0.9-0.7,1.5C222.9,147.7,222.9,148.5,223.5,148.5 M103.9,146.3c0.7,0,1.3-0.2,0.7-0.2h-0.7
				C103.5,146.1,103.9,146.3,103.9,146.3 M260.6,151.4c0.7,0,0.7,0,0.7-0.4c0-0.7-0.7-0.7-1.1-0.7
				C258.6,151.4,260.2,151.4,260.6,151.4 M201.4,153.6c0.7,0,1.8-0.4,1.8-0.7c-0.6-0.6-1-1.6-1.5-1.6c-0.1,0-0.2,0-0.3,0.1
				c-0.7,0,0,0.9,0,1.5c-0.2,0-0.2,0-0.2,0.2C201.1,153.6,201.1,153.6,201.4,153.6 M152.4,155.2c0.6,0,0.7-0.8,0.3-1.2
				c0-0.7-0.4-0.7-0.9-0.7c-0.2,0-0.7,0-0.9,0c-0.4,0-0.4,0.7-0.4,0.7l1.5,1.1C152.1,155.2,152.3,155.2,152.4,155.2 M160.3,157.2
				c0.3,0,0.5-0.3,0.5-0.3c0.4-0.7-0.2-0.9,0-1.1c-0.2,0-0.4,0-0.5,0c-0.2,0-0.4,0.1-0.4,0.5c0,0-0.4,0.4,0,0.7
				C160,157.1,160.2,157.2,160.3,157.2 M166.9,156.2h0.7l-0.4-0.4C167.1,155.8,166.7,156,166.9,156.2 M107.4,158.2
				c0.2,0,0.4-0.2,0.7-0.4c0.4-0.4,0-1.1-0.4-1.3c-0.1-0.1-0.1-0.1-0.2-0.1c-0.3,0-0.5,1-0.5,1C106.6,157.5,107,158.2,107.4,158.2
				 M155.9,160.2v-0.9l-0.2-0.4c-0.7,0-1.1,0.4-1.5,0.4C154.6,159.7,155.3,160.2,155.9,160.2 M169.3,162.1c0.4-0.4,0.9-0.4,0.9-1.1
				c-0.2-0.9-1.3-1.5-2.2-1.5c-0.2,0-0.4,0.2-0.7,0.4c0,0.7,0,1.1,0.4,1.1C168.4,161.7,168.4,162.1,169.3,162.1 M112.5,161
				c0.9,0,0.9,0,0.9-0.9h-0.9l-0.4,0.2L112.5,161 M139.9,163.2c0.4,0,0.7,0,0.7-0.4c0,0,0-0.4-0.2-0.4c-0.4,0-0.4,0-0.4,0.4V163.2
				 M159,165.2c-0.1-0.1-0.3-0.3-0.6-0.3c-0.2,0-0.4,0.1-0.5,0.3c0,0-0.2,0.4,0.2,0.7c0.1,0.1,0.2,0.2,0.2,0.2
				c0.1,0,0.2-0.1,0.4-0.2c-0.4,0.2,0.4,0.4,0.4,0.4c0.9,0,0.9-0.7,0.9-0.7c0.2-0.4,0.2-0.7,0-1.5c0,0-0.1,0-0.2,0
				c-0.2,0-0.5,0.1-0.6,0.5L159,165.2 M142.1,165.4c0.2,0,0.7,0,0.7-0.2c0-0.4,0-0.4-0.4-0.4c-0.2,0-0.2,0-0.2,0.4V165.4
				 M105.3,166.8c0.3,0,0.5-0.2,0.8-0.5c0-0.4-0.4-0.4-0.4-0.9c0-0.2,0-0.2-0.1-0.2c-0.2,0-0.5,0.5-0.8,0.5c-0.7,0,0,0.4,0,0.9
				C105,166.7,105.2,166.8,105.3,166.8 M177.4,167.4c0.2,0,0.4,0,0.7-0.2c0.2-0.7-0.9-0.9-1.5-1.3l-0.4,0.7
				C175.9,167.2,176.8,167.4,177.4,167.4 M140.1,167.4h0.7c0.7,0,0.4-1.1-0.2-1.5C140.4,165.9,140.1,167,140.1,167.4 M259.9,169.4
				c0.9,0,1.3,0,1.3-0.7c0-0.4-0.4-0.7-1.3-0.7c0,0,0,0.2-0.4,0.7L259.9,169.4 M173.9,172.7h0.4c0.4-0.4,0-0.4,0-0.4
				C173.9,172.2,173.9,172.2,173.9,172.7 M151.1,175.5c1.5,0,0.9-0.9,0.9-0.9c-0.9,0-0.9-0.9-0.9-0.9c-0.2,0.4-0.7,0.9-0.9,1.5
				L151.1,175.5 M201.4,187.4c11.4,0,23-0.2,34.4-0.4c0.7,0,1.1-0.7,1.8-1.3c1.5-1.5,1.8-4.2,1.1-5.9c-0.9-2.4-3.1-3.3-5.3-3.3
				c-1.8,0-3.5,0-5.3,0c-11.4,0-22.6-0.9-34-0.9c-8.1,0-16.5,0.4-24.8,2.2c-2,0.2-3.5,2.2-4.2,4.2c-0.7,2-0.7,4.8,1.5,4.8
				C178.3,187.1,189.7,187.4,201.4,187.4 M140,177.9c0.2,0,0.3-0.1,0.3-0.4c0,0-0.9-0.7-1.5-0.7c-0.4,0.7,0.7,0.9,0.7,0.9
				S139.8,177.9,140,177.9 M137.6,178.9c0.2,0,0.4-0.1,0.4-0.1c0.4-0.7,0.4-1.1,0.4-1.1c0-0.2-0.4-0.2-0.9-0.2
				c0,0.2-0.2,0.7-0.2,1.3C137.4,178.9,137.5,178.9,137.6,178.9 M160.5,195V194c0,0,0-0.2-0.3-0.2c-0.1,0-0.3,0-0.6,0.2v0.4
				L160.5,195 M248.5,197.9c0.7,0,1.8-0.4,1.8-0.7c-0.6-0.6-1-1.6-1.5-1.6c-0.1,0-0.2,0-0.3,0.1c-0.7,0,0,0.9,0,1.5
				c-0.2,0-0.2,0-0.2,0.2C248.3,197.9,248.3,197.9,248.5,197.9 M161,201.2c0.4-1.1,1.1-0.7,1.8-1.1c-0.4-0.7-0.9-0.9-1.3-0.9
				s-0.7,0.2-0.9,0.9C160.5,200.5,160.5,201.2,161,201.2 M177.2,208.4C177.2,208.4,177.2,208.4,177.2,208.4
				C177.2,208.4,177.2,208.4,177.2,208.4c0-0.7,0-0.9,0-0.9c-0.2,0-0.2,0.2-0.7,0.2C177.2,207.8,177.2,208.4,177.2,208.4
				 M234.4,209.5c0.1,0,0.2-0.1,0.3-0.2c0,0-0.1,0-0.1,0c-0.2,0,0.2-0.9,0.3-0.9c0,0,0,0,0,0c0,0,0,0,0,0c0,0,0,0,0,0
				c-0.1-0.2-1.1,0-1.3-0.4c0.2,0.4,0.2,0.4,0,0.7C233.9,209,234.1,209.5,234.4,209.5 M236.5,218.5c0,0,0.4,0,0.9-0.4h0.4
				c0,0,0.2-0.7,0-1.1c-0.1-0.1-0.2-0.2-0.2-0.2s-0.1,0.1-0.2,0.2C236.9,217.4,236.2,217.9,236.5,218.5 M153.1,220.1
				c0.7,0,0.7-2,0-2.6c-0.4,0-1.1,0.7-1.1,1.1C152.6,218.5,152.6,220.1,153.1,220.1 M229.7,219.8c0,0,0.4,0,0.4-0.2
				c0-0.2,0-1.1-0.9-1.1c-0.4,0-0.4,0.7-0.4,0.7C228.8,219.6,229.4,219.6,229.7,219.8 M225.9,221.6v-0.2c0,0,0.4,0,0.4-0.4
				c0,0-0.4-0.4-0.7-0.4v0.9L225.9,221.6 M242.8,229.3c0.1,0,0.3-0.1,0.4-0.1c0.1,0,0.1,0,0.2,0.1c0-0.4,0-1.1-0.7-1.1
				c0,0,0,0.7-0.4,0.7C242.4,229.1,242.6,229.3,242.8,229.3 M160.1,231.9c0.9,0,0.4-1.1,0.9-1.3c-0.4,0-0.4-0.9-0.9-0.9
				c-0.2,0-0.7,0.4-0.7,1.1c0,0.2,0.2,0.4,0.2,0.7L160.1,231.9 M124.6,235.2v-1.1h-0.7C123,234.8,124.6,234.8,124.6,235.2
				 M153.7,235.9c0,0,0.4,0,0.4-0.2c0-0.4,0-0.4-0.4-0.4h-0.4C153.3,235.6,153.3,235.9,153.7,235.9 M149.6,236.5
				c0.4,0,0.9-0.2,1.1-0.7c0-0.2-1.1-0.4-1.5-0.4v0.7C149.1,236.3,149.4,236.5,149.6,236.5 M273.8,237.2c0.2,0,0.7,0,1.1-0.2
				c-0.9,0-0.9-0.4-1.5-0.4v0.4C273.3,237.2,273.5,237.2,273.8,237.2 M151.3,238.1c0.4,0,0.4,0,0.4-0.4c0-0.2,0-0.2-0.4-0.2h-0.2
				C151.1,237.6,151.1,238.1,151.3,238.1 M178.1,240.9c0.7,0,1.3-1.3,0.9-2.4c0-0.4-0.2-0.9-0.7-0.9c-0.2,0-0.4,0-0.7,0.2
				C177.4,238.9,177.2,240,178.1,240.9 M226.1,239.6c0.2,0,0.2,0,0.2-0.2c0-0.4-0.4-0.9-0.4-0.9c-0.2,0-0.4,0.2-0.4,0.2
				c-0.7,0-0.9,0.2-0.9,0.2C224.8,239.6,225.5,239.6,226.1,239.6 M165.3,241.6c0.5,0,0.5-0.7,0.5-0.7c0-0.9-0.7-0.7-0.7-0.9
				c-0.4,0.2-0.9,0.2-0.4,1.1c0,0,0,0.4,0.4,0.4C165.2,241.6,165.3,241.6,165.3,241.6 M256.2,242.4h1.1V242c0,0,0-0.7-0.7-0.7
				C256.2,241.3,256.2,242,256.2,242.4 M174.4,242.2l1.3-0.4l-0.4-0.4c0,0-0.7,0.4-0.9,0.4C174.4,241.8,173.9,242.2,174.4,242.2
				 M191,244.6c0.9,0,0-2-0.4-2.4c-0.7,0-0.7,0.4-0.7,0.4C190.6,243.5,189.9,244.6,191,244.6 M196.1,245.1c0.1,0,0.2-0.1,0.2-0.3
				c0-0.7,0-1.1-0.7-1.5c-0.4,0-0.4,0.4-1.1,0.9c0,0,0,0.7,0.7,0.7C195.5,244.9,195.9,245.1,196.1,245.1 M144.5,244.9
				c0.2,0,0.2-0.4,0.2-0.9c-0.2,0-0.7-0.2-1.3-0.2c-0.2,0,0,0.7,0,0.7C144.1,244.9,144.5,244.9,144.5,244.9 M144.7,246.8
				c0,0,0.7-0.9,0.7-1.5c-0.1-0.1-0.2-0.1-0.3-0.1c-0.4,0-0.6,0.8-0.6,0.8S144.1,246.8,144.7,246.8 M167.4,246.8
				c0.2,0,0.2-0.4,0.2-0.8c0-0.2,0-0.2-0.4-0.2c-0.2-0.3-0.3-0.4-0.4-0.4c-0.1,0-0.2,0.3-0.5,0.4c0.4,0.7,0.4,0.7,0.9,0.9
				C167.3,246.7,167.3,246.8,167.4,246.8 M126.3,252.8c0-1.1,0.4-1.1,0.7-1.1c0.4,0,0.7,0,0.7-0.9l-0.7-0.4c-0.2,0-0.4-0.2-0.7-0.2
				c-0.7,0-0.7,0.7-0.7,0.7C125.7,252.3,125.7,252.8,126.3,252.8 M236.5,253.4h0.4c0.7,0,0.9-0.4,0.9-1.3c0-0.2,0-0.7-0.2-0.9
				c-0.9,0-1.3,0.4-1.3,1.8C236.2,253.2,236.2,253.4,236.5,253.4 M121.7,256.7c0.7,0,0.7-0.2,1.1-0.7c0.4-0.7,1.1-1.5-0.4-1.5
				c-0.1,0-0.1,0-0.2,0C121.4,254.5,120.5,256.1,121.7,256.7 M109.2,257.6c0.4,0,1.1-0.4,1.3-0.4c0.7-0.7-0.4-0.7-0.4-1.3
				c0,0.7-1.8,0-1.3,1.3C108.8,257.6,109,257.6,109.2,257.6 M248.1,256.3l-0.4,0.2C248.1,256.5,248.1,256.5,248.1,256.3
				 M273.1,259.3c0.2,0,0.4-0.7,0.7-0.7c0-0.4-0.4-0.4-0.4-0.4c0,0.4-0.7,0.4-0.7,0.4C272.9,259.1,273.1,259.3,273.1,259.3
				 M121.5,261.3h0.7c0.4,0,0.4,0,0.4-0.7c-0.4,0-0.4-0.7-0.4-0.7C121.5,260,121.5,260.7,121.5,261.3 M198.9,265
				c0.4,0,1.1-0.4,1.1-0.9c0-1.1-1.3-1.1-2-1.1c0,0-0.4,0.4-0.4,1.1C197.6,264.6,198.3,265,198.9,265 M281,265.3
				c0-0.4,0-0.4-0.4-0.4C280.6,264.8,281,264.8,281,265.3 M158.8,165.9L158.8,165.9 M176.1,122.5c-25.6,0-51.3,0.2-76.2,0.4
				c-0.5-0.1-1-0.1-1.5-0.1c-4.6,0-8.2,3.5-8.3,8.1c-0.6,12.5-0.7,25.8-0.4,43c0.1,4.7,4.6,9.2,9.3,9.2h5.3h13.2
				c3.3,0,6.5,0,9.3,0.4c0.2,0,0.3,0,0.5,0.1c0.3,0.3,0.8,1.2,0.9,2.3c0,0,0,0.1,0,0.1c0.6,10.5,0.6,21.2,0,31.9c0,0.2,0,0.3,0,0.5
				c0,2-1.2,3.5-1.8,3.6c-3.7,0.2-7.4,0.2-11.2,0.2c-5.3,0-10.8,0-15.9-0.2c-0.1,0-0.2,0-0.3,0c-5.1,0-9.3,4.4-9.3,9.5
				c0,0,0,0.1,0,0.1c0.1,8.7,0.1,17.7,0,26.3c0,4.3,0,8.8,0,13.2c0,5.1,4.3,9.3,9.3,9.3h105.5c4,0,7.8-2.8,9.1-6.8
				c0.2-0.6,0.3-1.3,0.4-1.9c0.7-8.2,0.8-16.3,0.7-24.3c1.4,4.5,3.1,9.4,6,14.2c0.1,0.1,0.1,0.2,0.2,0.3c0.7,1,1.4,1.9,1.9,2.6
				c0.6,0.8,1.1,1.4,1.5,2.1c0.3,0.5,0.5,0.9,0.9,1.3c9.3,11,21.5,12.5,33.3,12.5c4.7,0,9.5-0.2,14-0.4c1.2,0,2.3-0.2,3.2-0.3
				c0.4-0.1,0.8-0.1,1.1-0.1c0.6,0.1,1.2,0.2,1.8,0.2h0.7c1.3,0,2.4-0.2,3.2-0.3c0.3,0,0.7-0.1,0.8-0.1c0.9,0,1.7-0.1,2.5-0.4
				c2.5-0.8,5.6-3,6.8-6.6c0.2-0.6,0.3-1.2,0.4-1.9c0.2-3.1,0.2-6.1,0.2-9c0-2.7,0-5.3,0.2-7.7c0-0.1,0-0.3,0-0.4
				c0.1-3,0.2-6.1,0.4-9c0.2-4.6,0.5-9.4,0.5-14.2c0-4.6-4.2-8.9-8.9-8.9h-2.4c-1.6,0-3.2,0.1-4.6,0.1c-1.3,0.1-2.6,0.1-3.7,0.1
				c-3.5,0-4.8-0.7-5.5-1.4c0,0-0.1-0.1-0.1-0.1c-0.4-0.4-1.5-1.9-2.3-3c-1.5-2-3.4-4.7-5.9-7.4c2.3-1.3,4.6-2.9,6.8-5
				c2.5-2.1,4.2-4.4,5.6-6.2c0.5-0.7,1-1.3,1.5-1.9c0.2-0.3,0.5-0.6,0.6-0.9c5.2-8.5,5.8-17.6,5.8-23.7c0-6.7-0.8-11.9-2.6-16.9
				c-4.6-16.2-18.3-28.1-36.8-31.8c-0.3-0.1-0.6-0.1-0.8-0.1c-2.7-0.2-5.6-0.3-7.9-0.3C213.9,122.5,194.7,122.5,176.1,122.5
				L176.1,122.5z M150.1,165.1L150.1,165.1L150.1,165.1L150.1,165.1z M181.9,172.6L181.9,172.6L181.9,172.6L181.9,172.6z
				 M264.2,242.4L264.2,242.4L264.2,242.4L264.2,242.4z M129.5,261.2L129.5,261.2L129.5,261.2L129.5,261.2z"/>
		</g>
	</g>
</g>
</svg>
