<?xml version="1.0" encoding="utf-8"?>
<!-- Generator: Adobe Illustrator 27.1.1, SVG Export Plug-In . SVG Version: 6.00 Build 0)  -->
<svg version="1.1" id="Layer_1" xmlns="http://www.w3.org/2000/svg" xmlns:xlink="http://www.w3.org/1999/xlink" x="0px" y="0px"
	 viewBox="0 0 297.5 283.8" style="enable-background:new 0 0 297.5 283.8;" xml:space="preserve">
<style type="text/css">
	.st0{fill:#FFFFFF;}
</style>
<g>
	<path class="st0" d="M29.1,126.4c-0.9-0.2-2,1.6-0.7,2.2c0.7,0,0.7-0.2,1.1-0.7C29.9,127.2,30.5,126.4,29.1,126.4z"/>
	<path class="st0" d="M31.2,107.5v-1.1h-0.7C29.7,107.1,31.2,107.1,31.2,107.5z"/>
	<path class="st0" d="M19.8,13.9c0-0.9-0.7-1.3-1.5-2h-0.4c-0.4,0.7-0.4,1.1-0.4,1.1c-0.1,0.8,0.4,1.6,1,1.6
		C18.9,14.5,19.4,14.3,19.8,13.9z"/>
	<path class="st0" d="M130,111c-0.7,0-0.9,0.2-0.9,0.2c0.2,0.7,0.9,0.7,1.5,0.7c0.2,0,0.2,0,0.2-0.2c0-0.4-0.4-0.9-0.4-0.9
		C130.2,110.8,130,111,130,111z"/>
	<path class="st0" d="M32.9,122.2c-0.7,0-0.7,0.7-0.7,0.7c0,1.5,0,2,0.7,2c0-1.1,0.4-1.1,0.7-1.1c0.4,0,0.7,0,0.7-0.9l-0.7-0.5
		C33.4,122.4,33.2,122.2,32.9,122.2z"/>
	<path class="st0" d="M28.8,131.8c-0.7,0-0.7,0.7-0.7,1.3h0.7c0.4,0,0.4,0,0.4-0.7C28.8,132.5,28.8,131.8,28.8,131.8z"/>
	<path class="st0" d="M19,34.3l0.4,0.7c0.9,0,0.9,0,0.9-0.9h-0.9L19,34.3z"/>
	<path class="st0" d="M17,127.8c0,0.7-1.8,0-1.3,1.3c0,0.4,0.2,0.4,0.4,0.4c0.4,0,1.1-0.4,1.3-0.4C18.1,128.4,17,128.4,17,127.8z"/>
	<path class="st0" d="M130.2,93.1V94l0.2,0.2V94c0,0,0.4,0,0.4-0.4C130.9,93.6,130.4,93.1,130.2,93.1z"/>
	<path class="st0" d="M106.1,27.2c0,0.4,0,0.4,0.2,0.4c0.7,0,1.8-0.4,1.8-0.7c-0.7-0.5-1.1-1.8-1.8-1.4c-0.7,0,0,0.9,0,1.5
		C106.1,27,106.1,27,106.1,27.2z"/>
	<path class="st0" d="M97.3,17.8c0.4,0,0.4,0,0.4-0.4c-0.2-0.4-0.4-0.7-0.7-0.7c0,0-0.2,0.2-0.2,0.7C96.9,17.8,96.9,17.8,97.3,17.8z
		"/>
	<path class="st0" d="M128,22.8c0.7,0,0.7,0,0.7-0.9c0.7-0.7,0-0.7-0.7-1.5c0,0.9-0.7,0.9-0.7,1.5C127.3,21.9,127.3,22.8,128,22.8z"
		/>
	<path class="st0" d="M137.9,81c0.2,0.4,0.2,0.4,0,0.7c0.4,0.3,0.7,1.2,1.1,0.6c-0.4,0.2,0.2-1.1,0.2-0.9
		C139.2,81.2,138.1,81.4,137.9,81z"/>
	<polygon class="st0" points="139.5,15.6 139.5,16 139.9,15.6 	"/>
	<path class="st0" d="M133.6,91.3c-0.4,0-0.4,0.7-0.4,0.7c0,0.4,0.7,0.4,0.9,0.7c0-0.1,0.4-0.1,0.4-0.3
		C134.5,92.2,134.5,91.3,133.6,91.3z"/>
	<path class="st0" d="M141.5,89.7c-0.4,0.4-1.1,0.9-0.9,1.5c0,0,0.4,0,0.9-0.4h0.4c0,0,0.2-0.7,0-1.1
		C141.7,89.5,141.7,89.5,141.5,89.7z"/>
	<path class="st0" d="M11.8,39.5c-0.7,0,0,0.4,0,0.9c0.4,0.4,0.9,0.2,1.3-0.2c0-0.4-0.4-0.4-0.4-0.9C12.7,38.6,12.2,39.5,11.8,39.5z
		"/>
	<path class="st0" d="M161.1,114.3c0,0,0-0.7-0.7-0.7c-0.4,0-0.4,0.7-0.4,1.1h1.1V114.3z"/>
	<path class="st0" d="M15.3,13.1V14C16.1,13.6,15.7,13.1,15.3,13.1z"/>
	<path class="st0" d="M163.7,41.8c0,0,0,0.2-0.4,0.7l0.4,0.7c0.9,0,1.3,0,1.3-0.7C164.9,42,164.5,41.8,163.7,41.8z"/>
	<path class="st0" d="M164.2,25.5c0.7,0,0.7,0,0.7-0.4c0-0.7-0.7-0.7-1.1-0.7C162.4,25.5,163.9,25.5,164.2,25.5z"/>
	<path class="st0" d="M100.3,117.1c0.4-0.1,1.1,0.6,1.1-0.1c0-0.7,0-1.1-0.7-1.5c-0.4,0-0.4,0.4-1.1,0.9
		C99.6,116.4,99.6,117.1,100.3,117.1z"/>
	<path class="st0" d="M96.2,116.8c0.9,0,0-2-0.4-2.3c-0.7,0-0.7,0.4-0.7,0.4C95.8,115.8,95.1,116.8,96.2,116.8z"/>
	<path class="st0" d="M177.2,109.5c0.2,0,0.7,0,1.1-0.2c-0.8,0-0.8-0.4-1.5-0.4v0.4C176.8,109.5,177,109.5,177.2,109.5z"/>
	<path class="st0" d="M11.6,20.4H11c-0.4,0,0,0.2,0,0.2C11.6,20.6,12.2,20.4,11.6,20.4z"/>
	<path class="st0" d="M92.2,14c0,0.4-0.4,0.4-0.4,0.9h0.4C93.1,14.4,92.2,14.4,92.2,14z"/>
	<path class="st0" d="M14.7,30.5c-0.4-0.4-0.7,0.9-0.7,0.9c-0.4,0.2,0,0.8,0.4,0.8c0.2,0,0.4-0.2,0.7-0.4
		C15.5,31.4,15.1,30.7,14.7,30.5z"/>
	<path class="st0" d="M10.6,12.7c-0.2-0.4-0.2-0.7-0.4-0.7s-0.7,0.9-1.1,1.1l1.1,0.9C11.1,13.6,10.6,13.1,10.6,12.7z"/>
	<path class="st0" d="M146.9,101.8c0.2,0,0.4-0.2,0.7,0c0-0.4,0-1.1-0.7-1.1c0,0,0,0.7-0.4,0.7C146.5,101.6,146.7,101.8,146.9,101.8
		z"/>
	<path class="st0" d="M152.3,70.5c0,0.4,0,0.4,0.2,0.4c0.7,0,1.8-0.4,1.8-0.7c-0.7-0.5-1.1-1.8-1.8-1.4c-0.7,0,0,0.9,0,1.5
		C152.3,70.3,152.3,70.3,152.3,70.5z"/>
	<path class="st0" d="M10.6,15c0,0.4-0.4,0.4-0.4,0.9c0,0,0,0.9,0.4,0.9C11,16.8,11,15.9,10.6,15z"/>
	<path class="st0" d="M116,16.5c-0.2,0-0.4,0.4-0.7,0.7h0.9C116.2,16.8,116.2,16.5,116,16.5z"/>
	<path class="st0" d="M66,39.5c0.2-0.4,0.2-0.7,0-1.5c0,0-0.7-0.2-0.9,0.4l-0.2,0.7c-0.2-0.2-0.7-0.4-1.1,0c0,0-0.2,0.4,0.2,0.7
		c0.2,0.2,0.2,0.2,0.7,0c-0.4,0.2,0.4,0.4,0.4,0.4C66,40.2,66,39.5,66,39.5z"/>
	<path class="st0" d="M59.7,107.5h-0.4c0,0.4,0,0.7,0.4,0.7c0,0,0.4,0,0.4-0.2C60.2,107.5,60.2,107.5,59.7,107.5z"/>
	<path class="st0" d="M60.2,33.2c0.4,0.5,1.1,0.9,1.7,0.9v-0.9l-0.2-0.4C61,32.8,60.6,33.2,60.2,33.2z"/>
	<path class="st0" d="M59.1,90.2c-0.4,0-1.1,0.7-1.1,1.1c0.7,0,0.7,1.5,1.1,1.5C59.7,92.8,59.7,90.8,59.1,90.2z"/>
	<path class="st0" d="M57.5,109.8h-0.2c0,0.2,0,0.7,0.2,0.7c0.4-0.1,0.4-0.1,0.4-0.5C57.8,109.8,57.8,109.8,57.5,109.8z"/>
	<path class="st0" d="M55.2,107.8v0.7c0,0.2,0.2,0.4,0.4,0.4c0.4,0,0.9-0.2,1.1-0.7C56.8,108,55.7,107.8,55.2,107.8z"/>
	<path class="st0" d="M58,48.2c-0.9,0-0.9-0.9-0.9-0.9c-0.2,0.5-0.7,1-0.9,1.6l0.9,0.2C58.6,49.1,58,48.2,58,48.2z"/>
	<path class="st0" d="M83.8,109.9c-0.2,0-0.4,0-0.7,0.2c-0.2,1.2-0.4,2.3,0.5,3c0.7,0,1.3-1.3,0.9-2.3
		C84.5,110.4,84.3,109.9,83.8,109.9z"/>
	<path class="st0" d="M80,114.1c0-0.1-0.5,0.4,0,0.4l1.3-0.4l-0.4-0.4C80.9,113.7,80.2,114.1,80,114.1z"/>
	<path class="st0" d="M50.7,118.1c0,0-0.4,0.9,0.2,0.9c0,0,0.7-0.9,0.7-1.5C50.9,117,50.7,118.1,50.7,118.1z"/>
	<path class="st0" d="M66,102.2c-0.2,0-0.7,0.4-0.7,1.1c0,0.2,0.2,0.4,0.2,0.7l0.4,0.4c0.9,0,0.4-1.1,0.9-1.3
		C66.4,103,66.4,102.2,66,102.2z"/>
	<path class="st0" d="M67.2,72.4c-0.4,0-0.7,0.2-0.9,0.9c0,0.4,0,1,0.5,1c0.4-1.1,1.1-0.7,1.8-1.1C68.1,72.6,67.7,72.4,67.2,72.4z"
		/>
	<path class="st0" d="M70.9,112.3c-0.4,0.2-0.9,0.2-0.4,1.1c0,0,0,0.4,0.4,0.4c0.7,0.2,0.7-0.7,0.7-0.7
		C71.6,112.3,70.9,112.5,70.9,112.3z"/>
	<path class="st0" d="M72.8,117.9c-0.4-0.9-0.4-0.2-0.9,0c0.4,0.7,0.4,0.7,0.9,0.9c0.4,0.4,0.4,0,0.4-0.7
		C73.3,117.9,73.3,117.9,72.8,117.9z"/>
	<path class="st0" d="M66.7,30.9c0.4-0.6-0.3-0.9,0-1.1c-0.4,0-0.9-0.2-0.9,0.4c0,0-0.4,0.4,0,0.7C66.2,31.6,66.7,30.9,66.7,30.9z"
		/>
	<path class="st0" d="M58.7,28.1c-0.1-0.7-0.5-0.7-0.9-0.7c-0.2,0-0.7,0-0.9,0c-0.4,0-0.4,0.7-0.4,0.7l1.5,1.1
		C58.9,29.6,59.1,28.5,58.7,28.1z"/>
	<path class="st0" d="M65.6,67.2v0.4l0.9,0.7v-1.1C66.5,67.2,66.5,66.8,65.6,67.2z"/>
	<path class="st0" d="M82.9,41.3c0.2,0,0.4,0,0.7-0.2c0.2-0.7-0.9-0.9-1.5-1.3l-0.5,0.6C81.4,41.1,82.3,41.3,82.9,41.3z"/>
	<path class="st0" d="M73.3,30.3l-0.4-0.4c0,0-0.4,0.2-0.2,0.4H73.3z"/>
	<path class="st0" d="M79.9,46c-0.4,0-0.4,0-0.4,0.4h0.4C80.3,46,79.9,46,79.9,46z"/>
	<path class="st0" d="M73.4,35c0.7,0.7,0.7,1.1,1.5,1.1c0.6-0.5,1-0.5,1-1.1c-0.2-0.9-1.3-1.5-2.2-1.5c-0.2,0-0.4,0.2-0.7,0.4
		C73,34.6,73,35,73.4,35z"/>
	<path class="st0" d="M43.9,51.2c0,0.2-0.2,0.7-0.2,1.3c0.2,0.2,0.7,0,0.7,0c0.4-0.7,0.4-1.1,0.4-1.1C44.7,51.2,44.3,51.2,43.9,51.2
		z"/>
	<path class="st0" d="M46.9,39.7c-0.2,0-0.5,1.1-0.5,1.5h0.7C47.8,41.2,47.5,40.1,46.9,39.7z"/>
	<path class="st0" d="M45.8,51.3c0,0,0.9,0.4,0.9-0.2c0,0-0.9-0.7-1.5-0.7C44.7,51.1,45.8,51.3,45.8,51.3z"/>
	<path class="st0" d="M48.5,38.6c-0.2,0-0.2,0-0.2,0.4v0.2c0.2,0,0.7,0,0.7-0.2C49,38.6,49,38.6,48.5,38.6z"/>
	<path class="st0" d="M46.9,36.8c0,0,0-0.4-0.2-0.4c-0.5-0.1-0.5-0.1-0.5,0.3v0.5C46.6,37.2,46.9,37.2,46.9,36.8z"/>
	<path class="st0" d="M50.9,116.1c-0.2,0-0.7-0.2-1.3-0.2c-0.2,0,0,0.7,0,0.7c0.7,0.4,1.1,0.4,1.1,0.4
		C50.9,117,50.9,116.6,50.9,116.1z"/>
	<path class="st0" d="M96,119.8c0.5,0,1,0,1.5,0.1c4.2,0,8.4-0.1,12.6-0.1c0-6.5,1.3-10.6,1.2-17.2c0-0.2-1.1-1.3-1.3-1.3
		c-3.7,0.2-7.1,0.2-10.8,0.2c-2.8,0-5.6,0-8.4,0c-4.3,0-8.6,0-12.9,0.4c-0.9,0-2-0.3-2.8-0.7c-1.5-0.9-3.1-2.2-3.8-4.1
		c-0.4-1.9-0.2-4,0-6c0.5-0.4,1.3-1.5,2-1.5c3.8-0.4,7.7-0.4,11.6-0.4c6.1,0,11.8,0.2,17.6,0.2c8.7,0,15.7,7,19.3,14.6
		c3.2,5.7,3.9,10.5,6.1,16.5c15-0.1,30.1-0.2,45.3-0.2c5,0,10,0,15,0c0.3-6.4,1.3-11.4,1.3-17.8c0-0.2-0.7-0.9-0.9-0.9
		c-0.9,0-1.7,0-2.3,0c-2.7,0-5.6,0.2-8.1,0.2c-3.9,0-7.5-0.7-10.6-3.2c-2.3-2-5-7.1-9.9-12c-2-2-4-3-5.8-5.2
		c-0.3-0.2,0.4-0.9,0.4-1.3c4.9-2.8,9.6-4.6,13.7-8.4c2.5-2.2,4-4.7,6-7c3.6-6,4.5-12.6,4.5-19.1c0-4.7-0.4-9.5-2.2-14.2
		c-3.8-14.2-16.1-22.9-30.1-25.7c-2.3-0.2-4.9-0.2-7-0.2c-18.5-0.4-36.9-0.4-55.4-0.4c-25.1,0-50.4,0.2-75.6,0.4c0,0-0.9-0.4-1,0.3
		c-0.6,14-0.6,28-0.4,41.7c0,0.4,1.1,1.3,1.3,1.3c1.8,0,3.4,0,5.2,0c4.3,0,8.6,0,12.9,0c3.4,0,6.9,0,10.1,0.4c4.7,0.2,7.9,5,8.1,9.7
		c0.7,10.5,0.7,21.4,0,32.2c0,5.6-3.6,11-9,11.4c-3.8,0.2-7.7,0.2-11.6,0.2c-5.3,0-10.7,0-15.9-0.2c-0.6,0-1.3,0.8-1.3,1.5
		c0.2,12.9,0,25.9,0,38.9c0,0.6,0.6,1.3,1.3,1.3h78.5c0.1-4.9,0.2-9.5,0.5-14C84.9,125.5,91.5,119.8,96,119.8z M100.7,115.6
		c0.7,0.4,0.7,0.8,0.7,1.5c0,0.7-0.7,0-1.1,0.1c-0.7,0-0.7-0.7-0.7-0.7C100.3,116,100.3,115.6,100.7,115.6z M95.8,114.5
		c0.4,0.4,1.3,2.3,0.4,2.3c-1.1,0-0.4-1.1-1.1-2C95.1,114.9,95.1,114.5,95.8,114.5z M176.8,108.9c0.7,0,0.7,0.4,1.5,0.4
		c-0.4,0.2-0.9,0.2-1.1,0.2c-0.2,0-0.4,0-0.4-0.2V108.9z M160.4,113.6c0.7,0,0.7,0.7,0.7,0.7v0.4H160
		C160,114.3,160,113.6,160.4,113.6z M163.7,43.1l-0.4-0.7c0.4-0.5,0.4-0.7,0.4-0.7c0.9,0,1.3,0.3,1.3,0.7
		C164.9,43.1,164.5,43.1,163.7,43.1z M163.9,24.4c0.4,0,1.1,0,1.1,0.7c0,0.4,0,0.4-0.7,0.4C163.9,25.5,162.4,25.5,163.9,24.4z
		 M152.5,68.9c0.7-0.4,1.1,0.9,1.8,1.4c0,0.3-1.1,0.7-1.8,0.7c-0.2,0-0.2,0-0.2-0.4c0-0.2,0-0.2,0.2-0.2
		C152.5,69.7,151.8,68.9,152.5,68.9z M146.9,100.7c0.7,0,0.7,0.7,0.7,1.1c-0.3-0.2-0.5,0-0.7,0c-0.2,0-0.4-0.2-0.4-0.4
		C146.9,101.4,146.9,100.7,146.9,100.7z M10.2,12c0.2,0,0.2,0.3,0.4,0.7c0,0.4,0.5,0.9-0.4,1.3l-1.1-0.9C9.5,12.9,10,12,10.2,12z
		 M10.6,16.8c-0.4,0-0.4-0.9-0.4-0.9c0-0.5,0.4-0.5,0.4-0.9C11,15.9,11,16.8,10.6,16.8z M11,20.6c0,0-0.4-0.2,0-0.2h0.7
		C12.2,20.4,11.6,20.6,11,20.6z M11.8,40.4c0-0.5-0.7-0.9,0-0.9c0.4,0,0.9-0.9,0.9-0.2c0,0.5,0.4,0.5,0.4,0.9
		C12.7,40.6,12.2,40.8,11.8,40.4z M15.1,31.8c-0.3,0.2-0.5,0.4-0.7,0.4c-0.4,0-0.8-0.6-0.4-0.8c0,0,0.3-1.3,0.7-0.9
		C15.1,30.7,15.5,31.4,15.1,31.8z M15.3,14v-0.9C15.7,13.1,16.1,13.6,15.3,14z M17.5,13c0,0,0-0.4,0.4-1.1h0.4
		c0.8,0.7,1.5,1.1,1.5,2c-0.4,0.5-0.9,0.7-1.3,0.7C17.9,14.5,17.4,13.8,17.5,13z M19.4,35L19,34.3l0.4-0.2h0.9
		C20.3,35,20.3,35,19.4,35z M17.4,129.1c-0.2,0-0.9,0.4-1.3,0.4c-0.2,0-0.4,0-0.4-0.4c-0.5-1.3,1.3-0.6,1.3-1.3
		C17,128.4,18.1,128.4,17.4,129.1z M28.8,133.1h-0.7c0-0.6,0-1.3,0.7-1.3c0,0,0,0.7,0.4,0.6C29.2,133.1,29.2,133.1,28.8,133.1z
		 M29.5,127.9c-0.4,0.5-0.4,0.7-1.1,0.7c-1.3-0.6-0.2-2.3,0.7-2.2C30.5,126.4,29.9,127.2,29.5,127.9z M31.2,107.5
		c0-0.4-1.6-0.4-0.7-1.1h0.7V107.5z M33.6,123.8c-0.3,0-0.7,0-0.7,1.1c-0.7,0-0.7-0.5-0.7-2c0,0,0-0.7,0.7-0.7
		c0.3,0,0.5,0.2,0.7,0.2l0.7,0.5C34.3,123.8,34,123.8,33.6,123.8z M82.8,81.4c-0.1,0-0.1-0.7-0.7-0.7c0.4,0,0.4-0.2,0.7-0.2
		C82.8,80.5,82.8,80.7,82.8,81.4z M130.6,111.8c-0.6,0-1.3,0-1.5-0.7c0,0,0.2-0.2,0.9-0.2c0,0,0.2-0.2,0.4-0.2c0,0,0.4,0.5,0.4,0.9
		C130.8,111.8,130.8,111.8,130.6,111.8z M130.4,94v0.2l-0.2-0.2v-0.9c0.2,0,0.7,0.5,0.6,0.5C130.8,94,130.4,94,130.4,94z
		 M134.1,92.7c-0.2-0.3-0.9-0.3-0.9-0.7c0,0,0-0.7,0.4-0.7c0.9,0,0.9,0.9,0.9,1.1C134.5,92.6,134.1,92.6,134.1,92.7z M139,82.3
		c-0.4,0.6-0.7-0.3-1.1-0.6c0.2-0.3,0.2-0.3,0-0.7c0.2,0.4,1.3,0.2,1.3,0.4C139.2,81.2,138.6,82.5,139,82.3z M141.9,90.8h-0.4
		c-0.5,0.4-0.9,0.4-0.9,0.4c-0.2-0.6,0.5-1.1,0.9-1.5c0.2-0.2,0.2-0.2,0.4,0C142.1,90.1,141.9,90.8,141.9,90.8z M139.5,15.6h0.4
		l-0.4,0.4V15.6z M128,20.4c0.7,0.8,1.4,0.8,0.7,1.5c0,0.9,0,0.9-0.7,0.9c-0.7,0-0.7-0.9-0.7-0.9C127.3,21.3,128,21.3,128,20.4z
		 M116,16.5c0.2,0,0.2,0.3,0.2,0.7h-0.9C115.6,16.9,115.8,16.5,116,16.5z M106.3,25.5c0.7-0.4,1.1,0.9,1.8,1.4
		c0,0.3-1.1,0.7-1.8,0.7c-0.2,0-0.2,0-0.2-0.4c0-0.2,0-0.2,0.2-0.2C106.3,26.4,105.6,25.5,106.3,25.5z M97,16.7
		c0.3,0,0.5,0.3,0.7,0.7c0,0.4,0,0.4-0.4,0.4c-0.4,0-0.4,0-0.5-0.4C96.8,16.9,97,16.7,97,16.7z M92.2,14c0,0.5,0.9,0.5,0,0.9h-0.4
		C91.8,14.3,92.2,14.3,92.2,14z M81.6,40.4l0.5-0.6c0.6,0.4,1.7,0.6,1.5,1.3c-0.3,0.2-0.5,0.2-0.7,0.2
		C82.3,41.3,81.4,41.1,81.6,40.4z M79.9,46c0,0,0.4,0,0,0.4h-0.4C79.5,46,79.5,46,79.9,46z M75.9,35c0,0.6-0.4,0.6-1,1.1
		c-0.8,0-0.8-0.4-1.5-1.1C73,35,73,34.6,73,33.9c0.3-0.2,0.5-0.4,0.7-0.4C74.6,33.5,75.7,34.1,75.9,35z M72.9,29.9l0.4,0.4h-0.6
		C72.5,30.1,72.9,29.9,72.9,29.9z M70.9,55.4c0.7-2,2.2-3.9,4.1-4.1c8.1-1.8,16.3-2.2,24.3-2.2c11.2,0,22.1,0.9,33.3,0.9
		c1.8,0,3.4,0,5.2,0c2.2,0,4.3,0.9,5.1,3.3c0.7,1.7,0.4,4.3-1.1,5.8c-0.7,0.6-1.1,1.3-1.8,1.3c-11.2,0.2-22.5,0.4-33.7,0.4
		c-11.5,0-22.6-0.3-34-0.7C70.2,60.1,70.2,57.3,70.9,55.4z M65.8,30.2c0-0.6,0.5-0.4,0.9-0.4c-0.3,0.2,0.4,0.5,0,1.1
		c0,0-0.5,0.7-0.9,0C65.4,30.6,65.8,30.2,65.8,30.2z M66.5,67.2v1.1l-0.9-0.7v-0.4C66.5,66.8,66.5,67.2,66.5,67.2z M57,27.5
		c0.2,0,0.7,0,0.9,0c0.4,0,0.8,0,0.9,0.7c0.4,0.4,0.2,1.5-0.7,1.1l-1.5-1.1C56.6,28.1,56.6,27.5,57,27.5z M46.2,36.7
		c0-0.4,0-0.4,0.5-0.3c0.2,0,0.2,0.4,0.2,0.4c0,0.4-0.3,0.4-0.7,0.4V36.7z M44.3,52.4c0,0-0.5,0.2-0.7,0c0-0.6,0.2-1.1,0.2-1.3
		c0.5,0,0.9,0,0.9,0.2C44.7,51.3,44.7,51.7,44.3,52.4z M45.8,51.3c0,0-1.1-0.3-0.6-0.9c0.6,0,1.5,0.7,1.5,0.7
		C46.7,51.7,45.8,51.3,45.8,51.3z M47.1,41.2h-0.7c0-0.4,0.3-1.5,0.5-1.5C47.5,40.1,47.8,41.2,47.1,41.2z M48.4,39.2V39
		c0-0.4,0-0.4,0.2-0.4c0.5,0,0.5,0,0.5,0.4C49,39.2,48.5,39.2,48.4,39.2z M49.6,116c0.6,0,1.1,0.2,1.3,0.2c0,0.5,0,0.9-0.2,0.9
		c0,0-0.4,0-1.1-0.4C49.6,116.6,49.4,116,49.6,116z M50.9,119c-0.6,0-0.2-0.9-0.2-0.9s0.2-1.1,0.9-0.6C51.6,118.1,50.9,119,50.9,119
		z M55.6,108.9c-0.2,0-0.4-0.2-0.4-0.4v-0.7c0.5,0,1.6,0.2,1.5,0.4C56.5,108.7,56,108.9,55.6,108.9z M56.3,48.9
		c0.2-0.6,0.7-1.1,0.9-1.6c0,0,0,0.9,0.9,0.9c0,0,0.6,0.9-0.9,0.9L56.3,48.9z M57.5,110.5c-0.2,0-0.2-0.5-0.2-0.7h0.2
		c0.4,0,0.4,0,0.4,0.2C57.8,110.4,57.8,110.4,57.5,110.5z M59.1,92.8c-0.4,0-0.4-1.5-1.1-1.5c0-0.4,0.7-1.1,1.1-1.1
		C59.7,90.8,59.7,92.8,59.1,92.8z M60.1,108c0,0.2-0.4,0.2-0.4,0.2c-0.4,0-0.4-0.3-0.4-0.7h0.4C60.2,107.5,60.2,107.5,60.1,108z
		 M61.9,34.1c-0.6,0-1.3-0.4-1.7-0.9c0.4,0,0.8-0.4,1.5-0.4l0.2,0.4V34.1z M64.7,39.8c-0.5,0.2-0.5,0.2-0.7,0
		c-0.4-0.3-0.2-0.7-0.2-0.7c0.4-0.4,0.9-0.2,1.1,0l0.2-0.7C65.3,37.8,66,38,66,38c0.2,0.8,0.2,1.1,0,1.5c0,0,0,0.7-0.9,0.7
		C65.1,40.2,64.3,40,64.7,39.8z M65.9,104.4l-0.4-0.4c0-0.3-0.2-0.5-0.2-0.7c0-0.7,0.5-1.1,0.7-1.1c0.4,0,0.4,0.8,0.8,0.9
		C66.3,103.3,66.8,104.4,65.9,104.4z M66.9,74.3c-0.5,0-0.5-0.6-0.5-1c0.2-0.7,0.5-0.9,0.9-0.9c0.5,0,0.9,0.2,1.4,0.8
		C67.9,73.6,67.2,73.2,66.9,74.3z M70.9,113.8c-0.4,0-0.4-0.4-0.4-0.4c-0.5-0.9,0-0.9,0.4-1.1c0,0.2,0.7,0,0.7,0.8
		C71.6,113.1,71.6,114,70.9,113.8z M73.2,118.1c0,0.7,0,1.1-0.4,0.7c-0.5-0.2-0.5-0.2-0.9-0.9c0.5-0.2,0.5-0.9,0.9,0
		C73.3,117.9,73.3,117.9,73.2,118.1z M80,114.5c-0.5,0,0-0.5,0-0.4c0.2,0,0.9-0.4,0.9-0.4l0.4,0.4L80,114.5z M83.6,113.1
		c-0.9-0.8-0.7-1.9-0.5-3c0.3-0.2,0.5-0.2,0.7-0.2c0.5,0,0.7,0.5,0.7,0.9C84.9,111.8,84.3,113.1,83.6,113.1z"/>
	<path class="st0" d="M82.8,81.4c0-0.7,0-0.9,0-0.9c-0.3,0-0.3,0.2-0.7,0.2C82.7,80.7,82.7,81.4,82.8,81.4z"/>
	<path class="st0" d="M105,135.9c0,0.5-0.7,0.9-1.1,0.9c-0.6,0-1.3-0.5-1.3-0.9c0-0.7,0.5-1.1,0.4-1.1
		C103.8,134.8,105,134.8,105,135.9z"/>
	<path class="st0" d="M177.3,130.5c-0.3,0-0.5,0.7-0.7,0.7c0,0-0.2-0.2-0.4-0.7c0,0,0.7,0,0.7-0.4
		C176.9,130.1,177.3,130.1,177.3,130.5z"/>
	<path class="st0" d="M290.2,226.3L290.2,226.3c-2.7,0-17.7,0.2-20.3,0.2c-3.9,0-7.5-0.7-10.6-3.2c-2.3-2-5-7.1-9.9-12
		c-2-2-4-3-5.8-5.2c-0.3-0.2,0.4-0.9,0.4-1.3c4.9-2.8,9.6-4.6,13.7-8.4c2.5-2.2,4-4.7,6-7c3.6-6,4.5-12.6,4.5-19.1
		c0-4.7-0.4-9.5-2.2-14.2c-3.8-14.2-16.1-22.9-30.1-25.7c-2.3-0.2-4.9-0.2-7-0.2c-13.6-0.3-27.1-0.4-40.7-0.4c-4.9,0-9.8,0-14.7,0
		c-13.8,0-27.7,0.1-41.6,0.1c-6.8,0-13.6,0-20.5,0.1c-4.6,0-9.2,0-13.7,0c0,0-0.3-0.1-0.5-0.1c-0.1,0-0.3,0.1-0.3,0.4
		c-0.2,4.6-0.3,9.3-0.4,13.9c-0.2,9.3-0.1,18.6,0,27.8c0,0.4,1.1,1.3,1.3,1.3H116c3.4,0,6.9,0,10.1,0.4c4.7,0.2,7.9,5,8.1,9.7
		c0.7,10.5,0.7,21.4,0,32.2c0,5.6-3.6,11-9,11.4c-3.8,0.2-7.7,0.2-11.6,0.2c-5.3,0-10.7,0-15.9-0.2c-0.6,0-1.3,0.8-1.3,1.5
		c0.2,12.9,0,25.9,0,38.9c0,0.6,0.6,1.3,1.3,1.3h103.6c0.6,0,1.3-0.6,1.5-1.3c1.1-13.5,0.6-26.6,0.4-40.1c0-0.2-1.1-1.3-1.3-1.3
		c-3.7,0.2-7.1,0.2-10.8,0.2h-8.4c-4.3,0-8.6,0-12.9,0.4c-0.9,0-2-0.3-2.8-0.7c-1.5-0.9-3.1-2.2-3.8-4.1c-0.4-1.9-0.2-4,0-6
		c0.5-0.4,1.3-1.5,2-1.5c3.8-0.4,7.7-0.4,11.6-0.4c6.1,0,11.8,0.2,17.6,0.2c8.7,0,15.7,7,19.3,14.6c4.5,8.1,5.2,17.2,10.1,25.4
		c1.3,2,2.5,3.2,3.6,5.2c7,8.4,16.3,9.5,26.6,9.5c4.5,0,9-0.2,13.5-0.4c1.5,0,3-0.4,4.5-0.4c0.7,0,1.1,0,1.8,0.2h0.7
		c1.3,0,14.5-0.4,15.9-0.4c0.7-0.2,1.6-0.8,1.8-1.5c0.4-5.4-0.5-12.8-0.1-18.2c0.2-6.6,1.3-11.5,1.4-18.2
		C293.4,227.7,292,226.3,290.2,226.3z M255.9,149c0.4,0,1.1,0,1.1,0.7c0,0.4,0,0.4-0.7,0.4C255.9,150.1,254.3,150.1,255.9,149z
		 M255.6,166.4c0.9,0,1.3,0.3,1.3,0.7c0,0.7-0.4,0.7-1.3,0.7l-0.4-0.7C255.6,166.6,255.6,166.4,255.6,166.4z M244.4,193.5
		c0.1-0.1,0.2-0.1,0.3-0.1c0.5,0,0.9,1,1.5,1.6c0,0.3-1.1,0.7-1.8,0.7c-0.2,0-0.2,0-0.2-0.5c0-0.2,0-0.2,0.2-0.2
		C244.4,194.4,243.7,193.5,244.4,193.5z M102.1,136.5c0.2,0,0.2,0.3,0.4,0.7c0,0.4,0.5,0.9-0.4,1.3l-1.1-0.9
		C101.4,137.4,101.9,136.5,102.1,136.5z M102.5,141.3c-0.4,0-0.4-0.9-0.4-0.9c0-0.5,0.4-0.5,0.4-0.9
		C102.9,140.4,102.9,141.3,102.5,141.3z M102.9,144.9h0.7c0.6,0,0,0.2-0.7,0.2C102.9,145.1,102.5,144.9,102.9,144.9z M104.2,165.2
		c-0.1,0-0.3-0.1-0.5-0.2c0-0.5-0.7-0.9,0-0.9c0.3,0,0.6-0.5,0.8-0.5c0.1,0,0.1,0,0.1,0.2c0,0.5,0.4,0.5,0.4,0.9
		C104.7,165,104.5,165.2,104.2,165.2z M104,136.8c-0.6,0-1.3-0.5-1.3-0.9c0-0.7,0.5-1.1,0.4-1.1c0.7,0,2,0,2,1.1
		C105,136.4,104.3,136.8,104,136.8z M107,156.4c-0.3,0.2-0.5,0.4-0.7,0.4c-0.4,0-0.8-0.7-0.4-0.8c0,0,0.2-1,0.5-1
		c0.1,0,0.1,0,0.2,0.1C107,155.3,107.4,156,107,156.4z M107.2,138.5v-0.9C107.6,137.6,108.1,138.1,107.2,138.5z M109.4,137.6
		c0,0,0-0.4,0.4-1.1h0.4c0.4,0.3,0.8,0.6,1,0.9c0.3,0.3,0.4,0.6,0.4,1c-0.2,0.2-0.3,0.3-0.5,0.5c-0.3,0.1-0.5,0.2-0.7,0.2
		C109.8,139.1,109.3,138.3,109.4,137.6z M111.3,159.5l-0.4-0.7l0.4-0.2h0.9C112.2,159.5,112.2,159.5,111.3,159.5z M109.3,253.7
		c-0.2,0-0.9,0.4-1.3,0.4c-0.2,0-0.4,0-0.4-0.4c-0.5-1.3,1.3-0.6,1.3-1.3C108.9,253,110,253,109.3,253.7z M120.8,257.7h-0.7
		c0-0.6,0-1.3,0.7-1.4c0,0,0,0.7,0.4,0.7C121.2,257.7,121.2,257.7,120.8,257.7z M121.4,252.5c-0.4,0.5-0.4,0.7-1.1,0.7
		c-1.2-0.6-0.3-2.2,0.5-2.2c0.1,0,0.1,0,0.2,0C122.5,251,121.8,251.8,121.4,252.5z M123.1,232.1c0-0.4-1.6-0.4-0.7-1.1h0.7V232.1z
		 M125.5,248.3c-0.3,0-0.7,0-0.7,1.1c-0.6,0-0.6-0.5-0.7-1.9c0,0,0-0.7,0.7-0.7c0.3,0,0.5,0.2,0.7,0.2l0.7,0.4
		C126.2,248.3,125.9,248.3,125.5,248.3z M195,259.4c0.7,0,2,0,2,1.1c0,0.5-0.7,0.9-1.1,0.9c-0.6,0-1.3-0.4-1.3-0.9
		C194.6,259.7,195,259.4,195,259.4z M192.6,240.1c0.7,0.4,0.7,0.8,0.7,1.5c0,0.2-0.1,0.3-0.2,0.3c-0.2,0-0.6-0.2-0.9-0.2
		c-0.7,0-0.7-0.7-0.7-0.7C192.2,240.5,192.2,240.1,192.6,240.1z M187.7,239c0.4,0.4,1.3,2.3,0.4,2.3c-1.1,0-0.4-1.1-1.1-2
		C187.1,239.4,187.1,239,187.7,239z M175,234.7c0.3-0.2,0.5-0.2,0.7-0.2c0.5,0,0.7,0.5,0.7,0.9c0.4,1.1-0.2,2.3-0.9,2.3
		C174.6,236.8,174.8,235.8,175,234.7z M171.9,238.6c0.2,0,0.9-0.4,0.9-0.4l0.4,0.4l-1.3,0.4C171.4,239,171.9,238.6,171.9,238.6z
		 M231.4,140.2h0.4l-0.4,0.4V140.2z M219.9,144.9c0.7,0.8,1.4,0.8,0.7,1.5c0,0.9,0,0.9-0.7,0.9c-0.6,0-0.6-0.8-0.7-0.9
		C219.3,145.8,219.9,145.8,219.9,144.9z M208,141c0.2,0,0.2,0.3,0.2,0.7h-0.9C207.5,141.5,207.8,141,208,141z M198.3,150.1
		c0.1-0.1,0.2-0.1,0.3-0.1c0.5,0,0.9,1,1.5,1.6c0,0.3-1.1,0.7-1.8,0.7c-0.3,0-0.3,0-0.2-0.5c0-0.2,0-0.2,0.2-0.2
		C198.3,151,197.6,150.1,198.3,150.1z M188.9,141.3c0.3,0,0.5,0.3,0.7,0.7c0,0.4,0,0.4-0.4,0.4c-0.4,0-0.4,0-0.5-0.4
		C188.7,141.5,188.9,141.3,188.9,141.3z M184.3,137c0-0.4-0.4-0.4-0.4-0.4C184.3,136.6,184.3,136.6,184.3,137z M184,138.5
		c0,0.5,0.9,0.5,0,0.9h-0.4C183.6,139,184.1,139,184,138.5z M171.8,171h-0.4c0-0.5,0-0.5,0.4-0.4C171.8,170.6,172.2,170.6,171.8,171
		z M165.6,158c0.9,0,2,0.6,2.2,1.5c0,0.7-0.5,0.7-0.9,1.1c-0.9,0-0.9-0.4-1.6-1.1c-0.4,0-0.4-0.4-0.4-1.1
		C165.2,158.2,165.4,158,165.6,158z M164.5,154.8c-0.2-0.2,0.2-0.4,0.3-0.4l0.4,0.4H164.5z M173.6,165l0.4-0.7
		c0.6,0.4,1.7,0.6,1.5,1.3c-0.3,0.2-0.5,0.2-0.7,0.2C174.2,165.8,173.4,165.6,173.6,165z M176.9,130.1c0,0,0.4,0,0.4,0.4
		c-0.3,0-0.5,0.7-0.7,0.7c0,0-0.2-0.2-0.4-0.7C176.2,130.5,176.9,130.5,176.9,130.1z M158.1,155.8c-0.1,0-0.3-0.1-0.4-0.2
		c-0.4-0.3,0-0.7,0-0.7c0-0.4,0.2-0.5,0.4-0.5h0.5c-0.2,0.2,0.4,0.4,0,1.1C158.6,155.5,158.4,155.8,158.1,155.8z M158.3,191.8v1
		l-0.9-0.6v-0.4c0.3-0.2,0.5-0.2,0.6-0.2C158.3,191.6,158.3,191.8,158.3,191.8z M150,153.7l-1.5-1.1c0,0,0-0.7,0.4-0.7h0.9
		c0.5,0,0.9,0,0.9,0.7c0.4,0.4,0.3,1.2-0.3,1.2C150.3,153.8,150.1,153.8,150,153.7z M149.1,173.7l-0.9-0.3c0.2-0.6,0.7-1.1,0.9-1.5
		c0,0,0,0.9,0.9,0.9C150,172.8,150.5,173.7,149.1,173.7z M138.8,161.3c0,0.4-0.2,0.4-0.6,0.4v-0.4c0-0.4,0-0.4,0.4-0.4
		C138.8,160.9,138.8,161.3,138.8,161.3z M136.3,176.9c0,0-0.2,0.1-0.4,0.1c-0.1,0-0.2,0-0.3-0.1c0-0.6,0.2-1.1,0.2-1.3
		c0.5,0,0.9,0,0.9,0.2C136.6,175.9,136.6,176.2,136.3,176.9z M138.2,176.1c-0.2,0-0.5-0.2-0.5-0.2s-1.1-0.2-0.7-0.9
		c0.6,0,1.5,0.7,1.5,0.7C138.5,176,138.4,176.1,138.2,176.1z M139,165.8h-0.7c0-0.4,0.3-1.5,0.5-1.5
		C139.4,164.7,139.7,165.8,139,165.8z M140.4,163.8v-0.2c0-0.4,0-0.4,0.2-0.4c0.4,0,0.4,0,0.4,0.4
		C141,163.8,140.6,163.8,140.4,163.8z M141.5,240.6c0.6,0,1.1,0.2,1.3,0.2c0,0.5,0,0.9-0.2,0.9c0,0-0.4,0-1.1-0.4
		C141.5,241.2,141.3,240.6,141.5,240.6z M142.8,243.5c-0.6,0-0.2-0.8-0.2-0.8s0.2-0.8,0.6-0.8c0.1,0,0.2,0,0.3,0.1
		C143.5,242.6,142.8,243.5,142.8,243.5z M147.6,233.4c-0.2,0-0.5-0.2-0.4-0.4v-0.7c0.4,0,1.5,0.2,1.5,0.4
		C148.5,233.2,148,233.4,147.6,233.4z M149.3,235c-0.2,0-0.2-0.5-0.2-0.6h0.2c0.4,0,0.4,0,0.4,0.2C149.7,235,149.7,235,149.3,235z
		 M150,215.9c0-0.4,0.7-1.1,1.1-1.1c0.7,0.6,0.7,2.5,0,2.5C150.5,217.4,150.5,215.8,150,215.9z M151.6,232.8c-0.4,0-0.4-0.3-0.4-0.6
		h0.4c0.4,0,0.4,0,0.4,0.4C152,232.8,151.6,232.8,151.6,232.8z M153.8,158.7c-0.6,0-1.3-0.5-1.7-0.9c0.4,0,0.8-0.4,1.5-0.4l0.2,0.4
		V158.7z M156.5,164.3c-0.2,0.1-0.3,0.2-0.4,0.2c0,0-0.1-0.1-0.2-0.2c-0.4-0.3-0.2-0.7-0.2-0.7c0.1-0.2,0.3-0.3,0.5-0.3
		c0.3,0,0.5,0.2,0.6,0.3l0.2-0.6c0.1-0.4,0.4-0.5,0.6-0.5c0.1,0,0.2,0,0.2,0c0.2,0.8,0.2,1.1,0,1.5c0,0,0,0.7-0.9,0.7
		C156.9,164.7,156.1,164.5,156.5,164.3z M157.9,228.9l-0.5-0.4c0-0.3-0.2-0.5-0.2-0.7c0-0.7,0.5-1.1,0.7-1.1c0.5,0,0.5,0.9,0.9,0.9
		C158.3,227.8,158.8,228.9,157.9,228.9z M158.8,198.9c-0.5,0-0.5-0.7-0.4-1.1c0.2-0.7,0.5-0.9,0.9-0.9s0.9,0.2,1.3,0.9
		C159.8,198.2,159.2,197.8,158.8,198.9z M164.4,242.1c0.1,0,0.2,0.1,0.4,0.4c0.4,0,0.4,0,0.4,0.2c0,0.4,0,0.8-0.2,0.8
		c-0.1,0-0.1-0.1-0.2-0.1c-0.5-0.2-0.5-0.2-0.9-0.9C164.2,242.4,164.3,242.1,164.4,242.1z M163.5,237.7c0,0,0,0.7-0.5,0.7
		c0,0-0.1,0-0.2-0.1c-0.4,0-0.4-0.4-0.4-0.4c-0.5-0.9,0-0.9,0.4-1.1C162.8,237,163.5,236.8,163.5,237.7z M174.6,205.9
		c0,0,0-0.6-0.7-0.7c0.5,0,0.5-0.2,0.7-0.2C174.6,205,174.6,205.2,174.6,205.9z M222.5,236.4c-0.6,0-1.3,0-1.5-0.7
		c0,0,0.2-0.2,0.9-0.2c0,0,0.2-0.2,0.4-0.2c0,0,0.4,0.5,0.4,0.9C222.7,236.4,222.7,236.4,222.5,236.4z M222.3,218.6v0.2l-0.3-0.1
		v-0.9c0.3,0,0.7,0.4,0.7,0.4C222.7,218.6,222.3,218.6,222.3,218.6z M226,217.1c-0.3-0.2-0.9-0.2-0.9-0.6c0,0,0-0.7,0.4-0.7
		c0.9,0,0.9,0.9,0.9,1.1C226.4,217.1,226,217.1,226,217.1z M230.8,206.8L230.8,206.8c0,0.1-0.1,0.2-0.2,0.2c-0.3,0-0.5-0.5-0.8-0.8
		c0.2-0.3,0.2-0.3,0-0.7c0.2,0.4,1.2,0.2,1.3,0.4C231,205.9,230.6,206.8,230.8,206.8z M233.1,250h-0.4c-0.3,0-0.3-0.2-0.2-0.4
		c0-1.4,0.4-1.8,1.3-1.8c0.2,0.2,0.2,0.7,0.2,0.9C233.9,249.6,233.7,250,233.1,250z M233.9,215.4h-0.4c-0.5,0.4-0.9,0.4-0.9,0.4
		c-0.3-0.6,0.4-1.1,0.9-1.5c0.1-0.1,0.2-0.2,0.2-0.2s0.1,0.1,0.2,0.2C234.1,214.7,233.9,215.4,233.9,215.4z M233.7,183.7
		c-0.7,0.6-1.1,1.3-1.8,1.3c-11.2,0.2-22.5,0.4-33.7,0.4c-11.5,0-22.6-0.3-34.1-0.6c-2.2,0-2.2-2.7-1.5-4.7c0.7-2,2.2-3.9,4.1-4.1
		c8.1-1.8,16.3-2.2,24.3-2.2c11.2,0,22.1,0.9,33.3,0.9h5.2c2.2,0,4.3,0.9,5.2,3.2C235.5,179.6,235.2,182.2,233.7,183.7z
		 M239.2,226.3c-0.1,0-0.3,0.1-0.4,0.1c-0.2,0-0.4-0.2-0.5-0.4c0.4,0,0.4-0.7,0.4-0.7c0.7,0,0.7,0.7,0.7,1.1
		C239.3,226.3,239.3,226.3,239.2,226.3z M243.6,253l0.4-0.2C244,253,244,253,243.6,253z M253,239.2H252c0-0.4,0-1.1,0.4-1.1
		c0.7,0,0.7,0.7,0.7,0.7V239.2z M268.5,255.7c0,0-0.2-0.2-0.4-0.7c0,0,0.7,0,0.7-0.4c0,0,0.4,0,0.4,0.4
		C268.9,255,268.7,255.7,268.5,255.7z M269.2,234.1c-0.3,0-0.5,0-0.4-0.2v-0.4c0.6,0,0.6,0.4,1.5,0.4
		C269.9,234.1,269.4,234.1,269.2,234.1z M286.1,261.2c0,0-0.1,0-0.2,0C285.9,261.2,286,261.1,286.1,261.2c0.1,0,0.2,0.1,0.2,0.2
		C286.3,261.3,286.2,261.3,286.1,261.2z"/>
	<path class="st0" d="M184.3,137c0-0.4-0.4-0.4-0.4-0.4C184.3,136.6,184.3,136.6,184.3,137z"/>
</g>
</svg>
